SplineFontDB: 1.0
FontName: AkrutiMal1Bold
FullName: AkrutiMal1 Bold
FamilyName: AkrutiMal1
Weight: Bold
Copyright: Copyright (C) Cyberscape Multimedia Limited, Bangalore, INDIA.YContact: mssridhar@vsnl.comYThis program is free software; you can redistribute it and/orYmodify it under the terms of the GNU General Public LicenseYas published by the Free Software Fou
Version: Macromedia Fontographer 4.1 10/3/02
ItalicAngle: 0
UnderlinePosition: -133
UnderlineWidth: 20
Ascent: 800
Descent: 200
NeedsXUIDChange: 1
FSType: 1
PfmFamily: 81
TTFWeight: 700
TTFWidth: 5
Panose: 0 0 0 0 0 0 0 0 0 0
LineGap: 0
VLineGap: 0

LangName: 1033 "Copyright (C) Cyberscape Multimedia Limited, Bangalore, INDIA.+//8A-Contact: mssridhar@vsnl.com+//8A-This program is free software; you can redistribute it and/or+//8A-modify it under the terms of the GNU General Public License+//8A-as published by the Free Software Fou" "" "" "Macromedia Fontographer 4.1 AkrutiMal1 Bold" "" "Macromedia Fontographer 4.1 10/3/02" 
Encoding: unicode
DisplaySize: -24
BeginChars: 65938 195
StartChar: .notdef
Encoding: 0 -1
Width: 500
Flags: W
Fore
63 0 m 1
 63 800 l 1
 438 800 l 1
 438 0 l 1
 63 0 l 1
125 63 m 1
 375 63 l 1
 375 738 l 1
 125 738 l 1
 125 63 l 1
EndSplineSet
EndChar
StartChar: exclam
Encoding: 33 33
Width: 238
Flags: W
Fore
165 555 m 1
 160 470 l 1
 145 130 l 1
 95 130 l 1
 75 555 l 1
 75 569 79 581.5 87 592.5 c 0
 95 603.5 106 609.333 120 610 c 0
 132.667 610.667 143.167 605 151.5 593 c 0
 159.833 581 164.333 568.333 165 555 c 1
175 40 m 0
 175.667 24.6667 170.5 11.8333 159.5 1.5 c 0
 148.5 -8.83333 135.333 -14.3333 120 -15 c 0
 104.667 -15.6667 91.8333 -10.5 81.5 0.5 c 0
 71.1667 11.5 65.6667 24.6667 65 40 c 0
 64.3333 54 69.6667 65.6667 81 75 c 0
 92.3333 84.3333 105.333 89.3333 120 90 c 0
 133.333 90.6667 145.667 85.8333 157 75.5 c 0
 168.333 65.1667 174.333 53.3333 175 40 c 0
EndSplineSet
EndChar
StartChar: dollar
Encoding: 36 36
Width: 550
Flags: W
Fore
526 30 m 1
 493 -10 l 1
 308 178 l 1
 122 -15 l 1
 83 21 l 1
 276 214 l 1
 89 392 l 1
 128 431 l 1
 308 245 l 1
 486 425 l 1
 525 392 l 1
 349 210 l 1
 526 30 l 1
EndSplineSet
EndChar
StartChar: quotesingle
Encoding: 39 39
Width: 262
Flags: W
Fore
195 545 m 0
 195 493 164.333 448.667 103 412 c 1
 70 454 l 1
 116 476 139.333 499.667 140 525 c 0
 140 534.333 129.667 544.333 109 555 c 1
 84.3333 564.333 69.6667 581 65 605 c 1
 65 619 69.8333 631.5 79.5 642.5 c 0
 89.1667 653.5 101 659.333 115 660 c 0
 139.667 660.667 159.667 647 175 619 c 0
 188.333 596.333 195 571.667 195 545 c 0
EndSplineSet
EndChar
StartChar: parenleft
Encoding: 40 40
Width: 394
Flags: W
Fore
335 619 m 1
 271 565.667 222.667 494.667 190 406 c 0
 160.667 327.333 145.667 242 145 150 c 0
 143.667 -52 206.667 -208.333 334 -319 c 1
 297 -365 l 1
 222.333 -302.333 164.667 -225.333 124 -134 c 0
 85.3333 -45.3333 65.6667 49.3333 65 150 c 0
 64.3333 251.333 83.6667 345.667 123 433 c 0
 163 523 221 600 297 664 c 1
 335 619 l 1
EndSplineSet
EndChar
StartChar: parenright
Encoding: 41 41
Width: 382
Flags: W
Fore
315 150 m 0
 315.667 50 298.333 -44 263 -132 c 0
 225 -226 170.333 -303.667 99 -365 c 1
 61 -319 l 1
 123 -268.333 168.667 -197 198 -105 c 0
 222.667 -29 235 56 235 150 c 0
 235 364.667 177 521 61 619 c 1
 99 665 l 1
 203.667 577 271 456.667 301 304 c 0
 309.667 258 314.333 206.667 315 150 c 0
EndSplineSet
EndChar
StartChar: comma
Encoding: 44 44
Width: 262
Flags: W
Fore
195 0 m 0
 195 -52 164.333 -96.6667 103 -134 c 1
 71 -87 l 1
 117 -64.3333 140 -42 140 -20 c 0
 140 -14 137.667 -8.33333 133 -3 c 0
 129.667 0.333333 121.5 5 108.5 11 c 0
 95.5 17 85.5 23.8333 78.5 31.5 c 0
 71.5 39.1667 67 48.6667 65 60 c 1
 65 74 69.8333 86.5 79.5 97.5 c 0
 89.1667 108.5 101 114.333 115 115 c 0
 139.667 115.667 159.667 102 175 74 c 0
 188.333 51.3333 195 26.6667 195 0 c 0
EndSplineSet
EndChar
StartChar: hyphen
Encoding: 45 45
Width: 398
Flags: W
Fore
335 190 m 1
 65 190 l 1
 65 250 l 1
 335 250 l 1
 335 190 l 1
EndSplineSet
EndChar
StartChar: period
Encoding: 46 46
Width: 238
Flags: W
Fore
175 40 m 0
 175.667 24.6667 170.5 11.8333 159.5 1.5 c 0
 148.5 -8.83333 135.333 -14.3333 120 -15 c 0
 104.667 -15.6667 91.8333 -10.5 81.5 0.5 c 0
 71.1667 11.5 65.6667 24.6667 65 40 c 0
 64.3333 55.3333 69.5 68.1667 80.5 78.5 c 0
 91.5 88.8333 104.667 94.3333 120 95 c 0
 135.333 95.6667 148.167 90.5 158.5 79.5 c 0
 168.833 68.5 174.333 55.3333 175 40 c 0
EndSplineSet
EndChar
StartChar: slash
Encoding: 47 47
Width: 550
Flags: W
Fore
490 660 m 1
 131 -190 l 1
 60 -190 l 1
 419 660 l 1
 490 660 l 1
EndSplineSet
EndChar
StartChar: zero
Encoding: 48 48
Width: 448
Flags: W
Fore
386 244 m 0
 386 180 375 124.667 353 78 c 0
 323.667 17.3333 280.667 -13.3333 224 -14 c 0
 166.667 -14.6667 123.667 15.6667 95 77 c 0
 73 124.333 62 180 62 244 c 0
 62 323.333 76.8333 386.833 106.5 434.5 c 0
 136.167 482.167 175.333 506 224 506 c 0
 281.333 506 324.333 474.667 353 412 c 0
 375 364 386 308 386 244 c 0
318 244 m 0
 318.667 352 299.667 419.667 261 447 c 0
 250.333 454.333 238 458 224 458 c 0
 161.333 458 130 386.667 130 244 c 0
 130 105.333 161.333 35.3333 224 34 c 0
 260.667 33.3333 287 61 303 117 c 0
 312.333 152.333 317.333 194.667 318 244 c 0
EndSplineSet
EndChar
StartChar: one
Encoding: 49 49
Width: 448
Flags: W
Fore
366 -10 m 1
 81 -10 l 1
 81 58 l 1
 186 58 l 1
 186 336 l 2
 186 347.333 181.333 357.667 172 367 c 0
 165.333 375 154.333 381 139 385 c 0
 120.333 389 106.5 394.5 97.5 401.5 c 0
 88.5 408.5 83.3333 417.667 82 429 c 0
 82 441.667 89 450.333 103 455 c 0
 106.333 456.333 110.667 457.333 116 458 c 0
 164 458 196.333 465.333 213 480 c 0
 227 492 238.667 498 248 498 c 0
 258.667 498 266 488 270 468 c 1
 270 58 l 1
 366 58 l 1
 366 -10 l 1
EndSplineSet
EndChar
StartChar: two
Encoding: 50 50
Width: 448
Flags: W
Fore
410 144 m 1
 393 -10 l 1
 38 -10 l 1
 38 53 l 1
 191 183 l 2
 235.667 221 268 252.667 288 278 c 0
 310.667 306.667 322 331.333 322 352 c 0
 322.667 406.667 293 434.333 233 435 c 0
 169 435.667 137 402.667 137 336 c 0
 137 303.333 125 286.667 101 286 c 0
 75.6667 285.333 62.6667 307.333 62 352 c 0
 61.3333 384.667 70.5 413 89.5 437 c 0
 108.5 461 134 478 166 488 c 0
 186.667 494 211.333 497.333 240 498 c 0
 286.667 498.667 324.333 485.5 353 458.5 c 0
 381.667 431.5 396.333 394.667 397 348 c 0
 397.667 297.333 315.667 201.667 151 61 c 1
 296 61 l 2
 322.667 61 347.667 91.3333 371 152 c 0
 374.333 159.333 381.333 164 392 166 c 1
 404 166 410 158.667 410 144 c 1
EndSplineSet
EndChar
StartChar: three
Encoding: 51 51
Width: 448
Flags: W
Fore
402 136 m 0
 402 91.3333 383 54.6667 345 26 c 0
 310.333 0 270 -13.3333 224 -14 c 0
 180.667 -14.6667 142.333 -4 109 18 c 0
 70.3333 42 50.6667 74.6667 50 116 c 0
 50 133.333 54.8333 148.5 64.5 161.5 c 0
 74.1667 174.5 87.3333 181.333 104 182 c 0
 116.667 182.667 126.833 178.333 134.5 169 c 0
 142.167 159.667 146 148.667 146 136 c 1
 142 107 l 1
 142 103 140.667 98.3333 138 93 c 1
 134 80 l 1
 134 64.6667 143.667 52.6667 163 44 c 0
 177.667 38 194 34.6667 212 34 c 0
 243.333 33.3333 270.667 42.5 294 61.5 c 0
 317.333 80.5 329.333 105.333 330 136 c 0
 330.667 159.333 319 180.167 295 198.5 c 0
 271 216.833 242 226 208 226 c 2
 150 226 l 1
 150 278 l 1
 208 278 l 2
 235.333 278 259.167 286.333 279.5 303 c 0
 299.833 319.667 310 341.333 310 368 c 0
 310 394 298.667 415.333 276 432 c 0
 255.333 446 231.333 453.333 204 454 c 0
 188 454.667 173 451 159 443 c 0
 142.333 434.333 134 422.667 134 408 c 1
 138 386 l 1
 142 356 l 1
 142 326.667 126.667 311.333 96 310 c 0
 85.3333 309.333 73.6667 315.333 61 328 c 1
 51 340 46 354.667 46 372 c 0
 46 412 63.6667 444.333 99 469 c 0
 130.333 490.333 166.667 501.333 208 502 c 0
 250.667 502.667 289 492 323 470 c 0
 362.333 444.667 382 412 382 372 c 0
 382 318.667 356.667 280 306 256 c 1
 332 244.667 354 229 372 209 c 0
 392 186.333 402 162 402 136 c 0
EndSplineSet
EndChar
StartChar: four
Encoding: 52 52
Width: 448
Flags: W
Fore
414 -10 m 1
 194 -10 l 1
 194 56 l 1
 274 56 l 1
 274 114 l 1
 34 114 l 1
 35 187 l 1
 295 498 l 1
 358 498 l 1
 358 190 l 1
 414 190 l 1
 414 114 l 1
 358 114 l 1
 358 56 l 1
 414 56 l 1
 414 -10 l 1
274 380 m 1
 107 190 l 1
 274 190 l 1
 274 380 l 1
EndSplineSet
EndChar
StartChar: five
Encoding: 53 53
Width: 444
Flags: W
Fore
398 168 m 0
 398 115.333 379 72 341 38 c 0
 303 4 257.333 -13.3333 204 -14 c 0
 162.667 -14.6667 126.667 -3 96 21 c 0
 63.3333 47 46.6667 80 46 120 c 0
 45.3333 158 59.3333 177.333 88 178 c 0
 106.667 178.667 118 167.333 122 144 c 1
 118 119 l 1
 114 104 l 1
 114 82 123.667 64.3333 143 51 c 0
 160.333 40.3333 180.667 34.6667 204 34 c 0
 237.333 33.3333 265.333 45.8333 288 71.5 c 0
 310.667 97.1667 322 126.667 322 160 c 0
 322 194 312 224 292 250 c 0
 272 276 245.333 289.333 212 290 c 0
 192.667 290.667 173.833 284.167 155.5 270.5 c 0
 137.167 256.833 123 238 113 214 c 1
 62 243 l 1
 91 502 l 1
 374 502 l 1
 374 434 l 1
 137 434 l 1
 121 300 l 1
 149 322 187.333 333.333 236 334 c 0
 276.667 334.667 313.833 317.5 347.5 282.5 c 0
 381.167 247.5 398 209.333 398 168 c 0
EndSplineSet
EndChar
StartChar: six
Encoding: 54 54
Width: 448
Flags: W
Fore
390 160 m 0
 390.667 111.333 375.333 70.3333 344 37 c 0
 312.667 3.66667 274 -13.3333 228 -14 c 0
 176 -14.6667 133.667 10 101 60 c 0
 73 104 58.6667 153.333 58 208 c 0
 57.3333 276 73 338.333 105 395 c 0
 142.333 463 192.667 497.333 256 498 c 0
 290 498.667 319.333 489.333 344 470 c 0
 368.667 450.667 381.333 427.333 382 400 c 0
 382.667 369.333 370 352.667 344 350 c 0
 336 350 328 354 320 362 c 1
 314.667 369.333 311.333 379.667 310 393 c 1
 314 409 l 1
 318 424 l 1
 318 430.667 312 437 300 443 c 1
 284.667 447.667 270 450 256 450 c 0
 218 450.667 187 428.333 163 383 c 0
 145.667 350.333 134 311.333 128 266 c 1
 155.333 300 190 317.333 232 318 c 0
 276 318.667 313.167 303.667 343.5 273 c 0
 373.833 242.333 389.333 204.667 390 160 c 0
322 160 m 0
 322 189.333 312.167 215 292.5 237 c 0
 272.833 259 248.667 270 220 270 c 0
 192.667 270 170.333 258.333 153 235 c 0
 138.333 213.667 130.667 188.667 130 160 c 0
 129.333 129.333 136.333 102 151 78 c 0
 168.333 49.3333 191.333 34.6667 220 34 c 0
 250.667 33.3333 276 47 296 75 c 0
 313.333 99.6667 322 128 322 160 c 0
EndSplineSet
EndChar
StartChar: seven
Encoding: 55 55
Width: 444
Flags: W
Fore
394 464 m 0
 394 450.667 384 425 364 387 c 1
 310 311.667 275.667 232.667 261 150 c 1
 259 127.333 256.333 93.3333 253 48 c 0
 251.667 30 248.333 16.6667 243 8 c 0
 237 -4 226.667 -10 212 -10 c 0
 186.667 -10 174 9.33333 174 48 c 0
 173.333 127.333 222.667 254.667 322 430 c 1
 164 430 l 2
 146 430 130.5 423.5 117.5 410.5 c 0
 104.5 397.5 98 382 98 364 c 2
 98 333 l 1
 50 325 l 1
 58 494 l 1
 364 494 l 2
 372 494 379 491 385 485 c 0
 391 479 394 472 394 464 c 0
EndSplineSet
EndChar
StartChar: eight
Encoding: 56 56
Width: 448
Flags: W
Fore
390 128 m 0
 390 86.6667 372.333 52 337 24 c 0
 304.333 -1.33333 266.667 -14 224 -14 c 0
 180 -14 142 -1.66667 110 23 c 0
 75.3333 50.3333 58 85.3333 58 128 c 0
 58 181.333 86.6667 222.667 144 252 c 1
 92.6667 277.333 66.6667 318.667 66 376 c 0
 65.3333 412 80.5 443.167 111.5 469.5 c 0
 142.5 495.833 180 509.333 224 510 c 0
 264 510.667 299.667 498.667 331 474 c 0
 364.333 447.333 381.333 414.667 382 376 c 0
 382.667 322.667 357.333 281.667 306 253 c 1
 329.333 243.667 349.167 227 365.5 203 c 0
 381.833 179 390 154 390 128 c 0
314 368 m 0
 314.667 393.333 306.167 415.167 288.5 433.5 c 0
 270.833 451.833 249.333 461.333 224 462 c 0
 199.333 462.667 178.167 453.333 160.5 434 c 0
 142.833 414.667 134 392.667 134 368 c 0
 134 342 142.5 320.667 159.5 304 c 0
 176.5 287.333 198 278.667 224 278 c 0
 249.333 277.333 270.5 285.833 287.5 303.5 c 0
 304.5 321.167 313.333 342.667 314 368 c 0
322 136 m 0
 322.667 162.667 313.167 185.5 293.5 204.5 c 0
 273.833 223.5 250.667 233.333 224 234 c 0
 196.667 234.667 173.667 225.333 155 206 c 0
 136.333 186.667 126.667 163.333 126 136 c 0
 125.333 107.333 134.333 83.3333 153 64 c 0
 171.667 44.6667 195.333 34.6667 224 34 c 0
 251.333 33.3333 274.333 43.1667 293 63.5 c 0
 311.667 83.8333 321.333 108 322 136 c 0
EndSplineSet
EndChar
StartChar: nine
Encoding: 57 57
Width: 444
Flags: W
Fore
390 240 m 0
 390 175.333 373 118.333 339 69 c 0
 300.333 14.3333 250 -13.3333 188 -14 c 0
 155.333 -14.6667 126.333 -6 101 12 c 0
 73 31.3333 58.6667 56.6667 58 88 c 0
 57.3333 120.667 71.3333 137.333 100 138 c 0
 110.667 138 119.333 130.667 126 116 c 0
 130.667 104 133.333 91.8333 134 79.5 c 0
 134.667 67.1667 140 56.5 150 47.5 c 0
 160 38.5 172.667 34 188 34 c 0
 226.667 33.3333 258 54.6667 282 98 c 0
 302 134 312.333 173.333 313 216 c 1
 283 186 246.667 170.667 204 170 c 0
 160 169.333 123.667 186.333 95 221 c 0
 68.3333 253 54.6667 291.333 54 336 c 0
 53.3333 380 67.3333 418.5 96 451.5 c 0
 124.667 484.5 160.667 501.333 204 502 c 0
 272 502.667 321.667 474.667 353 418 c 0
 377.667 373.333 390 314 390 240 c 0
314 336 m 0
 314.667 365.333 306.667 391.667 290 415 c 0
 271.333 440.333 248 453.333 220 454 c 0
 190 454.667 165.667 442.333 147 417 c 0
 131 394.333 122.667 367.333 122 336 c 0
 121.333 304.667 129.667 278 147 256 c 0
 165.667 231.333 190 218.667 220 218 c 0
 248 217.333 271 230.333 289 257 c 0
 305 280.333 313.333 306.667 314 336 c 0
EndSplineSet
EndChar
StartChar: colon
Encoding: 58 58
Width: 238
Flags: W
Fore
175 400 m 0
 175.667 384.667 170.5 371.833 159.5 361.5 c 0
 148.5 351.167 135.333 345.667 120 345 c 0
 104.667 344.333 91.8333 349.5 81.5 360.5 c 0
 71.1667 371.5 65.6667 384.667 65 400 c 0
 64.3333 415.333 69.5 428.167 80.5 438.5 c 0
 91.5 448.833 104.667 454.333 120 455 c 0
 135.333 455.667 148.167 450.5 158.5 439.5 c 0
 168.833 428.5 174.333 415.333 175 400 c 0
175 40 m 0
 175.667 24.6667 170.5 11.8333 159.5 1.5 c 0
 148.5 -8.83333 135.333 -14.3333 120 -15 c 0
 104.667 -15.6667 91.8333 -10.5 81.5 0.5 c 0
 71.1667 11.5 65.6667 24.6667 65 40 c 0
 64.3333 55.3333 69.5 68.1667 80.5 78.5 c 0
 91.5 88.8333 104.667 94.3333 120 95 c 0
 135.333 95.6667 148.167 90.5 158.5 79.5 c 0
 168.833 68.5 174.333 55.3333 175 40 c 0
EndSplineSet
EndChar
StartChar: semicolon
Encoding: 59 59
Width: 262
Flags: W
Fore
175 400 m 0
 175.667 384.667 170.5 371.833 159.5 361.5 c 0
 148.5 351.167 135.333 345.667 120 345 c 0
 104.667 344.333 91.8333 349.5 81.5 360.5 c 0
 71.1667 371.5 65.6667 384.667 65 400 c 0
 64.3333 415.333 69.5 428.167 80.5 438.5 c 0
 91.5 448.833 104.667 454.333 120 455 c 0
 135.333 455.667 148.167 450.5 158.5 439.5 c 0
 168.833 428.5 174.333 415.333 175 400 c 0
195 0 m 0
 195 -52 164.333 -96.6667 103 -134 c 1
 70 -92 l 1
 116 -69.3333 139.333 -45.3333 140 -20 c 0
 140 -14.6667 137.667 -9 133 -3 c 0
 129.667 0.333333 121.5 5 108.5 11 c 0
 95.5 17 85.5 23.8333 78.5 31.5 c 0
 71.5 39.1667 67 48.6667 65 60 c 1
 65 74 69.8333 86.5 79.5 97.5 c 0
 89.1667 108.5 101 114.333 115 115 c 0
 139.667 115.667 159.667 102 175 74 c 0
 188.333 51.3333 195 26.6667 195 0 c 0
EndSplineSet
EndChar
StartChar: less
Encoding: 60 60
Width: 558
Flags: W
Fore
539 -46 m 1
 91 154 l 1
 91 211 l 1
 538 409 l 1
 536 343 l 1
 184 186 l 1
 536 18 l 1
 539 -46 l 1
EndSplineSet
EndChar
StartChar: greater
Encoding: 62 62
Width: 547
Flags: W
Fore
523 159 m 1
 79 -37 l 1
 77 19 l 1
 436 181 l 1
 77 349 l 1
 79 405 l 1
 523 204 l 1
 523 159 l 1
EndSplineSet
EndChar
StartChar: question
Encoding: 63 63
Width: 462
Flags: W
Fore
395 470 m 0
 395 399.333 370.667 338.667 322 288 c 0
 284 248 265 212 265 180 c 2
 265 140 l 1
 210 140 l 1
 210 180 l 2
 210 232 232.333 285.667 277 341 c 0
 301.667 371.667 314.333 414.667 315 470 c 0
 315 494.667 307.667 516.5 293 535.5 c 0
 278.333 554.5 259 564.333 235 565 c 0
 213 565.667 195 556.667 181 538 c 0
 167.667 522 160.667 502.667 160 480 c 0
 159.333 441.333 146 419.667 120 415 c 1
 107.333 415 97.6667 422.167 91 436.5 c 0
 84.3333 450.833 80.6667 472 80 500 c 0
 79.3333 538.667 95.6667 571.333 129 598 c 0
 159.667 622 195 634.333 235 635 c 0
 277 635.667 314.167 619.5 346.5 586.5 c 0
 378.833 553.5 395 514.667 395 470 c 0
295 35 m 0
 295.667 22.3333 290.667 11 280 1 c 0
 269.333 -9 257.667 -14.3333 245 -15 c 0
 232.333 -15.6667 221 -10.6667 211 0 c 0
 201 10.6667 195.667 22.3333 195 35 c 0
 194.333 47.6667 199.333 59 210 69 c 0
 220.667 79 232.333 84.3333 245 85 c 0
 257.667 85.6667 269 80.6667 279 70 c 0
 289 59.3333 294.333 47.6667 295 35 c 0
EndSplineSet
EndChar
StartChar: at
Encoding: 64 64
Width: 691
Flags: W
Fore
669 283 m 2
 669 233 651 185.333 615 140 c 0
 577 92 533.333 67.6667 484 67 c 0
 458.667 66.3333 436.667 77.6667 418 101 c 1
 416 99.6667 412.667 97.5 408 94.5 c 0
 403.333 91.5 399.5 89.1667 396.5 87.5 c 0
 393.5 85.8333 389.5 83.6667 384.5 81 c 0
 379.5 78.3333 375.667 76.3333 373 75 c 0
 356.333 70.3333 342.333 68 331 68 c 0
 296.333 67.3333 268.667 78.6667 248 102 c 0
 227.333 125.333 216.667 154.667 216 190 c 0
 215.333 246 233.333 298 270 346 c 0
 309.333 398 357 424.333 413 425 c 0
 422.333 425 429 424.667 433 424 c 0
 437 423.333 443 421 451 417 c 0
 462.333 413 476.667 404 494 390 c 1
 501 410 l 1
 571 410 l 1
 481 137 l 1
 481 129 485.667 124.667 495 124 c 0
 526.333 124 553 145.667 575 189 c 0
 593.667 225 603.333 260.333 604 295 c 0
 604.667 351 585 396.667 545 432 c 0
 507 464.667 459.333 481.333 402 482 c 0
 336 482.667 281.667 459.667 239 413 c 0
 196.333 366.333 174.667 309.667 174 243 c 0
 173.333 178.333 195.333 123.833 240 79.5 c 0
 284.667 35.1667 339.333 12.6667 404 12 c 0
 482.667 11.3333 547.667 45.3333 599 114 c 1
 663 114 l 1
 592.333 9.33333 506 -43.3333 404 -44 c 0
 320.667 -44.6667 250.833 -16.8333 194.5 39.5 c 0
 138.167 95.8333 109.667 165.667 109 249 c 0
 108.333 329.667 136.667 398 194 454 c 0
 251.333 510 320.333 538.333 401 539 c 0
 472.333 539.667 534 518.667 586 476 c 0
 641.333 430.667 669 373 669 303 c 2
 669 283 l 2
455 317 m 0
 455 328.333 451 338.5 443 347.5 c 0
 435 356.5 425.333 361 414 361 c 0
 379.333 361.667 350 341.667 326 301 c 0
 305.333 266.333 294.667 230.333 294 193 c 0
 294 177.667 298.167 164.167 306.5 152.5 c 0
 314.833 140.833 326.667 135 342 135 c 0
 370 135 396.667 157.333 422 202 c 0
 444 240.667 455 279 455 317 c 0
EndSplineSet
EndChar
StartChar: grave
Encoding: 96 96
Width: 266
Flags: W
Fore
200 460 m 1
 200 446 194.5 434.167 183.5 424.5 c 0
 172.5 414.833 159.667 410 145 410 c 0
 110.333 410 85.6667 428.333 71 465 c 0
 67 475 65 486.667 65 500 c 0
 65 552 93.3333 606.667 150 664 c 1
 186 629 l 1
 146 599 125.667 569.333 125 540 c 0
 125 537.333 127.333 533.667 132 529 c 1
 157 518 l 2
 169 514 179 506.333 187 495 c 0
 193 486.333 197.333 474.667 200 460 c 1
EndSplineSet
EndChar
StartChar: macron
Encoding: 175 175
Width: 516
Flags: W
Fore
518 190 m 1
 -2 190 l 1
 -2 250 l 1
 518 250 l 1
 518 190 l 1
EndSplineSet
EndChar
StartChar: otilde
Encoding: 245 245
Width: 1000
Flags: W
Fore
1010 190 m 1
 -10 190 l 1
 -10 250 l 1
 1010 250 l 1
 1010 190 l 1
EndSplineSet
EndChar
StartChar: odieresis
Encoding: 246 246
Width: 516
Flags: W
Fore
518 190 m 1
 -2 190 l 1
 -2 250 l 1
 518 250 l 1
 518 190 l 1
EndSplineSet
EndChar
StartChar: uni0D02
Encoding: 3330 3330
Width: 311
Flags: HW
Fore
294 125 m 0
 294.667 85.6667 281.333 52.6667 254 26 c 0
 226.667 -0.666667 193.333 -14.3333 154 -15 c 0
 115.333 -15.6667 83.1667 -2.33333 57.5 25 c 0
 31.8333 52.3333 19 85.6667 19 125 c 0
 19 163 32 195 58 221 c 0
 84 247 116 260 154 260 c 0
 192 260 224.667 247 252 221 c 0
 279.333 195 293.333 163 294 125 c 0
214 125 m 0
 214 145.667 207.333 164.167 194 180.5 c 0
 180.667 196.833 164 205 144 205 c 0
 122.667 205 105 197 91 181 c 0
 77 165 69.6667 146.333 69 125 c 0
 68.3333 102.333 75 82.6667 89 66 c 0
 103 49.3333 121.333 40.6667 144 40 c 0
 164.667 39.3333 182 48.3333 196 67 c 0
 208 84.3333 214 103.667 214 125 c 0
EndSplineSet
EndChar
StartChar: uni0D03
Encoding: 3331 3331
Width: 284
Flags: HW
Fore
247 350 m 0
 247.667 321.333 237.5 296.833 216.5 276.5 c 0
 195.5 256.167 170.667 245.667 142 245 c 0
 113.333 244.333 88.8333 254.5 68.5 275.5 c 0
 48.1667 296.5 37.6667 321.333 37 350 c 0
 36.3333 377.333 46.5 401.5 67.5 422.5 c 0
 88.5 443.5 113.333 454.333 142 455 c 0
 169.333 455.667 193.5 445.5 214.5 424.5 c 0
 235.5 403.5 246.333 378.667 247 350 c 0
247 90 m 0
 247.667 60.6667 237.333 36 216 16 c 0
 194.667 -4 169.333 -14.3333 140 -15 c 0
 110.667 -15.6667 86.1667 -5.66667 66.5 15 c 0
 46.8333 35.6667 37 60.6667 37 90 c 0
 37 119.333 46.8333 144 66.5 164 c 0
 86.1667 184 110.667 194.333 140 195 c 0
 169.333 195.667 194.333 185.667 215 165 c 0
 235.667 144.333 246.333 119.333 247 90 c 0
171 350 m 0
 171.667 362.667 167.5 374.167 158.5 384.5 c 0
 149.5 394.833 139 400 127 400 c 0
 117.667 400 108 395 98 385 c 1
 91.3333 376.333 87.6667 364.667 87 350 c 0
 85.6667 318 99 301.333 127 300 c 0
 139 299.333 149.167 304.5 157.5 315.5 c 0
 165.833 326.5 170.333 338 171 350 c 0
171 90 m 0
 171.667 102.667 167.5 114.167 158.5 124.5 c 0
 149.5 134.833 139 140 127 140 c 0
 117.667 140 108 135 98 125 c 1
 91.3333 116.333 87.6667 104.667 87 90 c 0
 85.6667 58 99 41.3333 127 40 c 0
 139 39.3333 149.167 44.5 157.5 55.5 c 0
 165.833 66.5 170.333 78 171 90 c 0
EndSplineSet
EndChar
StartChar: uni0D05
Encoding: 3333 3333
Width: 1110
Flags: HW
Fore
1078 190 m 0
 1078.67 133.333 1064 85 1034 45 c 0
 1004 5 968.667 -15 928 -15 c 0
 884.667 -15 851.5 -1.5 828.5 25.5 c 0
 805.5 52.5 793.667 92.3333 793 145 c 0
 792.333 191.667 802 235.333 822 276 c 0
 844 322 874.667 353 914 369 c 1
 890 389 864.667 399.333 838 400 c 0
 803.333 400.667 773 389.5 747 366.5 c 0
 721 343.5 708 314.667 708 280 c 2
 708 -10 l 1
 638 -10 l 1
 638 280 l 2
 638 309.333 624.5 336.667 597.5 362 c 0
 570.5 387.333 542.333 400 513 400 c 0
 488.333 400 467 398 449 394 c 1
 491 373.333 512.333 342 513 300 c 0
 513.667 264 495.333 237 458 219 c 1
 504 195 527.333 162 528 120 c 0
 528.667 83.3333 513.667 51.6667 483 25 c 0
 452.333 -1.66667 415.667 -15 373 -15 c 0
 323.667 -15 283.667 8.33333 253 55 c 0
 227 95.6667 213.667 142.333 213 195 c 0
 212.333 274.333 250.333 340.667 327 394 c 1
 313 398 293.333 400 268 400 c 0
 214.667 400 170.5 380.167 135.5 340.5 c 0
 100.5 300.833 83 254 83 200 c 0
 83 114 110 53 164 17 c 1
 130 -18 l 1
 66 26.6667 33.6667 99.3333 33 200 c 0
 32.3333 270.667 56.1667 330.833 104.5 380.5 c 0
 152.833 430.167 212.333 455 283 455 c 0
 319 455 354 447 388 431 c 1
 434 447 477.333 455 518 455 c 0
 582.667 455 634.333 423.667 673 361 c 1
 711.667 423 768.333 454.333 843 455 c 0
 911 455.667 967.667 428 1013 372 c 0
 1055.67 320.667 1077.33 260 1078 190 c 0
998 190 m 0
 998.667 215.333 994.167 240.333 984.5 265 c 0
 974.833 289.667 961.667 311 945 329 c 1
 912.333 322.333 886.333 299.333 867 260 c 0
 851.667 228 843.667 193 843 155 c 0
 842.333 78.3333 867.333 40 918 40 c 0
 945.333 40 966.333 59.3333 981 98 c 0
 991.667 126 997.333 156.667 998 190 c 0
433 295 m 0
 433.667 309 428.5 322 417.5 334 c 0
 406.5 346 391 356 371 364 c 1
 324.333 340 290.667 300.333 270 245 c 1
 378 245 l 2
 413.333 245 431.667 261.667 433 295 c 0
448 130 m 0
 448.667 147.333 443.167 162.5 431.5 175.5 c 0
 419.833 188.5 405.333 195 388 195 c 2
 265 195 l 1
 263 180 l 1
 263 144.667 271.667 113.667 289 87 c 0
 308.333 56.3333 334.667 40.6667 368 40 c 0
 392 39.3333 411.167 48 425.5 66 c 0
 439.833 84 447.333 105.333 448 130 c 0
EndSplineSet
EndChar
StartChar: uni0D06
Encoding: 3334 3334
Width: 1245
Flags: HW
Fore
1220 120 m 0
 1220.67 40.6667 1194 -27.3333 1140 -84 c 0
 1086 -140.667 1019.33 -169.333 940 -170 c 0
 891.333 -170.667 847 -160.667 807 -140 c 1
 832 -91 l 1
 858 -107 894 -115 940 -115 c 0
 999.333 -115 1048 -90 1086 -40 c 0
 1121.33 6 1139.33 59.3333 1140 120 c 0
 1140.67 158 1133.5 192.333 1118.5 223 c 0
 1103.5 253.667 1083 274.333 1057 285 c 1
 1063 255 l 1
 1064.33 243 1065 231.333 1065 220 c 0
 1065.67 157.333 1049.67 102.5 1017 55.5 c 0
 984.333 8.5 945.333 -15 900 -15 c 0
 862.667 -15 832.333 0.333333 809 31 c 0
 787 59 775.667 92 775 130 c 0
 774.333 181.333 790.5 225.667 823.5 263 c 0
 856.5 300.333 898.667 323.667 950 333 c 1
 924.667 377 893 399.333 855 400 c 0
 817.667 400.667 782.5 389.5 749.5 366.5 c 0
 716.5 343.5 700 318 700 290 c 2
 700 -10 l 1
 630 -10 l 1
 630 280 l 2
 630 309.333 615 337 585 363 c 0
 555 389 523.333 401.333 490 400 c 2
 441 398 l 1
 487 371.333 510 340.333 510 305 c 0
 510 274.333 488.333 247.667 445 225 c 1
 466.333 215 484 201 498 183 c 0
 512.667 163 520 142 520 120 c 0
 520 84 505.667 52.6667 477 26 c 0
 448.333 -0.666667 412.667 -14.3333 370 -15 c 0
 316 -15.6667 272.333 9 239 59 c 0
 209.667 103 195 153.333 195 210 c 0
 195 284.667 235.333 346.667 316 396 c 1
 270 400 l 2
 224 404 180.333 384.667 139 342 c 0
 103 304.667 85 257.333 85 200 c 0
 85 120.667 110.333 59.3333 161 16 c 1
 120 -19 l 1
 63.3333 37.6667 35 110.667 35 200 c 0
 35 268 57.3333 327.5 102 378.5 c 0
 146.667 429.5 202.667 455 270 455 c 0
 316.667 455 353.333 447.333 380 432 c 1
 412.667 447.333 449.333 455 490 455 c 0
 561.333 455 619.667 427.333 665 372 c 1
 707 426 772 453.667 860 455 c 0
 898.667 455.667 934.167 445.5 966.5 424.5 c 0
 998.833 403.5 1022.33 375 1037 339 c 1
 1089.67 333.667 1133.67 309 1169 265 c 0
 1202.33 223 1219.33 174.667 1220 120 c 0
985 230 m 0
 985 257.333 981.333 277.333 974 290 c 1
 930.667 290 895.167 274.333 867.5 243 c 0
 839.833 211.667 825.667 174 825 130 c 0
 825 106.667 830.667 86.6667 842 70 c 0
 855.333 50.6667 873 40.6667 895 40 c 0
 925 39.3333 948.667 64.6667 966 116 c 0
 978.667 154 985 192 985 230 c 0
430 310 m 0
 430.667 331.333 412.333 351.333 375 370 c 1
 329.667 362 289 323.667 253 255 c 1
 350 255 l 2
 369.333 255 386.667 259.333 402 268 c 0
 420 278 429.333 292 430 310 c 0
440 140 m 0
 440.667 160 430.333 176.333 409 189 c 0
 391 199.667 371.333 205 350 205 c 2
 247 205 l 1
 245 190 l 1
 245 154 255 121 275 91 c 0
 297 57 325.333 40 360 40 c 0
 384.667 40 404.667 50.6667 420 72 c 0
 432.667 91.3333 439.333 114 440 140 c 0
EndSplineSet
EndChar
StartChar: uni0D07
Encoding: 3335 3335
Width: 809
Flags: HW
Fore
777 -210 m 1
 142 -210 l 2
 108.667 -210 80 -200.333 56 -181 c 0
 30 -159.667 17 -132.667 17 -100 c 0
 17 -68.6667 29 -42.5 53 -21.5 c 0
 77 -0.5 105 10 137 10 c 2
 547 10 l 2
 593 10 630.333 32.6667 659 78 c 0
 684.333 117.333 697 161.333 697 210 c 0
 697 255.333 687 295.667 667 331 c 0
 642.333 373.667 609 395 567 395 c 0
 532.333 395 502 384.333 476 363 c 0
 450 341.667 437 314 437 280 c 2
 437 40 l 1
 367 40 l 1
 367 280 l 2
 367 312.667 353.333 340.333 326 363 c 0
 300.667 383.667 271 394.333 237 395 c 0
 201.667 395.667 170.167 385.5 142.5 364.5 c 0
 114.833 343.5 95.6667 316 85 282 c 1
 107.667 306.667 136.667 319.333 172 320 c 0
 209.333 320.667 241.167 308.333 267.5 283 c 0
 293.833 257.667 307 226.667 307 190 c 0
 307 151.333 292.667 119.167 264 93.5 c 0
 235.333 67.8333 201.333 55 162 55 c 0
 120.667 55 87 74.6667 61 114 c 0
 39 148 27.6667 186.667 27 230 c 0
 26.3333 290 46.3333 342.5 87 387.5 c 0
 127.667 432.5 177.667 455 237 455 c 0
 310.333 455 365.333 427 402 371 c 1
 416.667 397.667 440.333 418.667 473 434 c 0
 502.333 447.333 533.667 454.333 567 455 c 0
 623 455.667 672.333 431.667 715 383 c 0
 755.667 336.333 776.333 278.667 777 210 c 0
 777.667 144.667 757 87.3333 715 38 c 0
 671 -14 616.667 -40 552 -40 c 2
 137 -40 l 2
 119.667 -40 105 -44 93 -52 c 0
 79 -60.6667 72 -73.3333 72 -90 c 0
 72 -104 78.3333 -115 91 -123 c 0
 103.667 -131 117.333 -135 132 -135 c 2
 777 -135 l 1
 777 -210 l 1
227 190 m 0
 227.667 209.333 221.667 227.333 209 244 c 0
 196.333 260.667 180.667 269.333 162 270 c 0
 142.667 270.667 127.167 262.5 115.5 245.5 c 0
 103.833 228.5 97.6667 210 97 190 c 0
 96.3333 169.333 101.667 150.667 113 134 c 0
 125.667 115.333 142 105.667 162 105 c 0
 182 104.333 198 113.667 210 133 c 0
 220.667 149.667 226.333 168.667 227 190 c 0
EndSplineSet
EndChar
StartChar: uni0D08
Encoding: 3336 3336
Width: 809
Flags: HW
Fore
777 -210 m 1
 142 -210 l 2
 108.667 -210 80 -200.333 56 -181 c 0
 30 -159.667 17 -132.667 17 -100 c 0
 17 -68.6667 29 -42.5 53 -21.5 c 0
 77 -0.5 105 10 137 10 c 2
 547 10 l 2
 593 10 630.333 32.6667 659 78 c 0
 684.333 117.333 697 161.333 697 210 c 0
 697 255.333 687 295.667 667 331 c 0
 642.333 373.667 609 395 567 395 c 0
 532.333 395 502 384.333 476 363 c 0
 450 341.667 437 314 437 280 c 2
 437 40 l 1
 367 40 l 1
 367 280 l 2
 367 312.667 353.333 340.333 326 363 c 0
 300.667 383.667 271 394.333 237 395 c 0
 201.667 395.667 170.167 385.5 142.5 364.5 c 0
 114.833 343.5 95.6667 316 85 282 c 1
 107.667 306.667 136.667 319.333 172 320 c 0
 209.333 320.667 241.167 308.333 267.5 283 c 0
 293.833 257.667 307 226.667 307 190 c 0
 307 151.333 292.667 119.167 264 93.5 c 0
 235.333 67.8333 201.333 55 162 55 c 0
 120.667 55 87 74.6667 61 114 c 0
 39 148 27.6667 186.667 27 230 c 0
 26.3333 290 46.3333 342.5 87 387.5 c 0
 127.667 432.5 177.667 455 237 455 c 0
 310.333 455 365.333 427 402 371 c 1
 416.667 397.667 440.333 418.667 473 434 c 0
 502.333 447.333 533.667 454.333 567 455 c 0
 623 455.667 672.333 431.667 715 383 c 0
 755.667 336.333 776.333 278.667 777 210 c 0
 777.667 144.667 757 87.3333 715 38 c 0
 671 -14 616.667 -40 552 -40 c 2
 137 -40 l 2
 119.667 -40 105 -44 93 -52 c 0
 79 -60.6667 72 -73.3333 72 -90 c 0
 72 -104 78.3333 -115 91 -123 c 0
 103.667 -131 117.333 -135 132 -135 c 2
 777 -135 l 1
 777 -210 l 1
227 190 m 0
 227.667 209.333 221.667 227.333 209 244 c 0
 196.333 260.667 180.667 269.333 162 270 c 0
 142.667 270.667 127.167 262.5 115.5 245.5 c 0
 103.833 228.5 97.6667 210 97 190 c 0
 96.3333 169.333 101.667 150.667 113 134 c 0
 125.667 115.333 142 105.667 162 105 c 0
 182 104.333 198 113.667 210 133 c 0
 220.667 149.667 226.333 168.667 227 190 c 0
EndSplineSet
EndChar
StartChar: uni0D09
Encoding: 3337 3337
Width: 552
Flags: HW
Fore
524 -205 m 1
 114 -205 l 2
 82.6667 -205 56.6667 -194.5 36 -173.5 c 0
 15.3333 -152.5 4.66667 -126.333 4 -95 c 0
 3.33333 -66.3333 13.8333 -41.6667 35.5 -21 c 0
 57.1667 -0.333333 83.3333 10 114 10 c 2
 294 10 l 2
 338.667 10 374.667 31.3333 402 74 c 0
 426 110.667 438.333 152.667 439 200 c 0
 439.667 251.333 421.667 296.5 385 335.5 c 0
 348.333 374.5 304.667 394.333 254 395 c 0
 217.333 395.667 183.833 386.333 153.5 367 c 0
 123.167 347.667 100.333 321.333 85 288 c 1
 111 312 139 324.333 169 325 c 0
 207 325.667 239 312.833 265 286.5 c 0
 291 260.167 304 228 304 190 c 0
 304 151.333 289.667 119.167 261 93.5 c 0
 232.333 67.8333 198.333 55 159 55 c 0
 119 55 86 73 60 109 c 0
 36.6667 141.667 24.6667 178.667 24 220 c 0
 23.3333 284.667 45.3333 340 90 386 c 0
 134.667 432 189.333 455 254 455 c 0
 326 455 388.833 430.333 442.5 381 c 0
 496.167 331.667 523.333 271.333 524 200 c 0
 524.667 135.333 504.333 79.6667 463 33 c 0
 420.333 -15.6667 367.333 -40 304 -40 c 2
 109 -40 l 2
 98.3333 -40 87.6667 -45.3333 77 -56 c 1
 69 -66 64.6667 -79 64 -95 c 0
 63.3333 -107 68.3333 -116.667 79 -124 c 0
 89.6667 -131.333 101.333 -135 114 -135 c 2
 524 -135 l 1
 524 -205 l 1
224 190 m 0
 224.667 210.667 219 229.833 207 247.5 c 0
 195 265.167 179 274.333 159 275 c 0
 137 275.667 119.167 267.167 105.5 249.5 c 0
 91.8333 231.833 84.6667 212 84 190 c 0
 83.3333 167.333 90 147.667 104 131 c 0
 118 114.333 136.333 105.667 159 105 c 0
 179 104.333 195 113.667 207 133 c 0
 217.667 149.667 223.333 168.667 224 190 c 0
EndSplineSet
EndChar
StartChar: uni0D0A
Encoding: 3338 3338
Width: 552
Flags: HW
Fore
524 -205 m 1
 114 -205 l 2
 82.6667 -205 56.6667 -194.5 36 -173.5 c 0
 15.3333 -152.5 4.66667 -126.333 4 -95 c 0
 3.33333 -66.3333 13.8333 -41.6667 35.5 -21 c 0
 57.1667 -0.333333 83.3333 10 114 10 c 2
 294 10 l 2
 338.667 10 374.667 31.3333 402 74 c 0
 426 110.667 438.333 152.667 439 200 c 0
 439.667 251.333 421.667 296.5 385 335.5 c 0
 348.333 374.5 304.667 394.333 254 395 c 0
 217.333 395.667 183.833 386.333 153.5 367 c 0
 123.167 347.667 100.333 321.333 85 288 c 1
 111 312 139 324.333 169 325 c 0
 207 325.667 239 312.833 265 286.5 c 0
 291 260.167 304 228 304 190 c 0
 304 151.333 289.667 119.167 261 93.5 c 0
 232.333 67.8333 198.333 55 159 55 c 0
 119 55 86 73 60 109 c 0
 36.6667 141.667 24.6667 178.667 24 220 c 0
 23.3333 284.667 45.3333 340 90 386 c 0
 134.667 432 189.333 455 254 455 c 0
 326 455 388.833 430.333 442.5 381 c 0
 496.167 331.667 523.333 271.333 524 200 c 0
 524.667 135.333 504.333 79.6667 463 33 c 0
 420.333 -15.6667 367.333 -40 304 -40 c 2
 109 -40 l 2
 98.3333 -40 87.6667 -45.3333 77 -56 c 1
 69 -66 64.6667 -79 64 -95 c 0
 63.3333 -107 68.3333 -116.667 79 -124 c 0
 89.6667 -131.333 101.333 -135 114 -135 c 2
 524 -135 l 1
 524 -205 l 1
224 190 m 0
 224.667 210.667 219 229.833 207 247.5 c 0
 195 265.167 179 274.333 159 275 c 0
 137 275.667 119.167 267.167 105.5 249.5 c 0
 91.8333 231.833 84.6667 212 84 190 c 0
 83.3333 167.333 90 147.667 104 131 c 0
 118 114.333 136.333 105.667 159 105 c 0
 179 104.333 195 113.667 207 133 c 0
 217.667 149.667 223.333 168.667 224 190 c 0
EndSplineSet
EndChar
StartChar: uni0D0B
Encoding: 3339 3339
Width: 795
Flags: HW
Fore
772 -130 m 0
 772 -202 726.667 -259 636 -301 c 0
 565.333 -333 489 -349.333 407 -350 c 0
 325 -350.667 247.667 -334.333 175 -301 c 0
 83 -259.667 37 -202.667 37 -130 c 0
 37 -98 48.5 -68.1667 71.5 -40.5 c 0
 94.5 -12.8333 127.667 9.66667 171 27 c 1
 127.667 51 92.8333 83.6667 66.5 125 c 0
 40.1667 166.333 27 211.333 27 260 c 0
 27 312 44.1667 357.5 78.5 396.5 c 0
 112.833 435.5 155.667 455 207 455 c 0
 247.667 455 282.667 441.667 312 415 c 0
 341.333 388.333 356.333 355 357 315 c 0
 357.667 276.333 341 244.667 307 220 c 0
 277 197.333 242 185.667 202 185 c 0
 178 184.333 154.667 189 132 199 c 0
 105.333 209.667 87.6667 224.667 79 244 c 1
 78 263 l 1
 77 260 l 1
 77 204 94.1667 156 128.5 116 c 0
 162.833 76 207.667 50.6667 263 40 c 1
 545 40 l 1
 592.333 48.6667 632.5 73.6667 665.5 115 c 0
 698.5 156.333 715.667 201.333 717 250 c 1
 712 279 l 1
 732 278 l 1
 727.333 249.333 710.667 226.333 682 209 c 0
 656 193 627.667 185 597 185 c 0
 557 185 521.667 196.333 491 219 c 0
 458.333 243.667 442 275.667 442 315 c 0
 442 355 457 388.667 487 416 c 0
 516.333 441.333 551.333 454.333 592 455 c 0
 641.333 455.667 682.667 435.833 716 395.5 c 0
 749.333 355.167 766.333 310 767 260 c 0
 767.667 211.333 755.667 166.5 731 125.5 c 0
 706.333 84.5 672.667 51.3333 630 26 c 1
 666.667 10.6667 698 -9.33333 724 -34 c 0
 756 -64.6667 772 -96.6667 772 -130 c 0
692 315 m 0
 692.667 335.667 684.167 354.167 666.5 370.5 c 0
 648.833 386.833 629 395 607 395 c 0
 583 395 562.833 387.667 546.5 373 c 0
 530.167 358.333 522 339 522 315 c 0
 522 291.667 530.333 272.667 547 258 c 0
 563.667 243.333 583.667 235.667 607 235 c 0
 630.333 234.333 650.167 241.667 666.5 257 c 0
 682.833 272.333 691.333 291.667 692 315 c 0
277 320 m 0
 277.667 342 269.167 359.833 251.5 373.5 c 0
 233.833 387.167 214 394.333 192 395 c 0
 168.667 395.667 148.667 388.333 132 373 c 0
 115.333 357.667 107 338.333 107 315 c 0
 107 291.667 115.333 272.667 132 258 c 0
 148.667 243.333 168.667 235.667 192 235 c 0
 215.333 234.333 235.167 242.5 251.5 259.5 c 0
 267.833 276.5 276.333 296.667 277 320 c 0
722 -130 m 0
 722.667 -91.3333 700.333 -60.6667 655 -38 c 0
 618.333 -19.3333 579 -10 537 -10 c 2
 267 -10 l 2
 223 -10 184.333 -19 151 -37 c 0
 109 -59 87.6667 -90 87 -130 c 0
 86.3333 -182 129.333 -222 216 -250 c 0
 277.333 -269.333 341 -279.333 407 -280 c 0
 473 -280.667 536 -271 596 -251 c 0
 679.333 -223 721.333 -182.667 722 -130 c 0
EndSplineSet
EndChar
StartChar: uni0D0C
Encoding: 3340 3340
Width: 835
Flags: HW
Fore
244 120 m 0
 244.667 153.333 238 177.667 224 193 c 0
 213.333 204.333 198.667 210 180 210 c 2
 106 210 l 1
 106 168.667 111.333 133 122 103 c 0
 137.333 59.6667 161.667 38 195 38 c 0
 209 38 221 46 231 62 c 1
 239 79.3333 243.333 98.6667 244 120 c 0
729 207 m 1
 655 207 l 2
 613.667 207 592.333 177 591 117 c 0
 590.333 96.3333 594.833 77.5 604.5 60.5 c 0
 614.167 43.5 626 35 640 35 c 0
 672.667 35 697 57 713 101 c 0
 723.667 131.667 729 167 729 207 c 1
608 467 m 0
 664 467.667 711.667 440.333 751 385 c 0
 785.667 336.333 803 284.667 803 230 c 2
 803 207 l 2
 803 152.333 792.333 104.667 771 64 c 0
 743.667 13.3333 705 -12 655 -12 c 0
 617.667 -12 589.667 2 571 30 c 0
 554.333 54 546 85.6667 546 125 c 0
 546 160.333 555.333 190 574 214 c 0
 592.667 238 619.667 250 655 250 c 2
 729 250 l 1
 729 293.333 714.333 332.333 685 367 c 0
 655.667 401.667 619.667 419.333 577 420 c 0
 544.333 420.667 515.667 408.5 491 383.5 c 0
 466.333 358.5 454 329.667 454 297 c 2
 454 -8 l 1
 382 -8 l 1
 382 309 l 2
 382 327.667 379 342.667 373 354 c 0
 370.333 358.667 361 369.333 345 386 c 0
 321.667 410 292.667 422.333 258 423 c 0
 214.667 423.667 178.333 406 149 370 c 0
 121 336.667 106.667 297.667 106 253 c 1
 180 253 l 2
 215.333 253 242.667 240.667 262 216 c 0
 279.333 194 288.333 164.667 289 128 c 0
 289.667 90 281.333 58.6667 264 34 c 0
 244 5.33333 216 -9 180 -9 c 0
 129.333 -9 90.6667 16 64 66 c 0
 42.6667 106 32 154 32 210 c 2
 32 233 l 2
 32 290.333 49.6667 343 85 391 c 0
 124.333 443 171.667 469.333 227 470 c 0
 273 470.667 309 464 335 450 c 0
 379 426.667 407.667 403.667 421 381 c 1
 429 393.667 441 406.667 457 420 c 0
 494.333 450.667 544.667 466.333 608 467 c 0
EndSplineSet
EndChar
StartChar: uni0D0E
Encoding: 3342 3342
Width: 1082
Flags: HW
Fore
1050 100 m 0
 1050.67 21.3333 1036.33 -48 1007 -108 c 0
 974.333 -176.667 925.333 -225.667 860 -255 c 1
 860 -195 l 1
 932.667 -143 969.333 -44.6667 970 100 c 0
 970.667 166.667 956 228 926 284 c 0
 890 351.333 841.333 385 780 385 c 0
 714 385 661.667 348 623 274 c 0
 591 213.333 575 147 575 75 c 2
 575 40 l 1
 750 40 l 1
 750 360 l 1
 820 360 l 1
 820 -150 l 2
 820 -181.333 811 -209 793 -233 c 0
 775 -257 750.667 -269.333 720 -270 c 0
 664.667 -270.667 617.667 -243 579 -187 c 0
 544.333 -136.333 527 -82.3333 527 -25 c 2
 527 -10 l 1
 230 -10 l 1
 230 38 l 1
 256 42 276 55.3333 290 78 c 0
 302.667 98 309.333 122 310 150 c 0
 310.667 182 298.833 209 274.5 231 c 0
 250.167 253 222 264.333 190 265 c 0
 158 265.667 131 253.833 109 229.5 c 0
 87 205.167 75.6667 177 75 145 c 0
 74.3333 91 97 48.3333 143 17 c 1
 106 -19 l 1
 52 26.3333 25 81 25 145 c 0
 25 196.333 42.1667 240.667 76.5 278 c 0
 110.833 315.333 153.667 334.333 205 335 c 0
 256.333 335.667 299.833 317.833 335.5 281.5 c 0
 371.167 245.167 389.333 201.333 390 150 c 0
 390.667 111.333 375.667 74.6667 345 40 c 1
 525 40 l 1
 525 80 l 2
 525 168.667 546.667 250 590 324 c 0
 640.667 411.333 707.333 455 790 455 c 0
 872 455 937.667 414.667 987 334 c 0
 1028.33 265.333 1049.33 187.333 1050 100 c 0
750 -120 m 2
 750 -10 l 1
 576 -10 l 1
 577 -19 l 1
 577 -61 586 -98.6667 604 -132 c 0
 626.667 -173.333 657 -194.333 695 -195 c 0
 712.333 -195.667 726 -187 736 -169 c 0
 745.333 -154.333 750 -138 750 -120 c 2
EndSplineSet
EndChar
StartChar: uni0D0F
Encoding: 3343 3343
Width: 1084
Flags: HW
Fore
1064 -110 m 0
 1064.67 -151.333 1048.17 -187.5 1014.5 -218.5 c 0
 980.833 -249.5 940.667 -265 894 -265 c 2
 849 -265 l 1
 849 -210 l 1
 884 -210 l 2
 912.667 -210 936.333 -200.5 955 -181.5 c 0
 973.667 -162.5 983.333 -138.667 984 -110 c 0
 984.667 -64.6667 963 -33.6667 919 -17 c 0
 906.333 -12.3333 893 -10 879 -10 c 2
 839 -10 l 1
 839 -150 l 2
 839 -181.333 828.5 -207.333 807.5 -228 c 0
 786.5 -248.667 760.333 -259.333 729 -260 c 0
 667.667 -260.667 620.333 -235 587 -183 c 0
 558.333 -139 544 -84.6667 544 -20 c 2
 544 -10 l 1
 249 -10 l 1
 249 38 l 1
 274.333 44 294 58 308 80 c 0
 321.333 100 328.333 123.333 329 150 c 0
 329.667 182.667 317.333 209.833 292 231.5 c 0
 266.667 253.167 237.333 264.333 204 265 c 0
 168.667 265.667 138.333 254.5 113 231.5 c 0
 87.6667 208.5 74.6667 179.667 74 145 c 0
 73.3333 95 99 52 151 16 c 1
 109 -18 l 1
 52.3333 26.6667 24 81 24 145 c 0
 24 197.667 42.5 242.333 79.5 279 c 0
 116.5 315.667 161.333 334.333 214 335 c 0
 266 335.667 311.5 318.667 350.5 284 c 0
 389.5 249.333 409 206.333 409 155 c 0
 409 113.667 394 75.3333 364 40 c 1
 544 40 l 1
 544 60 l 2
 544 168.667 562.667 257 600 325 c 0
 646.667 411 719.667 454.333 819 455 c 0
 886.333 455.667 942.667 429.667 988 377 c 0
 1032 327 1054 268 1054 200 c 0
 1054 119.333 1023.67 60.3333 963 23 c 1
 992.333 13 1016.33 -4 1035 -28 c 0
 1053.67 -52 1063.33 -79.3333 1064 -110 c 0
974 210 m 0
 974.667 258.667 959.333 300.667 928 336 c 0
 896.667 371.333 858.667 389.333 814 390 c 0
 734.667 390.667 676 353.333 638 278 c 0
 608.667 220 594 147.333 594 60 c 2
 594 40 l 1
 769 40 l 1
 769 350 l 1
 839 350 l 1
 839 40 l 1
 859 40 l 2
 891 40 918 56.8333 940 90.5 c 0
 962 124.167 973.333 164 974 210 c 0
769 -130 m 2
 769 -10 l 1
 594 -10 l 1
 594 -20 l 2
 594 -66 602.333 -103.667 619 -133 c 0
 639.667 -170.333 671.333 -189.333 714 -190 c 0
 729.333 -190 742.333 -184 753 -172 c 0
 763.667 -160 769 -146 769 -130 c 2
EndSplineSet
EndChar
StartChar: uni0D10
Encoding: 3344 3344
Width: 1082
Flags: HW
Fore
1050 100 m 0
 1050.67 21.3333 1036.33 -48 1007 -108 c 0
 974.333 -176.667 925.333 -225.667 860 -255 c 1
 860 -195 l 1
 932.667 -143 969.333 -44.6667 970 100 c 0
 970.667 166.667 956 228 926 284 c 0
 890 351.333 841.333 385 780 385 c 0
 714 385 661.667 348 623 274 c 0
 591 213.333 575 147 575 75 c 2
 575 40 l 1
 750 40 l 1
 750 360 l 1
 820 360 l 1
 820 -150 l 2
 820 -181.333 811 -209 793 -233 c 0
 775 -257 750.667 -269.333 720 -270 c 0
 664.667 -270.667 617.667 -243 579 -187 c 0
 544.333 -136.333 527 -82.3333 527 -25 c 2
 527 -10 l 1
 230 -10 l 1
 230 38 l 1
 256 42 276 55.3333 290 78 c 0
 302.667 98 309.333 122 310 150 c 0
 310.667 182 298.833 209 274.5 231 c 0
 250.167 253 222 264.333 190 265 c 0
 158 265.667 131 253.833 109 229.5 c 0
 87 205.167 75.6667 177 75 145 c 0
 74.3333 91 97 48.3333 143 17 c 1
 106 -19 l 1
 52 26.3333 25 81 25 145 c 0
 25 196.333 42.1667 240.667 76.5 278 c 0
 110.833 315.333 153.667 334.333 205 335 c 0
 256.333 335.667 299.833 317.833 335.5 281.5 c 0
 371.167 245.167 389.333 201.333 390 150 c 0
 390.667 111.333 375.667 74.6667 345 40 c 1
 525 40 l 1
 525 80 l 2
 525 168.667 546.667 250 590 324 c 0
 640.667 411.333 707.333 455 790 455 c 0
 872 455 937.667 414.667 987 334 c 0
 1028.33 265.333 1049.33 187.333 1050 100 c 0
750 -120 m 2
 750 -10 l 1
 576 -10 l 1
 577 -19 l 1
 577 -61 586 -98.6667 604 -132 c 0
 626.667 -173.333 657 -194.333 695 -195 c 0
 712.333 -195.667 726 -187 736 -169 c 0
 745.333 -154.333 750 -138 750 -120 c 2
EndSplineSet
EndChar
StartChar: uni0D12
Encoding: 3346 3346
Width: 576
Flags: HW
Fore
555 115 m 0
 555 80.3333 542.833 50.8333 518.5 26.5 c 0
 494.167 2.16667 464.667 -10 430 -10 c 2
 330 -10 l 1
 330 40 l 1
 390 40 l 2
 412 40 430.833 47 446.5 61 c 0
 462.167 75 470 93 470 115 c 0
 470 139.667 459.667 160 439 176 c 0
 418.333 192 395.333 200 370 200 c 2
 350 200 l 1
 350 250 l 1
 367 250 l 1
 411.667 264 434.333 284 435 310 c 0
 435.667 337.333 417.333 359 380 375 c 0
 351.333 387.667 321.333 394.333 290 395 c 0
 238 395.667 193.167 379.167 155.5 345.5 c 0
 117.833 311.833 94.3333 269 85 217 c 1
 110.333 249 145.333 265 190 265 c 0
 228 265 260.667 252 288 226 c 0
 315.333 200 329.333 168 330 130 c 0
 330.667 90 316.667 56 288 28 c 0
 259.333 0 225 -14.3333 185 -15 c 0
 138.333 -15.6667 100 5.66667 70 49 c 0
 44 87.6667 30.6667 131.333 30 180 c 0
 29.3333 255.333 54.6667 320 106 374 c 0
 157.333 428 220.333 455 295 455 c 0
 345 455 391.333 445 434 425 c 0
 487.333 399.667 514.333 364.667 515 320 c 0
 515.667 284 496 254.333 456 231 c 1
 483.333 221.667 506 207.333 524 188 c 0
 544.667 166 555 141.667 555 115 c 0
255 130 m 0
 255.667 152.667 248.833 172.5 234.5 189.5 c 0
 220.167 206.5 202 215 180 215 c 0
 160 215 142.667 207 128 191 c 0
 113.333 175 105.667 154.667 105 130 c 0
 104.333 105.333 110.333 84 123 66 c 0
 137 45.3333 156 35 180 35 c 0
 202.667 35 221.333 45.6667 236 67 c 0
 248 85 254.333 106 255 130 c 0
EndSplineSet
EndChar
StartChar: uni0D13
Encoding: 3347 3347
Width: 576
Flags: HW
Fore
555 115 m 0
 555 80.3333 542.833 50.8333 518.5 26.5 c 0
 494.167 2.16667 464.667 -10 430 -10 c 2
 330 -10 l 1
 330 40 l 1
 390 40 l 2
 412 40 430.833 47 446.5 61 c 0
 462.167 75 470 93 470 115 c 0
 470 139.667 459.667 160 439 176 c 0
 418.333 192 395.333 200 370 200 c 2
 350 200 l 1
 350 250 l 1
 367 250 l 1
 411.667 264 434.333 284 435 310 c 0
 435.667 337.333 417.333 359 380 375 c 0
 351.333 387.667 321.333 394.333 290 395 c 0
 238 395.667 193.167 379.167 155.5 345.5 c 0
 117.833 311.833 94.3333 269 85 217 c 1
 110.333 249 145.333 265 190 265 c 0
 228 265 260.667 252 288 226 c 0
 315.333 200 329.333 168 330 130 c 0
 330.667 90 316.667 56 288 28 c 0
 259.333 0 225 -14.3333 185 -15 c 0
 138.333 -15.6667 100 5.66667 70 49 c 0
 44 87.6667 30.6667 131.333 30 180 c 0
 29.3333 255.333 54.6667 320 106 374 c 0
 157.333 428 220.333 455 295 455 c 0
 345 455 391.333 445 434 425 c 0
 487.333 399.667 514.333 364.667 515 320 c 0
 515.667 284 496 254.333 456 231 c 1
 483.333 221.667 506 207.333 524 188 c 0
 544.667 166 555 141.667 555 115 c 0
255 130 m 0
 255.667 152.667 248.833 172.5 234.5 189.5 c 0
 220.167 206.5 202 215 180 215 c 0
 160 215 142.667 207 128 191 c 0
 113.333 175 105.667 154.667 105 130 c 0
 104.333 105.333 110.333 84 123 66 c 0
 137 45.3333 156 35 180 35 c 0
 202.667 35 221.333 45.6667 236 67 c 0
 248 85 254.333 106 255 130 c 0
EndSplineSet
EndChar
StartChar: uni0D14
Encoding: 3348 3348
Width: 576
Flags: HW
Fore
555 115 m 0
 555 80.3333 542.833 50.8333 518.5 26.5 c 0
 494.167 2.16667 464.667 -10 430 -10 c 2
 330 -10 l 1
 330 40 l 1
 390 40 l 2
 412 40 430.833 47 446.5 61 c 0
 462.167 75 470 93 470 115 c 0
 470 139.667 459.667 160 439 176 c 0
 418.333 192 395.333 200 370 200 c 2
 350 200 l 1
 350 250 l 1
 367 250 l 1
 411.667 264 434.333 284 435 310 c 0
 435.667 337.333 417.333 359 380 375 c 0
 351.333 387.667 321.333 394.333 290 395 c 0
 238 395.667 193.167 379.167 155.5 345.5 c 0
 117.833 311.833 94.3333 269 85 217 c 1
 110.333 249 145.333 265 190 265 c 0
 228 265 260.667 252 288 226 c 0
 315.333 200 329.333 168 330 130 c 0
 330.667 90 316.667 56 288 28 c 0
 259.333 0 225 -14.3333 185 -15 c 0
 138.333 -15.6667 100 5.66667 70 49 c 0
 44 87.6667 30.6667 131.333 30 180 c 0
 29.3333 255.333 54.6667 320 106 374 c 0
 157.333 428 220.333 455 295 455 c 0
 345 455 391.333 445 434 425 c 0
 487.333 399.667 514.333 364.667 515 320 c 0
 515.667 284 496 254.333 456 231 c 1
 483.333 221.667 506 207.333 524 188 c 0
 544.667 166 555 141.667 555 115 c 0
255 130 m 0
 255.667 152.667 248.833 172.5 234.5 189.5 c 0
 220.167 206.5 202 215 180 215 c 0
 160 215 142.667 207 128 191 c 0
 113.333 175 105.667 154.667 105 130 c 0
 104.333 105.333 110.333 84 123 66 c 0
 137 45.3333 156 35 180 35 c 0
 202.667 35 221.333 45.6667 236 67 c 0
 248 85 254.333 106 255 130 c 0
EndSplineSet
EndChar
StartChar: uni0D15
Encoding: 3349 3349
Width: 750
Flags: HW
Fore
733 125 m 0
 733.667 88.3333 722.667 56 700 28 c 0
 677.333 0 648.333 -14.3333 613 -15 c 0
 575.667 -15.6667 546.667 -4 526 20 c 1
 550 59 l 1
 570 47.6667 586 41.3333 598 40 c 0
 614 40 627 48.6667 637 66 c 0
 641.667 74 645.333 83.6667 648 95 c 0
 650.667 106.333 652.333 118 653 130 c 0
 653.667 149.333 648 166.667 636 182 c 0
 624 197.333 609.667 205 593 205 c 2
 523 205 l 1
 523 152.333 510.667 104.667 486 62 c 0
 456.667 11.3333 417.333 -14.3333 368 -15 c 0
 320.667 -15.6667 282.667 4.33333 254 45 c 1
 232 5 195 -15 143 -15 c 0
 107 -15 77.3333 -1.66667 54 25 c 0
 30.6667 51.6667 18.6667 83.3333 18 120 c 0
 17.3333 156.667 28.8333 188.333 52.5 215 c 0
 76.1667 241.667 106.333 255 143 255 c 2
 208 255 l 1
 208 304.333 220.333 348.333 245 387 c 0
 273.667 431.667 311.333 454.333 358 455 c 0
 406 455.667 446 434 478 390 c 0
 507.333 350 522.333 305 523 255 c 1
 593 255 l 2
 631 255 663.667 242.667 691 218 c 0
 718.333 193.333 732.333 162.333 733 125 c 0
443 255 m 1
 443 287.667 436.333 317.333 423 344 c 0
 406.333 377.333 383 394.333 353 395 c 0
 323 395.667 299 379 281 345 c 0
 266.333 317.667 258.667 287.667 258 255 c 1
 443 255 l 1
443 205 m 1
 258 205 l 1
 258 163.667 264 128.667 276 100 c 0
 292 60 317.667 40 353 40 c 0
 377.667 40 399.333 55 418 85 c 1
 433.333 115 441.667 155 443 205 c 1
225 96 m 1
 215 124 209.333 160.333 208 205 c 1
 153 205 l 2
 130.333 205 111.5 196.5 96.5 179.5 c 0
 81.5 162.5 73.6667 142.667 73 120 c 0
 72.3333 98.6667 78.5 80.1667 91.5 64.5 c 0
 104.5 48.8333 121.667 40.6667 143 40 c 0
 174.333 39.3333 201.667 58 225 96 c 1
EndSplineSet
EndChar
StartChar: uni0D16
Encoding: 3350 3350
Width: 875
Flags: HW
Fore
810 -10 m 1
 395 -10 l 1
 395 36 l 1
 419.667 50 439 71.5 453 100.5 c 0
 467 129.5 474.333 162.667 475 200 c 0
 475.667 251.333 457.667 296.5 421 335.5 c 0
 384.333 374.5 340.667 394.333 290 395 c 0
 229.333 395.667 179.333 374.667 140 332 c 0
 100.667 289.333 80.6667 237.333 80 176 c 1
 90 127 l 1
 70 125 l 1
 70 162.333 81.6667 194.167 105 220.5 c 0
 128.333 246.833 158.333 260 195 260 c 0
 235 260 269.833 247.333 299.5 222 c 0
 329.167 196.667 344.333 164.333 345 125 c 0
 345.667 85.6667 331.5 52.6667 302.5 26 c 0
 273.5 -0.666667 239.333 -14.3333 200 -15 c 0
 149.333 -15.6667 107.667 5.33333 75 48 c 0
 45.6667 87.3333 30.6667 133 30 185 c 0
 29.3333 258.333 54.6667 322 106 376 c 0
 155.333 428 216.667 454.333 290 455 c 0
 362 455.667 424.167 431.167 476.5 381.5 c 0
 528.833 331.833 555 271.333 555 200 c 0
 555 135.333 536.333 82 499 40 c 1
 740 40 l 1
 740 450 l 1
 810 450 l 1
 810 -10 l 1
265 135 m 0
 265 156.333 257.167 173.167 241.5 185.5 c 0
 225.833 197.833 207 204.333 185 205 c 0
 163 205.667 145.167 197.167 131.5 179.5 c 0
 117.833 161.833 110.667 142 110 120 c 0
 109.333 97.3333 116 78.5 130 63.5 c 0
 144 48.5 162.333 40.6667 185 40 c 0
 208.333 39.3333 228 49.3333 244 70 c 0
 258 89.3333 265 111 265 135 c 0
EndSplineSet
EndChar
StartChar: uni0D17
Encoding: 3351 3351
Width: 800
Flags: HW
Fore
770 220 m 0
 770 167.333 757 120.167 731 78.5 c 0
 705 36.8333 668.333 4.66667 621 -18 c 1
 596 24 l 1
 674 62 713.667 127.333 715 220 c 0
 715.667 264.667 701.833 304 673.5 338 c 0
 645.167 372 609 389.333 565 390 c 0
 508.333 390.667 471 357.667 453 291 c 0
 447.667 272.333 445 248.667 445 220 c 0
 444.333 154 429.333 100 400 58 c 0
 366 10 317.667 -14.3333 255 -15 c 0
 193 -15.6667 140 5.33333 96 48 c 0
 52 90.6667 30 143 30 205 c 0
 30 263 43 313.667 69 357 c 0
 97 403 137 436.333 189 457 c 1
 216 422 l 1
 175.333 402 143.5 373.667 120.5 337 c 0
 97.5 300.333 85.6667 259.667 85 215 c 0
 84.3333 170.333 98.1667 131.667 126.5 99 c 0
 154.833 66.3333 191 50 235 50 c 0
 279.667 50 313.333 68 336 104 c 0
 354.667 133.333 364.333 172 365 220 c 0
 365.667 284.667 379.333 338 406 380 c 0
 438 429.333 484.333 454.333 545 455 c 0
 606.333 455.667 659.167 433 703.5 387 c 0
 747.833 341 770 285.333 770 220 c 0
EndSplineSet
EndChar
StartChar: uni0D18
Encoding: 3352 3352
Width: 1131
Flags: HW
Fore
1066 -10 m 1
 441 -10 l 1
 441 145 l 1
 231 145 l 1
 231 186 l 1
 263.667 204.667 280.333 234.333 281 275 c 0
 281.667 306.333 271.5 333.167 250.5 355.5 c 0
 229.5 377.833 204.667 389.333 176 390 c 0
 145.333 390.667 120.167 379.333 100.5 356 c 0
 80.8333 332.667 71 305.667 71 275 c 0
 71 243 91 212.333 131 183 c 1
 104 147 l 1
 49.3333 179 21.6667 223.333 21 280 c 0
 20.3333 328 36.6667 369.167 70 403.5 c 0
 103.333 437.833 143.667 455 191 455 c 0
 237 455 276.833 439 310.5 407 c 0
 344.167 375 361 336 361 290 c 0
 361 254 350.667 222.333 330 195 c 1
 441 195 l 1
 441 260 l 2
 441 316.667 461.667 363.333 503 400 c 0
 544.333 436.667 593.667 455 651 455 c 0
 701.667 455 746 438.333 784 405 c 0
 822 371.667 841 330 841 280 c 2
 841 145 l 1
 511 145 l 1
 511 40 l 1
 996 40 l 1
 996 450 l 1
 1066 450 l 1
 1066 -10 l 1
771 195 m 1
 771 260 l 2
 771 296.667 760 329 738 357 c 0
 716 385 687 399.333 651 400 c 0
 612.333 400.667 579.333 387.167 552 359.5 c 0
 524.667 331.833 511 298.667 511 260 c 2
 511 195 l 1
 771 195 l 1
EndSplineSet
EndChar
StartChar: uni0D19
Encoding: 3353 3353
Width: 891
Flags: HW
Fore
866 110 m 0
 866.667 72 849 41 813 17 c 0
 781.667 -3.66667 746 -14.3333 706 -15 c 0
 674 -15.6667 643.667 -12.1667 615 -4.5 c 0
 586.333 3.16667 562.333 14 543 28 c 1
 568 70 l 1
 578.667 62 595.333 54.3333 618 47 c 1
 641.333 43 664 40.6667 686 40 c 0
 711.333 39.3333 734.167 46.3333 754.5 61 c 0
 774.833 75.6667 785.333 95.3333 786 120 c 0
 786.667 143.333 774.667 162.333 750 177 c 0
 728.667 189 705.667 195 681 195 c 2
 556 195 l 1
 556 245 l 1
 681 245 l 2
 701 245 718.667 253.333 734 270 c 0
 748 284.667 755.333 304.667 756 330 c 0
 756.667 350 746.333 366.333 725 379 c 0
 707 389.667 687.333 395 666 395 c 0
 621.333 395.667 581 383 545 357 c 0
 505.667 329 486 293.333 486 250 c 2
 486 -10 l 1
 416 -10 l 1
 416 250 l 2
 416 291.333 400.667 325.667 370 353 c 0
 339.333 380.333 303 394.333 261 395 c 0
 209 395.667 165.333 374.333 130 331 c 0
 98 291.667 81.6667 245 81 191 c 1
 86 147 l 1
 66 146 l 1
 66 179.333 79.6667 207 107 229 c 0
 132.333 249.667 162 260 196 260 c 0
 236.667 260 271.667 246.667 301 220 c 0
 330.333 193.333 345.333 160 346 120 c 0
 346.667 83.3333 331.667 51.6667 301 25 c 0
 270.333 -1.66667 233.667 -15 191 -15 c 0
 145 -15 106.833 4.83333 76.5 44.5 c 0
 46.1667 84.1667 31 132.667 31 190 c 0
 31 261.333 51.3333 322 92 372 c 0
 135.333 426.667 191.667 454.333 261 455 c 0
 301 455.667 338.333 446.333 373 427 c 0
 407.667 407.667 435.333 380.667 456 346 c 1
 476 380 506.333 407 547 427 c 0
 584.333 445 624 454.333 666 455 c 0
 708 455.667 745.667 444.667 779 422 c 0
 816.333 397.333 835.333 365 836 325 c 0
 836.667 281 816.667 248 776 226 c 1
 835.333 203.333 865.333 164.667 866 110 c 0
266 120 m 0
 266 143.333 258.5 163.167 243.5 179.5 c 0
 228.5 195.833 209.333 204.333 186 205 c 0
 164 205.667 145.667 197.333 131 180 c 0
 116.333 162.667 108.667 142.667 108 120 c 0
 107.333 98.6667 114.833 80 130.5 64 c 0
 146.167 48 164.667 40 186 40 c 0
 208 40 226.833 47.8333 242.5 63.5 c 0
 258.167 79.1667 266 98 266 120 c 0
EndSplineSet
EndChar
StartChar: uni0D1A
Encoding: 3354 3354
Width: 824
Flags: HW
Fore
758 -10 m 1
 -2 -10 l 1
 -2 40 l 1
 268 40 l 2
 293.333 40 313.667 52.3333 329 77 c 0
 341 98.3333 347.333 122.667 348 150 c 0
 348.667 178.667 336.5 204.167 311.5 226.5 c 0
 286.5 248.833 257 260 223 260 c 0
 191.667 260 164.833 250.167 142.5 230.5 c 0
 120.167 210.833 108.667 185.667 108 155 c 0
 107.333 136.333 114.333 119 129 103 c 1
 86 77 l 1
 68 103.667 58.6667 131.333 58 160 c 0
 57.3333 208.667 75.3333 248.667 112 280 c 0
 146.667 310 188.667 325 238 325 c 0
 288.667 325 333 308.333 371 275 c 0
 409 241.667 428 200 428 150 c 0
 428 105.333 413.667 68.6667 385 40 c 1
 688 40 l 1
 688 450 l 1
 758 450 l 1
 758 -10 l 1
EndSplineSet
EndChar
StartChar: uni0D1B
Encoding: 3355 3355
Width: 1113
Flags: HW
Fore
1082 190 m 0
 1082.67 133.333 1068 85 1038 45 c 0
 1008 5 972.667 -15 932 -15 c 0
 892.667 -15 858.833 0.833333 830.5 32.5 c 0
 802.167 64.1667 787.667 103.333 787 150 c 0
 785.667 244.667 826 319.667 908 375 c 1
 886 387.667 859 394.333 827 395 c 0
 777.667 395.667 736.333 377.5 703 340.5 c 0
 669.667 303.5 652.667 260 652 210 c 0
 651.333 168 663.5 132 688.5 102 c 0
 713.5 72 746.333 50.6667 787 38 c 1
 787 -10 l 1
 -3 -10 l 1
 -3 40 l 1
 287 40 l 2
 317 40 342.833 50.8333 364.5 72.5 c 0
 386.167 94.1667 397 120 397 150 c 0
 397 186.667 380.667 216.333 348 239 c 0
 318.667 259 285 269.333 247 270 c 0
 213.667 270.667 183.667 262 157 244 c 0
 127 223.333 112 197 112 165 c 0
 112 141.667 121 123.333 139 110 c 1
 90 77 l 1
 72 103.667 62.6667 133 62 165 c 0
 61.3333 215.667 83.3333 257.333 128 290 c 0
 168 319.333 214.333 334.333 267 335 c 0
 321.667 335.667 370.167 318.333 412.5 283 c 0
 454.833 247.667 476.333 203.333 477 150 c 0
 477.667 104.667 462 68 430 40 c 1
 679 40 l 1
 628.333 82 602.667 138.667 602 210 c 0
 601.333 278 625 335.833 673 383.5 c 0
 721 431.167 779 455 847 455 c 0
 915.667 455 972.667 427.333 1018 372 c 0
 1060 320.667 1081.33 260 1082 190 c 0
1002 200 m 0
 1002 259.333 983.333 306.667 946 342 c 1
 874.667 298.667 838.333 236.333 837 155 c 0
 836.333 126.333 844 101.667 860 81 c 0
 877.333 57.6667 899.667 45.6667 927 45 c 0
 957.667 44.3333 980.667 75.6667 996 139 c 0
 1000 155.667 1002 176 1002 200 c 0
EndSplineSet
EndChar
StartChar: uni0D1C
Encoding: 3356 3356
Width: 653
Flags: HW
Fore
620 320 m 0
 620.667 276.667 603 241 567 213 c 0
 533.667 187.667 494.667 175 450 175 c 2
 225 175 l 2
 199.667 175 178 168 160 154 c 0
 140 139.333 130 119.667 130 95 c 0
 130 77.6667 137.667 64 153 54 c 0
 166.333 45.3333 182 40.6667 200 40 c 0
 225.333 39.3333 267 55.6667 325 89 c 0
 401.667 133 463.333 155 510 155 c 0
 536 155 559.833 147.167 581.5 131.5 c 0
 603.167 115.833 614.333 95.3333 615 70 c 0
 615.667 44 604.333 23 581 7 c 0
 560.333 -7.66667 536.667 -15 510 -15 c 0
 483.333 -15 460 -8.66667 440 4 c 0
 416.667 19.3333 405 39.6667 405 65 c 1
 410 81 l 1
 375 63 l 2
 369.667 60.3333 360 55 346 47 c 0
 341.333 43.6667 332.667 38.3333 320 31 c 0
 265.333 1 222 -14.3333 190 -15 c 0
 154.667 -15.6667 124 -5.66667 98 15 c 0
 70 37.6667 55.6667 66 55 100 c 0
 54.3333 137.333 72 168.333 108 193 c 0
 140 214.333 175.667 225 215 225 c 2
 435 225 l 2
 463 225 487.333 234 508 252 c 0
 528.667 270 539.333 292.667 540 320 c 0
 540.667 341.333 530.667 359.333 510 374 c 0
 492 387.333 472 394.333 450 395 c 0
 422.667 395.667 399.167 389.167 379.5 375.5 c 0
 359.833 361.833 350 345 350 325 c 2
 350 240 l 1
 280 240 l 1
 280 330 l 2
 280 349.333 271.667 365 255 377 c 0
 238.333 389 220 395 200 395 c 2
 194 395 l 1
 224 377.667 239.333 352.667 240 320 c 0
 240.667 290 228 265.333 202 246 c 0
 178.667 229.333 151.333 220.667 120 220 c 0
 101.333 220 83.8333 225.5 67.5 236.5 c 0
 51.1667 247.5 39.3333 262 32 280 c 0
 27.3333 290.667 25 304 25 320 c 0
 24.3333 355.333 39.1667 386.5 69.5 413.5 c 0
 99.8333 440.5 136.667 454.333 180 455 c 0
 244.667 455.667 291.667 435.333 321 394 c 1
 353 434 402.667 454.333 470 455 c 0
 511.333 455.667 546.5 442.5 575.5 415.5 c 0
 604.5 388.5 619.333 356.667 620 320 c 0
535 65 m 1
 535 87 521.667 98.6667 495 100 c 0
 485 100.667 475.833 97.5 467.5 90.5 c 0
 459.167 83.5 455 75 455 65 c 0
 455 49 468.333 40.6667 495 40 c 0
 519.667 39.3333 533 47.6667 535 65 c 1
160 320 m 0
 160.667 332.667 156.5 344 147.5 354 c 0
 138.5 364 127.667 369.333 115 370 c 0
 106.333 370.667 96.6667 365.667 86 355 c 1
 79.3333 346.333 75.6667 334.667 75 320 c 0
 73.6667 288 87 271.333 115 270 c 0
 125 269.333 135.667 274.333 147 285 c 1
 155 295 159.333 306.667 160 320 c 0
EndSplineSet
EndChar
StartChar: uni0D1D
Encoding: 3357 3357
Width: 1308
Flags: HW
Fore
1285 210 m 0
 1285.67 151.333 1268.33 100 1233 56 c 0
 1195 8.66667 1147.33 -15 1090 -15 c 0
 1024.67 -15 976.667 11.6667 946 65 c 1
 928.667 30.3333 895.333 5.66667 846 -9 c 0
 832.667 -13 817.333 -15 800 -15 c 0
 745.333 -15 701.667 0.5 669 31.5 c 0
 636.333 62.5 620 105.333 620 160 c 2
 620 260 l 2
 620 302 608 335.833 584 361.5 c 0
 560 387.167 527 400 485 400 c 0
 457.667 400 431.333 397 406 391 c 1
 474.667 337.667 509.333 269 510 185 c 0
 510.667 133 495.667 87.6667 465 49 c 0
 432.333 7 390.667 -14.3333 340 -15 c 0
 295.333 -15.6667 259 7.33333 231 54 c 0
 207.667 93.3333 195.667 137 195 185 c 0
 194.333 261.667 229.333 329.333 300 388 c 1
 281.333 396 268 400 260 400 c 0
 206.667 400 162.5 380.167 127.5 340.5 c 0
 92.5 300.833 75 254 75 200 c 0
 75 118 102 54.6667 156 10 c 1
 121 -18 l 1
 57.6667 25.3333 25.6667 98 25 200 c 0
 24.3333 268 46.5 327.5 91.5 378.5 c 0
 136.5 429.5 192.667 455 260 455 c 0
 293.333 455 327 445.333 361 426 c 1
 379 435.333 400 442.667 424 448 c 0
 442 452 464 454.333 490 455 c 0
 549.333 455.667 597.5 438.167 634.5 402.5 c 0
 671.5 366.833 690 319.333 690 260 c 2
 690 160 l 2
 690 125.333 699.667 97.6667 719 77 c 0
 738.333 56.3333 765.333 45.6667 800 45 c 0
 830 44.3333 855.833 54.3333 877.5 75 c 0
 899.167 95.6667 910 120.667 910 150 c 2
 910 450 l 1
 980 450 l 1
 980 150 l 2
 980 118 992.333 92 1017 72 c 0
 1039.67 54 1067.33 45 1100 45 c 0
 1142 45 1175.67 62.6667 1201 98 c 0
 1223.67 129.333 1235 166.667 1235 210 c 0
 1235 304.667 1193.67 373.333 1111 416 c 1
 1136 458 l 1
 1182 437.333 1218.67 403.333 1246 356 c 0
 1271.33 311.333 1284.33 262.667 1285 210 c 0
430 190 m 0
 430.667 216 422.833 244.667 406.5 276 c 0
 390.167 307.333 367.667 336 339 362 c 1
 277.667 324 246.333 265 245 185 c 0
 244.333 151.667 251 121 265 93 c 0
 281.667 57.6667 305 40 335 40 c 0
 361.667 40 384 54.1667 402 82.5 c 0
 420 110.833 429.333 146.667 430 190 c 0
EndSplineSet
EndChar
StartChar: uni0D1E
Encoding: 3358 3358
Width: 1108
Flags: HW
Fore
1073 210 m 0
 1073.67 125.333 1046.33 49.3333 991 -18 c 1
 932 13 l 1
 972 57 992.333 116 993 190 c 0
 993.667 240 980.667 285.333 954 326 c 0
 924.667 371.333 886 394.333 838 395 c 0
 820 395 809 394.333 805 393 c 0
 799 393 791 391 781 387 c 1
 845 329 877.333 260 878 180 c 0
 878.667 129.333 865 85.3333 837 48 c 0
 806.333 6.66667 766.667 -14.3333 718 -15 c 0
 672 -15.6667 634 4.33333 604 45 c 0
 577.333 81 563.667 122.667 563 170 c 0
 562.333 252 599.667 321.667 675 379 c 1
 655.667 389 633.333 394.333 608 395 c 0
 572 395.667 540.333 385.667 513 365 c 0
 483 343 468 314.667 468 280 c 2
 468 -10 l 1
 398 -10 l 1
 398 280 l 2
 398 312.667 384.333 340.333 357 363 c 0
 331.667 383.667 302 394.333 268 395 c 0
 216.667 395.667 172.667 376.667 136 338 c 0
 97.3333 297.333 79.3333 251.333 82 200 c 2
 83 181 l 1
 63 183 l 1
 70.3333 211 86 232.667 110 248 c 0
 132 262.667 158 270 188 270 c 0
 228 270 261.667 255 289 225 c 0
 314.333 195.667 327.333 160.667 328 120 c 0
 328.667 83.3333 313.667 51.6667 283 25 c 0
 252.333 -1.66667 215.667 -15 173 -15 c 0
 124.333 -15 87.6667 8.33333 63 55 c 0
 43.6667 91 33.6667 136 33 190 c 0
 32.3333 261.333 55 322.667 101 374 c 0
 148.333 428 207.333 455 278 455 c 0
 345.333 455 398.667 426.333 438 369 c 1
 478.667 425.667 538.667 454.333 618 455 c 0
 652 455 690.333 444 733 422 c 1
 773 444 814.667 455 858 455 c 0
 920.667 455 972.667 429.333 1014 378 c 0
 1052.67 330.667 1072.33 274.667 1073 210 c 0
798 180 m 0
 799.333 258 772.667 315.667 718 353 c 1
 668 322.333 635.333 279.333 620 224 c 0
 616 208 613.667 190 613 170 c 0
 612.333 137.333 620.667 108.333 638 83 c 0
 656.667 55 681.667 40.6667 713 40 c 0
 741 39.3333 763 56.6667 779 92 c 0
 791 118.667 797.333 148 798 180 c 0
248 125 m 0
 248 149 240.5 170 225.5 188 c 0
 210.5 206 191.333 215 168 215 c 0
 146 215 128.167 205.667 114.5 187 c 0
 100.833 168.333 93.6667 147.667 93 125 c 0
 92.3333 102.333 99 82.6667 113 66 c 0
 127 49.3333 145.333 40.6667 168 40 c 0
 190 39.3333 208.833 47.6667 224.5 65 c 0
 240.167 82.3333 248 102.333 248 125 c 0
EndSplineSet
EndChar
StartChar: uni0D1F
Encoding: 3359 3359
Width: 503
Flags: HW
Fore
486 140 m 0
 486.667 90.6667 458.667 51.3333 402 22 c 0
 355.333 -2 305 -14.3333 251 -15 c 0
 169 -15.6667 91 16 17 80 c 1
 51 114 l 1
 113 62 179.667 35.6667 251 35 c 0
 287.667 35 320.667 42.3333 350 57 c 0
 386.667 75.6667 405.333 101.667 406 135 c 0
 406.667 151.667 396.667 167 376 181 c 1
 355.333 193 330.667 199.333 302 200 c 1
 252 195 l 2
 222 192.333 195 190.667 171 190 c 0
 133.667 189.333 100.333 198.667 71 218 c 0
 38.3333 240 21.6667 269 21 305 c 0
 20.3333 353 49.6667 391.333 109 420 c 0
 157 443.333 207.667 455 261 455 c 0
 334.333 455 402.667 428.667 466 376 c 1
 433 343 l 1
 371 383.667 313.667 404.333 261 405 c 0
 214.333 405.667 174.5 396.333 141.5 377 c 0
 108.5 357.667 91.6667 333.667 91 305 c 0
 90.3333 281.667 106 266.333 138 259 c 0
 146.667 257 157.333 255.667 170 255 c 1
 219 260 l 2
 237.667 260.667 265 262.333 301 265 c 1
 343.667 265 383.333 255 420 235 c 0
 463.333 211 485.333 179.333 486 140 c 0
EndSplineSet
EndChar
StartChar: uni0D20
Encoding: 3360 3360
Width: 508
Flags: HW
Fore
479 220 m 0
 479 156.667 457.333 101.833 414 55.5 c 0
 370.667 9.16667 317.333 -14.3333 254 -15 c 0
 190.667 -15.6667 137.333 7.33333 94 54 c 0
 50.6667 100.667 29 156 29 220 c 0
 29 283.333 50.6667 338.167 94 384.5 c 0
 137.333 430.833 190.667 454.333 254 455 c 0
 315.333 455.667 368.167 433 412.5 387 c 0
 456.833 341 479 285.333 479 220 c 0
399 220 m 0
 399.667 268.667 384.333 310.667 353 346 c 0
 321.667 381.333 283.667 399.333 239 400 c 0
 192.333 400.667 153.667 382 123 344 c 0
 94.3333 308.667 79.6667 267.333 79 220 c 0
 78.3333 171.333 92.8333 129.333 122.5 94 c 0
 152.167 58.6667 191 40.6667 239 40 c 0
 285.667 39.3333 324.333 58 355 96 c 0
 383.667 131.333 398.333 172.667 399 220 c 0
EndSplineSet
EndChar
StartChar: uni0D21
Encoding: 3361 3361
Width: 1118
Flags: HW
Fore
1086 210 m 0
 1086 151.333 1069.33 100.333 1036 57 c 0
 1000 9.66667 953.333 -14.3333 896 -15 c 0
 810.667 -15.6667 748 13 708 71 c 1
 694 43 670.333 21 637 5 c 0
 607.667 -8.33333 575.667 -15 541 -15 c 0
 493.667 -15 452.667 0.833333 418 32.5 c 0
 383.333 64.1667 366 103.333 366 150 c 2
 366 260 l 2
 366 296.667 355 329 333 357 c 0
 311 385 282 399.333 246 400 c 0
 198 400.667 158 382.667 126 346 c 0
 96.6667 311.333 81.6667 269.333 81 220 c 0
 80.3333 132 123 67.3333 209 26 c 1
 192 -18 l 1
 116.667 9.33333 66.6667 62.3333 42 141 c 0
 34.6667 163.667 31 190 31 220 c 0
 30.3333 280.667 49.5 334.833 88.5 382.5 c 0
 127.5 430.167 176.667 454.333 236 455 c 0
 297.333 455.667 347 439.667 385 407 c 0
 425.667 372.333 446 325 446 265 c 2
 446 145 l 2
 446 115.667 456.833 91.8333 478.5 73.5 c 0
 500.167 55.1667 526 45.6667 556 45 c 0
 590 44.3333 618.5 56.3333 641.5 81 c 0
 664.5 105.667 676 135.333 676 170 c 2
 676 450 l 1
 746 450 l 1
 746 170 l 2
 746 135.333 759.5 105.833 786.5 81.5 c 0
 813.5 57.1667 846.667 45 886 45 c 0
 928.667 45 964.333 61.6667 993 95 c 0
 1021.67 128.333 1036 166.667 1036 210 c 0
 1036 254.667 1024.5 295.333 1001.5 332 c 0
 978.5 368.667 947 396.667 907 416 c 1
 932 458 l 1
 979.333 437.333 1016.83 404.167 1044.5 358.5 c 0
 1072.17 312.833 1086 263.333 1086 210 c 0
EndSplineSet
EndChar
StartChar: uni0D22
Encoding: 3362 3362
Width: 1153
Flags: HW
Fore
1121 230 m 0
 1121.67 161.333 1098.17 103.5 1050.5 56.5 c 0
 1002.83 9.5 944.667 -14.3333 876 -15 c 0
 802 -15.6667 746.333 11 709 65 c 1
 698.333 39 678.667 19 650 5 c 0
 624.667 -7.66667 596.667 -14.3333 566 -15 c 0
 511.333 -15.6667 464.333 2.16667 425 38.5 c 0
 385.667 74.8333 366 120.333 366 175 c 2
 366 260 l 2
 366 298 353.667 330.667 329 358 c 0
 304.333 385.333 273.333 399.333 236 400 c 0
 191.333 400.667 154 382.333 124 345 c 0
 96 311 81.6667 271 81 225 c 0
 80.3333 176.333 91.3333 135 114 101 c 0
 137.333 65 171.667 40.3333 217 27 c 1
 191 -17 l 1
 116.333 11 66.6667 65.3333 42 146 c 0
 34.6667 168.667 31 195 31 225 c 0
 30.3333 287 51.1667 340.667 93.5 386 c 0
 135.833 431.333 186.667 454.333 246 455 c 0
 296 455.667 340.167 436.5 378.5 397.5 c 0
 416.833 358.5 436 312.667 436 260 c 2
 436 165 l 2
 436 129.667 448.667 100.167 474 76.5 c 0
 499.333 52.8333 530 40.6667 566 40 c 0
 596 39.3333 621.833 50 643.5 72 c 0
 665.167 94 676 120 676 150 c 2
 676 450 l 1
 746 450 l 1
 746 140 l 2
 746 108.667 760.333 83.6667 789 65 c 0
 813.667 49 842.667 40.6667 876 40 c 0
 891.333 40 905 43.3333 917 50 c 1
 857 92 826.667 157 826 245 c 0
 825.333 295.667 837.333 341.333 862 382 c 0
 890.667 430 928.667 454.333 976 455 c 0
 1022.67 455.667 1059.67 428.333 1087 373 c 0
 1109 329 1120.33 281.333 1121 230 c 0
1066 230 m 0
 1066 266 1059.67 299.667 1047 331 c 0
 1030.33 373 1006.67 394.333 976 395 c 0
 949.333 395.667 929 373.667 915 329 c 0
 905.667 297.667 901 264.667 901 230 c 0
 901 154 924.333 102.667 971 76 c 1
 999 90 1021.83 111.167 1039.5 139.5 c 0
 1057.17 167.833 1066 198 1066 230 c 0
EndSplineSet
EndChar
StartChar: uni0D23
Encoding: 3363 3363
Width: 1165
Flags: HW
Fore
1134 220 m 0
 1134 170 1121.83 123.333 1097.5 80 c 0
 1073.17 36.6667 1039.67 2 997 -24 c 1
 961 27 l 1
 1023 79 1054 143.333 1054 220 c 0
 1054 264.667 1043 304.333 1021 339 c 0
 995 379 961 399.333 919 400 c 0
 884.333 400.667 854 389.5 828 366.5 c 0
 802 343.5 789 314.667 789 280 c 2
 789 -10 l 1
 719 -10 l 1
 719 280 l 2
 719 314 707.5 342.333 684.5 365 c 0
 661.5 387.667 633 399.333 599 400 c 0
 565.667 400.667 537.333 389.167 514 365.5 c 0
 490.667 341.833 479 313.333 479 280 c 2
 479 -10 l 1
 409 -10 l 1
 409 280 l 2
 409 316 394.333 345.333 365 368 c 0
 337.667 388.667 305.667 399.333 269 400 c 0
 218.333 400.667 174.833 382.667 138.5 346 c 0
 102.167 309.333 84 265.667 84 215 c 2
 84 180 l 1
 64 183 l 1
 70.6667 208.333 85 228.667 107 244 c 0
 127.667 257.333 151.667 264.333 179 265 c 0
 215.667 265.667 248.167 251.5 276.5 222.5 c 0
 304.833 193.5 319 159.333 319 120 c 0
 319 80.6667 305.5 48.3333 278.5 23 c 0
 251.5 -2.33333 218.333 -15 179 -15 c 0
 128.333 -15 90.3333 7.66667 65 53 c 0
 44.3333 89.6667 34 135.333 34 190 c 0
 34 266.667 53.6667 329 93 377 c 0
 135 429 193.667 455 269 455 c 0
 354.333 455 414.667 427 450 371 c 1
 490 427 539.667 455 599 455 c 0
 675 455 728.667 427 760 371 c 1
 778 397 802.333 417.333 833 432 c 0
 863.667 446.667 895.667 454.333 929 455 c 0
 984.333 455.667 1032.33 433.167 1073 387.5 c 0
 1113.67 341.833 1134 286 1134 220 c 0
239 125 m 0
 239 147.667 232.833 167.5 220.5 184.5 c 0
 208.167 201.5 191 210 169 210 c 0
 147.667 210 130.833 201.5 118.5 184.5 c 0
 106.167 167.5 99.6667 147.667 99 125 c 0
 98.3333 102.333 104.333 83 117 67 c 0
 129.667 49 147 40 169 40 c 0
 190.333 40 207.333 48.6667 220 66 c 0
 232.667 83.3333 239 103 239 125 c 0
EndSplineSet
EndChar
StartChar: uni0D24
Encoding: 3364 3364
Width: 806
Flags: HW
Fore
772 200 m 0
 772 106 742 33 682 -19 c 1
 632 25 l 1
 668.667 57.6667 687 116 687 200 c 0
 687 253.333 670 299.167 636 337.5 c 0
 602 375.833 559 395 507 395 c 0
 491 395 481 394.667 477 394 c 0
 465 393.333 451.667 391 437 387 c 1
 503.667 333 537 262.333 537 175 c 0
 537 127 524.333 84.6667 499 48 c 0
 470.333 6.66667 433 -14.3333 387 -15 c 0
 340.333 -15.6667 302.667 7 274 53 c 0
 250 91.6667 237.667 135.667 237 185 c 0
 236.333 269 267.667 333.667 331 379 c 1
 306.333 389.667 285 395 267 395 c 0
 215 395.667 171.333 376.5 136 337.5 c 0
 100.667 298.5 82.6667 252.667 82 200 c 0
 81.3333 126.667 109.667 65.3333 167 16 c 1
 133 -19 l 1
 98.3333 11 73 43.3333 57 78 c 0
 41 112.667 32.6667 153.333 32 200 c 0
 31.3333 269.333 54.8333 329.167 102.5 379.5 c 0
 150.167 429.833 208.333 455 277 455 c 0
 311.667 455 350 444 392 422 c 1
 432 444 477 455 527 455 c 0
 595.667 455 653.667 429.833 701 379.5 c 0
 748.333 329.167 772 269.333 772 200 c 0
457 175 m 0
 457 247 430 308 376 358 c 1
 317.333 320 287.667 262.333 287 185 c 0
 287 151.667 293.667 121 307 93 c 0
 323.667 57.6667 347 40 377 40 c 0
 403.667 40 424.333 57 439 91 c 0
 451 117 457 145 457 175 c 0
EndSplineSet
EndChar
StartChar: uni0D25
Encoding: 3365 3365
Width: 794
Flags: HW
Fore
743 -10 m 1
 68 -10 l 1
 68 450 l 1
 138 450 l 1
 138 40 l 1
 368 40 l 1
 368 260 l 2
 368 313.333 386.333 359.167 423 397.5 c 0
 459.667 435.833 504.667 455 558 455 c 0
 610 455 653.833 435.667 689.5 397 c 0
 725.167 358.333 743 312.667 743 260 c 2
 743 -10 l 1
693 40 m 1
 693 260 l 2
 693 296.667 680.333 328.167 655 354.5 c 0
 629.667 380.833 599 394.333 563 395 c 0
 527.667 395.667 498 382.333 474 355 c 0
 450 327.667 438 296 438 260 c 2
 438 40 l 1
 693 40 l 1
EndSplineSet
EndChar
StartChar: uni0D26
Encoding: 3366 3366
Width: 494
Flags: HW
Fore
469 105 m 0
 469 68.3333 450 38.3333 412 15 c 0
 378.667 -5 342.667 -15 304 -15 c 0
 236 -15 183.333 1.33333 146 34 c 1
 171 74 l 1
 210.333 52 248 40.6667 284 40 c 0
 308.667 39.3333 330.333 44.6667 349 56 c 0
 371.667 69.3333 383.333 87.3333 384 110 c 0
 384.667 133.333 375.833 153.333 357.5 170 c 0
 339.167 186.667 318 195 294 195 c 2
 164 195 l 1
 164 245 l 1
 279 245 l 2
 301 245 319.833 252 335.5 266 c 0
 351.167 280 359 298 359 320 c 0
 359 344.667 348.333 364.667 327 380 c 0
 307.667 392.667 285 399.333 259 400 c 0
 207.667 400.667 165.667 378 133 332 c 0
 104.333 291.333 89.6667 244 89 190 c 0
 88.3333 124.667 107.667 58 147 -10 c 1
 88 -10 l 1
 56 58.6667 39.6667 125.333 39 190 c 0
 38.3333 264.667 57.6667 326.333 97 375 c 0
 139 427.667 196.333 454.333 269 455 c 0
 309.667 455.667 347 445.333 381 424 c 0
 419 400 438.333 368.667 439 330 c 0
 439.667 282 418.333 247 375 225 c 1
 401 214.333 422.667 198.667 440 178 c 0
 459.333 155.333 469 131 469 105 c 0
EndSplineSet
EndChar
StartChar: uni0D27
Encoding: 3367 3367
Width: 793
Flags: HW
Fore
762 210 m 0
 762 151.333 744.667 100 710 56 c 0
 672 8.66667 624.333 -15 567 -15 c 0
 485.667 -15 427.333 11 392 63 c 1
 362 11 308.667 -15 232 -15 c 0
 173.333 -15 124.667 8.33333 86 55 c 0
 50.6667 98.3333 32.6667 150 32 210 c 0
 31.3333 321.333 75.6667 404.333 165 459 c 1
 197 418 l 1
 140.333 381.333 112 312 112 210 c 0
 112 168 122 130.667 142 98 c 0
 166 60 197.667 40.6667 237 40 c 0
 268.333 39.3333 295.333 49.8333 318 71.5 c 0
 340.667 93.1667 352 119.333 352 150 c 2
 352 450 l 1
 422 450 l 1
 422 150 l 2
 422 116 436.667 88.6667 466 68 c 0
 491.333 50 521.667 40.6667 557 40 c 0
 601 39.3333 637.667 56.3333 667 91 c 0
 696.333 125.667 711.333 165.333 712 210 c 0
 712.667 256.667 701.833 298.5 679.5 335.5 c 0
 657.167 372.5 625 399.333 583 416 c 1
 608 458 l 1
 654 440.667 691.167 409 719.5 363 c 0
 747.833 317 762 266 762 210 c 0
EndSplineSet
EndChar
StartChar: uni0D28
Encoding: 3368 3368
Width: 811
Flags: HW
Fore
780 220 m 0
 780 168 767 120.833 741 78.5 c 0
 715 36.1667 678.667 4 632 -18 c 1
 600 24 l 1
 662 57.3333 693.667 122.667 695 220 c 0
 695.667 263.333 685 302.667 663 338 c 0
 638.333 378.667 605.667 399.333 565 400 c 0
 530.333 400.667 500 389.5 474 366.5 c 0
 448 343.5 435 314.667 435 280 c 2
 435 -10 l 1
 365 -10 l 1
 365 280 l 2
 365 314 352.667 342.333 328 365 c 0
 303.333 387.667 274 399.333 240 400 c 0
 194 400.667 155.333 382 124 344 c 0
 95.3333 308.667 80.6667 267.333 80 220 c 0
 79.3333 126.667 126 61.6667 220 25 c 1
 195 -17 l 1
 143.667 1.66667 103.333 33 74 77 c 0
 44.6667 121 30 170.333 30 225 c 0
 30 287 50.5 340.667 91.5 386 c 0
 132.5 431.333 183.667 454.333 245 455 c 0
 317.667 455.667 371 428.333 405 373 c 1
 435 427 491.667 454.333 575 455 c 0
 630.333 455.667 678.333 433.167 719 387.5 c 0
 759.667 341.833 780 286 780 220 c 0
EndSplineSet
EndChar
StartChar: uni0D2A
Encoding: 3370 3370
Width: 785
Flags: HW
Fore
719 -10 m 1
 229 -10 l 1
 229 39 l 1
 257.667 43 280 56.3333 296 79 c 0
 311.333 99.6667 319 125 319 155 c 0
 319 187 307 214 283 236 c 0
 259 258 231 269.333 199 270 c 0
 164.333 270.667 135 257.833 111 231.5 c 0
 87 205.167 74.6667 174.667 74 140 c 0
 73.3333 84.6667 96.6667 46.3333 144 25 c 1
 118 -20 l 1
 55.3333 17.3333 24 72.3333 24 145 c 0
 24 196.333 42 239.833 78 275.5 c 0
 114 311.167 157.667 329.333 209 330 c 0
 260.333 330.667 304.667 313.5 342 278.5 c 0
 379.333 243.5 398.333 200.667 399 150 c 0
 399.667 104.667 386 68 358 40 c 1
 649 40 l 1
 649 450 l 1
 719 450 l 1
 719 -10 l 1
EndSplineSet
EndChar
StartChar: uni0D2B
Encoding: 3371 3371
Width: 1004
Flags: HW
Fore
954 -10 m 1
 249 -10 l 1
 249 36 l 1
 283.667 48 307 73 319 111 c 0
 321.667 120.333 323.333 133.333 324 150 c 0
 324.667 181.333 313.5 208.167 290.5 230.5 c 0
 267.5 252.833 240.333 264.333 209 265 c 0
 171.667 265.667 139.833 252.667 113.5 226 c 0
 87.1667 199.333 74 167.333 74 130 c 0
 74 84 95 47 137 19 c 1
 119 -18 l 1
 89 -6 65.3333 14.6667 48 44 c 0
 32.6667 70.6667 24.6667 101 24 135 c 0
 23.3333 187.667 40.8333 233.333 76.5 272 c 0
 112.167 310.667 156.333 330 209 330 c 0
 261 330 306.333 313.333 345 280 c 0
 384.333 244.667 404 201.333 404 150 c 0
 404 102 392.333 65.3333 369 40 c 1
 569 40 l 1
 569 220 l 2
 569 279.333 585.333 332 618 378 c 0
 654.667 429.333 701.667 455 759 455 c 0
 816.333 455 863.667 432.333 901 387 c 0
 936.333 344.333 954 293.667 954 235 c 2
 954 -10 l 1
904 40 m 1
 904 240 l 2
 904 280.667 892.667 316.667 870 348 c 0
 845.333 382 813.333 399.333 774 400 c 0
 731.333 400.667 697.333 380.667 672 340 c 0
 650 304.667 639 264.667 639 220 c 2
 639 40 l 1
 904 40 l 1
EndSplineSet
EndChar
StartChar: uni0D2C
Encoding: 3372 3372
Width: 1157
Flags: HW
Fore
1092 -10 m 1
 637 -10 l 1
 637 36 l 1
 675.667 54 706 80.1667 728 114.5 c 0
 750 148.833 761.333 187.333 762 230 c 0
 762.667 274.667 748.833 314 720.5 348 c 0
 692.167 382 656 399.333 612 400 c 0
 580.667 400.667 553.667 388.833 531 364.5 c 0
 508.333 340.167 497 312 497 280 c 2
 497 -10 l 1
 427 -10 l 1
 427 280 l 2
 427 316.667 410.667 346.333 378 369 c 0
 348.667 389 315 399.333 277 400 c 0
 222.333 400.667 176.5 382.833 139.5 346.5 c 0
 102.5 310.167 83.3333 264.667 82 210 c 1
 83 202 l 1
 107.667 246.667 145.667 269.333 197 270 c 0
 236.333 270.667 269.333 257.333 296 230 c 0
 322.667 202.667 336.333 169.333 337 130 c 0
 337.667 90 323.667 56 295 28 c 0
 266.333 0 232 -14.3333 192 -15 c 0
 137.333 -15.6667 95.6667 9.33333 67 60 c 0
 44.3333 100.667 32.6667 150.667 32 210 c 0
 31.3333 278.667 56 336.667 106 384 c 0
 154 430.667 212.667 454.333 282 455 c 0
 357.333 455.667 417 425.667 461 365 c 1
 497.667 425 553 455 627 455 c 0
 687.667 455 738.667 432.833 780 388.5 c 0
 821.333 344.167 842 291.333 842 230 c 0
 842 142.667 816.333 79.3333 765 40 c 1
 1022 40 l 1
 1022 450 l 1
 1092 450 l 1
 1092 -10 l 1
257 125 m 0
 257.667 148.333 250.5 169.167 235.5 187.5 c 0
 220.5 205.833 202.667 215 182 215 c 0
 160 215 142.167 205.667 128.5 187 c 0
 114.833 168.333 107.667 147.667 107 125 c 0
 106.333 102.333 113 82.6667 127 66 c 0
 141 49.3333 159.333 40.6667 182 40 c 0
 204 39.3333 222 48.3333 236 67 c 0
 249.333 83.6667 256.333 103 257 125 c 0
EndSplineSet
EndChar
StartChar: uni0D2D
Encoding: 3373 3373
Width: 497
Flags: HW
Fore
473 100 m 0
 473 70 464 44.6667 446 24 c 0
 426.667 1.33333 402.333 -10 373 -10 c 2
 163 -10 l 1
 163 40 l 1
 343 40 l 2
 369.667 40 383 53.3333 383 80 c 0
 383 100 373.333 110 354 110 c 1
 316 106 l 1
 296 101 l 1
 273 100 l 2
 241 98.6667 213.167 108.833 189.5 130.5 c 0
 165.833 152.167 153.667 178.667 153 210 c 0
 152.333 240 161.5 265.5 180.5 286.5 c 0
 199.5 307.5 223.667 318.667 253 320 c 1
 287 310 l 1
 311 306 l 1
 333 305 l 2
 354.333 304.333 366 314.333 368 335 c 1
 368 356.333 353.333 373 324 385 c 0
 301.333 395 277.667 400 253 400 c 0
 203 400.667 162.333 379.333 131 336 c 0
 102.333 296.667 88 251.333 88 200 c 0
 88 115.333 112 45.3333 160 -10 c 1
 98 -10 l 1
 58 47.3333 38 117.333 38 200 c 0
 38 275.333 58.6667 336.5 100 383.5 c 0
 141.333 430.5 199 454.333 273 455 c 0
 317.667 455.667 357 443 391 417 c 0
 428.333 389 447.333 353.333 448 310 c 0
 448 290.667 442.667 274.333 432 261 c 0
 421.333 247.667 406.667 240.667 388 240 c 0
 372.667 239.333 353.333 243.333 330 252 c 0
 316.667 256 304.333 258.667 293 260 c 0
 278.333 260 264.667 255.333 252 246 c 0
 239.333 236.667 233 224.667 233 210 c 0
 233 170.667 251.333 150.667 288 150 c 0
 307.333 149.333 328.667 155.667 352 169 c 1
 368 174 l 1
 403 175 l 2
 422.333 175.667 438.833 168.167 452.5 152.5 c 0
 466.167 136.833 473 119.333 473 100 c 0
EndSplineSet
EndChar
StartChar: uni0D2E
Encoding: 3374 3374
Width: 574
Flags: HW
Fore
527 -10 m 1
 47 -10 l 1
 47 230 l 2
 47 294 70 347.5 116 390.5 c 0
 162 433.5 217.333 455 282 455 c 0
 349.333 455 407 434.333 455 393 c 0
 503 351.667 527 302.333 527 245 c 2
 527 -10 l 1
477 40 m 1
 477 240 l 2
 477 287.333 458 328 420 362 c 0
 382.667 394 340 410 292 410 c 0
 270 410 249.333 407 230 401 c 1
 266.667 392.333 296.167 372.833 318.5 342.5 c 0
 340.833 312.167 352 278 352 240 c 0
 352.667 161.333 327.667 94.6667 277 40 c 1
 477 40 l 1
272 240 m 0
 272.667 270.667 265.333 298 250 322 c 0
 233.333 349.333 210.667 363.667 182 365 c 1
 154.667 354.333 133.667 336.667 119 312 c 0
 104.333 287.333 97 260 97 230 c 2
 97 40 l 1
 188 40 l 1
 242.667 86 270.667 152.667 272 240 c 0
EndSplineSet
EndChar
StartChar: uni0D2F
Encoding: 3375 3375
Width: 887
Flags: HW
Fore
853 255 m 0
 853 174.333 829.833 109.333 783.5 60 c 0
 737.167 10.6667 673.667 -14.3333 593 -15 c 0
 557 -15 516.667 -5 472 15 c 1
 418 -5 361.667 -15 303 -15 c 0
 227.667 -15 163.167 12 109.5 66 c 0
 55.8333 120 28.6667 184.667 28 260 c 0
 27.3333 312 44.3333 357.5 79 396.5 c 0
 113.667 435.5 156.667 455 208 455 c 0
 254.667 455 294 432.667 326 388 c 0
 336.667 374 345.667 357.667 353 339 c 1
 365.667 371.667 386.5 399.167 415.5 421.5 c 0
 444.5 443.833 477 455 513 455 c 0
 560.333 455 601 436 635 398 c 0
 667 360.667 683 318 683 270 c 0
 683 175.333 636.333 101 543 47 c 1
 561.667 43 590 40.6667 628 40 c 0
 680.667 39.3333 723.667 61.6667 757 107 c 0
 787 148.333 802.333 196 803 250 c 0
 803.667 322 778.667 380.667 728 426 c 1
 769 458 l 1
 825 412 853 344.333 853 255 c 0
603 255 m 0
 603.667 289 595.667 319.667 579 347 c 0
 560.333 378.333 535 394.333 503 395 c 0
 466.333 395.667 436.667 378.333 414 343 c 0
 394 313 383.667 278.667 383 240 c 0
 382.333 172.667 414.667 118 480 76 c 1
 517.333 90.6667 547 114 569 146 c 0
 591 178 602.333 214.333 603 255 c 0
411 52 m 1
 348.333 96 309 159.667 293 243 c 0
 286.333 278.333 276 309.333 262 336 c 0
 242.667 374.667 219.667 394.333 193 395 c 0
 160.333 395.667 133.333 381 112 351 c 0
 93.3333 324.333 83.6667 294 83 260 c 0
 82.3333 196 107.333 142 158 98 c 0
 206 56 262.667 35 328 35 c 0
 355.333 35 383 40.6667 411 52 c 1
EndSplineSet
EndChar
StartChar: uni0D30
Encoding: 3376 3376
Width: 578
Flags: HW
Fore
549 190 m 0
 549.667 134.667 534.333 86.6667 503 46 c 0
 471.667 5.33333 433.667 -15 389 -15 c 0
 341.667 -15 303 7.33333 273 52 c 0
 247.667 90.6667 234.667 135 234 185 c 0
 233.333 273 267 338.333 335 381 c 1
 320.333 389.667 300 394.333 274 395 c 0
 221.333 395.667 176.667 376.5 140 337.5 c 0
 103.333 298.5 84.6667 252.667 84 200 c 0
 83.3333 118.667 108.667 57 160 15 c 1
 119 -18 l 1
 63 27.3333 34.6667 96.6667 34 190 c 0
 33.3333 262 57 324.167 105 376.5 c 0
 153 428.833 212.667 455 284 455 c 0
 358.667 455 421.333 429.5 472 378.5 c 0
 522.667 327.5 548.333 264.667 549 190 c 0
469 195 m 0
 469 249.667 439 300.667 379 348 c 1
 316.333 309.333 284.667 256.667 284 190 c 0
 283.333 155.333 290.333 123.333 305 94 c 0
 323 58.6667 347.667 40.6667 379 40 c 0
 408.333 39.3333 431.667 58.6667 449 98 c 0
 462.333 129.333 469 161.667 469 195 c 0
EndSplineSet
EndChar
StartChar: uni0D31
Encoding: 3377 3377
Width: 510
Flags: HW
Fore
481 220 m 0
 481.667 166.667 467.667 118.833 439 76.5 c 0
 410.333 34.1667 371.333 3 322 -17 c 1
 287 34 l 1
 363 78 401 140 401 220 c 0
 401 266 385 306.5 353 341.5 c 0
 321 376.5 282 394.333 236 395 c 0
 191.333 395.667 154 377.333 124 340 c 0
 96 306 81.6667 266 81 220 c 0
 80.3333 133.333 121 66 203 18 c 1
 168 -18 l 1
 125.333 5.33333 92 38.3333 68 81 c 0
 44 123.667 31.6667 170 31 220 c 0
 30.3333 283.333 51.1667 338.333 93.5 385 c 0
 135.833 431.667 188.333 455 251 455 c 0
 315 455 369.167 432 413.5 386 c 0
 457.833 340 480.333 284.667 481 220 c 0
EndSplineSet
EndChar
StartChar: uni0D32
Encoding: 3378 3378
Width: 771
Flags: HW
Fore
704 -10 m 1
 49 -10 l 1
 49 240 l 2
 49 298.667 67.8333 349 105.5 391 c 0
 143.167 433 191 454.333 249 455 c 0
 290.333 455.667 328 443.333 362 418 c 0
 394 394 418 362.333 434 323 c 0
 444 299 449 271.333 449 240 c 2
 449 155 l 1
 119 155 l 1
 119 40 l 1
 634 40 l 1
 634 450 l 1
 704 450 l 1
 704 -10 l 1
399 205 m 1
 399 240 l 2
 399 283.333 384.833 320.667 356.5 352 c 0
 328.167 383.333 292.333 399.333 249 400 c 0
 210.333 400.667 178.333 383.333 153 348 c 0
 130.333 316.667 119 280.667 119 240 c 2
 119 205 l 1
 399 205 l 1
EndSplineSet
EndChar
StartChar: uni0D33
Encoding: 3379 3379
Width: 559
Flags: HW
Fore
540 80 m 0
 540.667 45.3333 525 16 493 -8 c 0
 463.667 -29.3333 431 -40 395 -40 c 2
 125 -40 l 2
 109.667 -40 97.6667 -46 89 -58 c 0
 80.3333 -70 75.6667 -84 75 -100 c 0
 74.3333 -111.333 78 -120.833 86 -128.5 c 0
 94 -136.167 103.667 -140 115 -140 c 2
 530 -140 l 1
 530 -210 l 1
 125 -210 l 2
 93.6667 -210 67.6667 -199.5 47 -178.5 c 0
 26.3333 -157.5 15.6667 -131.333 15 -100 c 0
 14.3333 -70 24.1667 -44.1667 44.5 -22.5 c 0
 64.8333 -0.833333 90 10 120 10 c 2
 350 10 l 2
 374.667 10 396.333 15.3333 415 26 c 0
 437.667 39.3333 449.333 57.3333 450 80 c 0
 450.667 98 440.5 114.167 419.5 128.5 c 0
 398.5 142.833 373.667 150 345 150 c 2
 325 150 l 1
 325 200 l 1
 345 200 l 2
 365 200 381.333 209.667 394 229 c 0
 404 245 409.333 263.667 410 285 c 0
 410.667 316.333 395.5 343.167 364.5 365.5 c 0
 333.5 387.833 297 399.333 255 400 c 0
 205.667 400.667 163.667 385 129 353 c 0
 94.3333 321 76.3333 280.333 75 231 c 1
 80 182 l 1
 60 180 l 1
 60 215.333 71.3333 245.667 94 271 c 0
 116.667 296.333 145.333 309.333 180 310 c 0
 214 310.667 244.167 297.5 270.5 270.5 c 0
 296.833 243.5 310 211.667 310 175 c 0
 310 138.333 296.167 108.5 268.5 85.5 c 0
 240.833 62.5 208 50.6667 170 50 c 0
 126 49.3333 90 68.6667 62 108 c 0
 37.3333 143.333 25 184 25 230 c 0
 25 294.667 48.6667 348.333 96 391 c 0
 143.333 433.667 199.667 455 265 455 c 0
 321.667 455 372 441 416 413 c 0
 468 381 494.333 338.333 495 285 c 0
 495.667 243.667 479 210 445 184 c 1
 469.667 178 491.333 165.667 510 147 c 0
 529.333 126.333 539.333 104 540 80 c 0
230 180 m 0
 230.667 199.333 224 216.667 210 232 c 0
 196 247.333 181 255 165 255 c 0
 145.667 255 130.333 246 119 228 c 0
 110.333 213.333 105.667 195.667 105 175 c 0
 104.333 156.333 109.5 140.167 120.5 126.5 c 0
 131.5 112.833 146.333 105.667 165 105 c 0
 184.333 104.333 199.833 111.667 211.5 127 c 0
 223.167 142.333 229.333 160 230 180 c 0
EndSplineSet
EndChar
StartChar: uni0D34
Encoding: 3380 3380
Width: 507
Flags: HW
Fore
488 310 m 0
 488.667 271.333 474 236.333 444 205 c 0
 418.667 177.667 386 157 346 143 c 1
 350.667 125.667 353 109.667 353 95 c 0
 353.667 63 339.667 36.3333 311 15 c 0
 285.667 -4.33333 256.333 -14.3333 223 -15 c 0
 169.667 -15.6667 121.667 8.33333 79 57 c 1
 120 89 l 1
 149.333 53 182 35 218 35 c 0
 236.667 35 252 41.1667 264 53.5 c 0
 276 65.8333 282.333 81.3333 283 100 c 0
 283 103.333 277.667 115 267 135 c 1
 189.667 135 129.833 150.333 87.5 181 c 0
 45.1667 211.667 23.6667 254.667 23 310 c 0
 22.3333 359.333 38.3333 407.333 71 454 c 1
 139 413 l 1
 129 400.333 119.667 385.333 111 368 c 0
 105.667 354 103 338 103 320 c 0
 102.333 276 114.833 242 140.5 218 c 0
 166.167 194 201 181.667 245 181 c 1
 221 229.667 208.667 272.667 208 310 c 0
 207.333 348.667 220 382.333 246 411 c 0
 272 439.667 304.333 454.333 343 455 c 0
 386.333 455.667 421.167 442.5 447.5 415.5 c 0
 473.833 388.5 487.333 353.333 488 310 c 0
438 310 m 0
 438.667 333.333 431.333 354.167 416 372.5 c 0
 400.667 390.833 381.333 400 358 400 c 0
 337.333 400 319.833 392.833 305.5 378.5 c 0
 291.167 364.167 283.667 346.333 283 325 c 0
 282.333 288.333 295.667 243.667 323 191 c 1
 353.667 196.333 380.333 210 403 232 c 0
 425.667 254 437.333 280 438 310 c 0
EndSplineSet
EndChar
StartChar: uni0D35
Encoding: 3381 3381
Width: 829
Flags: HW
Fore
762 -10 m 1
 297 -10 l 1
 297 36 l 1
 331 49.3333 357 74.6667 375 112 c 0
 389.667 143.333 397 179.333 397 220 c 0
 397 266.667 382.333 307.333 353 342 c 0
 321.667 377.333 283 395 237 395 c 0
 189 395 150.333 373 121 329 c 0
 95 290.333 82 245.667 82 195 c 0
 82 111.667 123 54 205 22 c 1
 171 -18 l 1
 79 28 32.6667 100.667 32 200 c 0
 31.3333 264 49.6667 321.333 87 372 c 0
 128.333 427.333 180 455 242 455 c 0
 307.333 455 362.667 431.5 408 384.5 c 0
 453.333 337.5 476.333 281 477 215 c 0
 477.667 141.667 455.333 83.3333 410 40 c 1
 692 40 l 1
 692 450 l 1
 762 450 l 1
 762 -10 l 1
EndSplineSet
EndChar
StartChar: uni0D36
Encoding: 3382 3382
Width: 802
Flags: HW
Fore
771 205 m 0
 771.667 153 760 105.333 736 62 c 0
 708 10.6667 669.667 -15 621 -15 c 0
 580.333 -15 547.667 4 523 42 c 0
 502.333 74.6667 491.667 112.333 491 155 c 0
 490.333 242.333 526.667 311.333 600 362 c 1
 577.333 384 551 395 521 395 c 0
 477.667 395 443.333 373 418 329 c 0
 396.667 292.333 386 251 386 205 c 0
 386 152.333 374.333 104.667 351 62 c 0
 323 10.6667 284.667 -15 236 -15 c 0
 176.667 -15 127.667 6.66667 89 50 c 0
 50.3333 93.3333 31 145 31 205 c 0
 31 317.667 78.3333 402.333 173 459 c 1
 211 414 l 1
 145.667 368 112.333 296.667 111 200 c 0
 110.333 160.667 121 126 143 96 c 0
 167 62.6667 198 45.6667 236 45 c 0
 267.333 44.3333 292 63.3333 310 102 c 0
 324 132 331 164.667 331 200 c 0
 331.667 264.667 348.667 321.667 382 371 c 0
 420 427 469.667 455 531 455 c 0
 596.333 455 652.5 430.5 699.5 381.5 c 0
 746.5 332.5 770.333 273.667 771 205 c 0
686 190 m 0
 686 244.667 669 289 635 323 c 1
 573.667 285 542.333 227.333 541 150 c 0
 540.333 124 546.333 101 559 81 c 0
 573 57.6667 592 45.6667 616 45 c 0
 640 44.3333 658.333 63.6667 671 103 c 0
 681 131.667 686 160.667 686 190 c 0
EndSplineSet
EndChar
StartChar: uni0D37
Encoding: 3383 3383
Width: 1016
Flags: HW
Fore
948 -10 m 1
 248 -10 l 1
 248 38 l 1
 274 42 294 55.3333 308 78 c 0
 320.667 98 327.333 122 328 150 c 0
 328.667 184.667 315.667 213.667 289 237 c 0
 263.667 258.333 233.333 269.333 198 270 c 0
 163.333 270.667 134 257.833 110 231.5 c 0
 86 205.167 73.6667 174.667 73 140 c 0
 72.3333 84 95 46 141 26 c 1
 123 -20 l 1
 89 0.666667 64 24.3333 48 51 c 0
 32 77.6667 23.6667 107.333 23 140 c 0
 22.3333 192 40.6667 236.5 78 273.5 c 0
 115.333 310.5 160.333 329.333 213 330 c 0
 265 330.667 310.5 313.667 349.5 279 c 0
 388.5 244.333 408 201.333 408 150 c 0
 408 104 394.333 67.3333 367 40 c 1
 588 40 l 1
 588 230 l 1
 568 230 l 2
 532.667 230 502.333 240.5 477 261.5 c 0
 451.667 282.5 438.667 310.333 438 345 c 0
 437.333 375.667 447 401.5 467 422.5 c 0
 487 443.5 512.333 454.333 543 455 c 0
 581 455.667 610.333 440.333 631 409 c 0
 649 382.333 658 349.333 658 310 c 2
 658 281 l 1
 744 293 829 349.333 913 450 c 1
 948 450 l 1
 948 -10 l 1
878 40 m 1
 878 329 l 1
 815.333 281.667 742 249 658 231 c 1
 658 40 l 1
 878 40 l 1
588 280 m 1
 588 310 l 2
 588 330 584 349 576 367 c 0
 565.333 389 551 400 533 400 c 0
 507.667 400 494.333 380 493 340 c 0
 492.333 321.333 501.333 306 520 294 c 0
 535.333 284.667 553 280 573 280 c 2
 588 280 l 1
EndSplineSet
EndChar
StartChar: uni0D38
Encoding: 3384 3384
Width: 1106
Flags: HW
Fore
1075 220 m 0
 1075 158 1055.67 104 1017 58 c 0
 976.333 9.33333 925.667 -15 865 -15 c 0
 807 -15 761 5 727 45 c 0
 695.667 82.3333 680 130.667 680 190 c 2
 680 280 l 2
 680 314 667.833 342.333 643.5 365 c 0
 619.167 387.667 589.667 399.333 555 400 c 0
 521.667 400.667 493.333 389.167 470 365.5 c 0
 446.667 341.833 435 313.333 435 280 c 2
 435 -10 l 1
 365 -10 l 1
 365 280 l 2
 365 314.667 352 343.667 326 367 c 0
 300.667 388.333 270.333 399.333 235 400 c 0
 189.667 400.667 152 381.667 122 343 c 0
 94 307.667 80 266.667 80 220 c 0
 80 174.667 91.1667 135 113.5 101 c 0
 135.833 67 168 41.6667 210 25 c 1
 185 -18 l 1
 137.667 4.66667 100.167 36.3333 72.5 77 c 0
 44.8333 117.667 30.6667 163.667 30 215 c 0
 29.3333 279.667 50.3333 336.333 93 385 c 0
 133.667 431.667 184.333 455 245 455 c 0
 279 455 310.5 447.333 339.5 432 c 0
 368.5 416.667 390.333 395.333 405 368 c 1
 419.667 395.333 442.333 417 473 433 c 0
 501.667 447.667 532.333 455 565 455 c 0
 620.333 455 665 438 699 404 c 0
 733 370 750 325.333 750 270 c 2
 750 190 l 2
 750 152 760.333 118.333 781 89 c 0
 803.667 57 833.333 40.6667 870 40 c 0
 915.333 39.3333 953 58.3333 983 97 c 0
 1010.33 132.333 1024.33 173.333 1025 220 c 0
 1025.67 261.333 1014.5 299.333 991.5 334 c 0
 968.5 368.667 936.667 396 896 416 c 1
 921 458 l 1
 967 436.667 1004.17 404.167 1032.5 360.5 c 0
 1060.83 316.833 1075 270 1075 220 c 0
EndSplineSet
EndChar
StartChar: uni0D39
Encoding: 3385 3385
Width: 1018
Flags: HW
Fore
990 220 m 0
 990.667 168 976.333 120.667 947 78 c 0
 919.667 38.6667 881.667 6.66667 833 -18 c 1
 795 29 l 1
 867.667 70.3333 904.333 130.667 905 210 c 0
 905.667 260.667 890.5 304.167 859.5 340.5 c 0
 828.5 376.833 790.333 395 745 395 c 0
 698.333 395 660 373.667 630 331 c 0
 604 293 590.667 249.333 590 200 c 0
 589.333 131.333 624.333 75 695 31 c 1
 695 -10 l 1
 255 -10 l 1
 255 39 l 1
 277.667 41 294.667 55 306 81 c 0
 315.333 101 320 124 320 150 c 0
 320 184 308.5 212.333 285.5 235 c 0
 262.5 257.667 234 269.333 200 270 c 0
 165.333 270.667 136 257.833 112 231.5 c 0
 88 205.167 75.6667 174.667 75 140 c 0
 74.3333 88 96 47.3333 140 18 c 1
 113 -19 l 1
 83 2.33333 61 26.1667 47 52.5 c 0
 33 78.8333 25.6667 108 25 140 c 0
 24.3333 192.667 41.8333 238.333 77.5 277 c 0
 113.167 315.667 157.333 335 210 335 c 0
 261.333 335 305.833 317 343.5 281 c 0
 381.167 245 400 201.333 400 150 c 0
 400 104 391.667 67.3333 375 40 c 1
 609 40 l 1
 563 88 540 144.667 540 210 c 0
 540 275.333 560 331.667 600 379 c 0
 642.667 429.667 696 455 760 455 c 0
 824 455 878.167 432 922.5 386 c 0
 966.833 340 989.333 284.667 990 220 c 0
EndSplineSet
EndChar
StartChar: uni0D3E
Encoding: 3390 3390
Width: 422
Flags: HW
Fore
388 220 m 0
 388.667 151.333 372.167 95.1667 338.5 51.5 c 0
 304.833 7.83333 259.667 -14.3333 203 -15 c 0
 146.333 -15.6667 102.667 3 72 41 c 0
 43.3333 75.6667 28.6667 122 28 180 c 1
 78 180 l 1
 78 144.667 86.3333 114.333 103 89 c 0
 122.333 60.3333 149 45.6667 183 45 c 0
 224.333 44.3333 255.667 64 277 104 c 0
 294.333 136 303 174.667 303 220 c 0
 303 266 294.667 304.667 278 336 c 0
 256.667 375.333 225 395 183 395 c 0
 147.667 395 120.667 379 102 347 c 0
 86.6667 320.333 78.6667 288 78 250 c 1
 28 250 l 1
 28 310 42 358.333 70 395 c 0
 100.667 435 145 455 203 455 c 0
 263.667 455 310.667 430 344 380 c 0
 372.667 337.333 387.333 284 388 220 c 0
EndSplineSet
EndChar
StartChar: uni0D3F
Encoding: 3391 3391
Width: 283
Flags: HW
Fore
157 -10 m 1
 87 -10 l 1
 87 530 l 2
 87 556 80.3333 580 67 602 c 0
 51 627.333 31 640 7 640 c 0
 -21 640 -43 622.667 -59 588 c 0
 -71 562 -77.3333 532.667 -78 500 c 1
 -128 500 l 1
 -128 554 -118.333 598.333 -99 633 c 0
 -74.3333 677 -37.3333 699.333 12 700 c 0
 54.6667 700.667 90 682.667 118 646 c 0
 144 612.667 157 574 157 530 c 2
 157 -10 l 1
EndSplineSet
EndChar
StartChar: uni0D40
Encoding: 3392 3392
Width: 289
Flags: HW
Fore
145 -10 m 1
 75 -10 l 1
 75 550 l 2
 75 579.333 67 605.5 51 628.5 c 0
 35 651.5 13 663.667 -15 665 c 1
 -32 664 l 1
 2 644.667 19.3333 615 20 575 c 0
 20.6667 546.333 10.6667 521.833 -10 501.5 c 0
 -30.6667 481.167 -55.6667 470.667 -85 470 c 0
 -114.333 469.333 -138.167 480 -156.5 502 c 0
 -174.833 524 -184.333 550 -185 580 c 0
 -185.667 616.667 -170.5 649.167 -139.5 677.5 c 0
 -108.5 705.833 -70.3333 720 -25 720 c 0
 22.3333 720 62.5 703.5 95.5 670.5 c 0
 128.5 637.5 145 597.333 145 550 c 2
 145 -10 l 1
-60 575 m 0
 -59.3333 589 -63.1667 601.333 -71.5 612 c 0
 -79.8333 622.667 -90.6667 628.667 -104 630 c 1
 -128 620 -140 601.667 -140 575 c 0
 -140 563 -137 551.667 -131 541 c 0
 -125 530.333 -116.333 525 -105 525 c 0
 -95 525 -84.3333 530 -73 540 c 1
 -65 550 -60.6667 561.667 -60 575 c 0
EndSplineSet
EndChar
StartChar: uni0D41
Encoding: 3393 3393
Width: 456
Flags: HW
Fore
392 -120 m 0
 392 -178 372.333 -228.167 333 -270.5 c 0
 293.667 -312.833 245 -334.333 187 -335 c 0
 131.667 -335.667 83.8333 -315 43.5 -273 c 0
 3.16667 -231 -17.3333 -180 -18 -120 c 0
 -18.6667 -71.3333 -0.333333 -28 37 10 c 0
 71 44 113 67 163 79 c 1
 182 241 l 1
 187 300 l 2
 188.333 316.667 179.833 332.333 161.5 347 c 0
 143.167 361.667 118.667 372 88 378 c 1
 121 451 l 1
 155.667 451 185.333 439.5 210 416.5 c 0
 234.667 393.5 247 364.667 247 330 c 1
 240 283 l 1
 237 239 l 1
 213 78 l 1
 263 68 304.667 45.3333 338 10 c 0
 374 -27.3333 392 -70.6667 392 -120 c 0
280 -246 m 0
 313.333 -221.333 330.667 -183.667 332 -133 c 0
 333.333 -87 316 -48.6667 280 -18 c 0
 254.667 4 223.667 15.3333 187 16 c 0
 153.667 16.6667 123 5.33333 95 -18 c 0
 63 -44.6667 47 -81 47 -127 c 0
 47 -155.667 52.8333 -181 64.5 -203 c 0
 76.1667 -225 93.6667 -243 117 -257 c 0
 140.333 -271 165 -278 191 -278 c 0
 221.667 -278 251.333 -267.333 280 -246 c 0
EndSplineSet
EndChar
StartChar: uni0D42
Encoding: 3394 3394
Width: 480
Flags: HW
Fore
405 -120 m 0
 405 -178 385.333 -228.167 346 -270.5 c 0
 306.667 -312.833 258 -334.333 200 -335 c 0
 144.667 -335.667 96.8333 -315 56.5 -273 c 0
 16.1667 -231 -4.33333 -180 -5 -120 c 0
 -5.66667 -71.3333 12.6667 -28 50 10 c 0
 84 44 126 67 176 79 c 1
 195 241 l 1
 200 300 l 2
 201.333 316.667 192.833 332.333 174.5 347 c 0
 156.167 361.667 131.667 372 101 378 c 1
 134 451 l 1
 168.667 451 198.333 439.5 223 416.5 c 0
 247.667 393.5 260 364.667 260 330 c 1
 253 283 l 1
 250 239 l 1
 226 78 l 1
 276 68 317.667 45.3333 351 10 c 0
 387 -27.3333 405 -70.6667 405 -120 c 0
285 -50 m 0
 285.667 -29.3333 277.167 -10.8333 259.5 5.5 c 0
 241.833 21.8333 222 30 200 30 c 0
 174.667 30 153 23 135 9 c 0
 115 -5.66667 105 -25.3333 105 -50 c 0
 105 -74 114.667 -93.3333 134 -108 c 0
 153.333 -122.667 175.333 -130 200 -130 c 0
 223.333 -130 243.167 -122.5 259.5 -107.5 c 0
 275.833 -92.5 284.333 -73.3333 285 -50 c 0
350 -120 m 2
 350 -97 l 1
 347 -85 l 1
 347 -81 346.833 -78.1667 346.5 -76.5 c 0
 346.167 -74.8333 344 -69.3333 340 -60 c 1
 340 -70 l 2
 340 -107.333 326.167 -138.333 298.5 -163 c 0
 270.833 -187.667 238 -200 200 -200 c 0
 161.333 -200 128 -188.333 100 -165 c 0
 70 -139.667 55 -108 55 -70 c 0
 55 -46 60.6667 -27.3333 72 -14 c 1
 85 -29 l 1
 77 -33.6667 68.3333 -44.6667 59 -62 c 1
 53 -78 50 -97.3333 50 -120 c 0
 50 -160 64.8333 -193.167 94.5 -219.5 c 0
 124.167 -245.833 159.333 -259.333 200 -260 c 0
 240.667 -260.667 275.833 -247.167 305.5 -219.5 c 0
 335.167 -191.833 350 -158.667 350 -120 c 2
EndSplineSet
EndChar
StartChar: uni0D43
Encoding: 3395 3395
Width: 342
Flags: HW
Fore
314 35 m 0
 314.667 -20.3333 302 -74.3333 276 -127 c 0
 244.667 -191.667 204 -224.333 154 -225 c 0
 106.667 -225.667 66.6667 -190.333 34 -119 c 0
 7.33333 -59.6667 -6 -3.33333 -6 50 c 0
 -6 87.3333 -0.333333 124 11 160 c 0
 27 209.333 49.6667 234.333 79 235 c 0
 122.333 235.667 157.333 197 184 119 c 0
 204 59.6667 214 3.33333 214 -50 c 0
 214 -76 211.667 -97 207 -113 c 1
 235 -76.3333 249 -22 249 50 c 0
 249 85.3333 245.333 116.333 238 143 c 0
 236 152.333 233.333 162 230 172 c 2
 188 297 l 2
 178.667 325 174 349.333 174 370 c 2
 174 490 l 1
 244 490 l 1
 244 370 l 2
 244 325.333 258.667 263 288 183 c 0
 304.667 137 313.333 87.6667 314 35 c 0
164 -20 m 0
 164.667 18.6667 157 60 141 104 c 0
 126.333 144 110.667 164.333 94 165 c 0
 79.3333 165.667 68.3333 149.333 61 116 c 0
 56.3333 94.6667 54 72.6667 54 50 c 0
 53.3333 18.6667 59.6667 -18 73 -60 c 0
 89.6667 -113.333 110 -140 134 -140 c 0
 147.333 -140 156.333 -117 161 -71 c 0
 162.333 -56.3333 163.333 -39.3333 164 -20 c 0
EndSplineSet
EndChar
StartChar: uni0D46
Encoding: 3398 3398
Width: 571
Flags: HW
Fore
540 200 m 0
 540 108 504.667 35 434 -19 c 1
 389 28 l 1
 411.667 40.6667 429.167 63 441.5 95 c 0
 453.833 127 460 167 460 215 c 0
 460 266.333 440.5 309 401.5 343 c 0
 362.5 377 317 394.333 265 395 c 0
 212.333 395.667 168.333 376.833 133 338.5 c 0
 97.6667 300.167 80 254.667 80 202 c 1
 85 167 l 1
 65 167 l 1
 69 198.333 84.3333 224 111 244 c 0
 137.667 264 167.333 274.333 200 275 c 0
 240 275.667 274 261.667 302 233 c 0
 330 204.333 344.333 170 345 130 c 0
 345.667 89.3333 331.167 55 301.5 27 c 0
 271.833 -1 236.333 -15 195 -15 c 0
 149 -15 110 5.66667 78 47 c 0
 46 88.3333 30 139.333 30 200 c 0
 30 270.667 54.8333 330.833 104.5 380.5 c 0
 154.167 430.167 214.333 455 285 455 c 0
 355.667 455 415.833 430.167 465.5 380.5 c 0
 515.167 330.833 540 270.667 540 200 c 0
265 130 m 0
 265.667 153.333 258.333 174.167 243 192.5 c 0
 227.667 210.833 208.333 220 185 220 c 0
 161 220 141.833 211.167 127.5 193.5 c 0
 113.167 175.833 105.667 154.667 105 130 c 0
 104.333 106 111.5 85.1667 126.5 67.5 c 0
 141.5 49.8333 161 40.6667 185 40 c 0
 209 39.3333 228.167 48 242.5 66 c 0
 256.833 84 264.333 105.333 265 130 c 0
EndSplineSet
EndChar
StartChar: uni0D47
Encoding: 3399 3399
Width: 479
Flags: HW
Fore
450 110 m 0
 450.667 67.3333 432.333 35 395 13 c 0
 364.333 -5 326 -14.3333 280 -15 c 0
 205.333 -15.6667 145.167 4.83333 99.5 46.5 c 0
 53.8333 88.1667 30.6667 146 30 220 c 0
 29.3333 293.333 52.6667 351.333 100 394 c 0
 145.333 434 205.333 454.333 280 455 c 0
 323.333 455.667 359 447.333 387 430 c 0
 421.667 410 439.333 380 440 340 c 0
 440.667 310.667 430 286.833 408 268.5 c 0
 386 250.167 360 240.667 330 240 c 0
 300.667 239.333 275 246.667 253 262 c 0
 227.667 279.333 215 302 215 330 c 0
 215 351.333 222 370.833 236 388.5 c 0
 250 406.167 267.667 415 289 415 c 1
 288 395 l 1
 250 400 l 1
 207.333 400 172.667 380 146 340 c 0
 122.667 305.333 110.667 265.333 110 220 c 0
 109.333 174 120.667 134 144 100 c 0
 170 61.3333 205 41.3333 249 40 c 1
 260 41 l 1
 237.333 57 225.667 78.3333 225 105 c 0
 224.333 133.667 237.333 157 264 175 c 0
 288 191 315 199.333 345 200 c 0
 371 200.667 394.833 192.167 416.5 174.5 c 0
 438.167 156.833 449.333 135.333 450 110 c 0
390 345 m 0
 390.667 354.333 386.5 363.167 377.5 371.5 c 0
 368.5 379.833 357.667 384.333 345 385 c 0
 332.333 385.667 320.833 381.5 310.5 372.5 c 0
 300.167 363.5 295 352.667 295 340 c 0
 295 330 300 319.333 310 308 c 1
 320 300 331.667 295.667 345 295 c 0
 355 294.333 365.667 299.333 377 310 c 1
 385 320 389.333 331.667 390 345 c 0
400 105 m 0
 400.667 115 395.667 125.667 385 137 c 1
 375 145 363.333 149.333 350 150 c 0
 338 150.667 327.667 146.333 319 137 c 0
 310.333 127.667 305.667 117 305 105 c 0
 304.333 93.6667 308.833 83.5 318.5 74.5 c 0
 328.167 65.5 338.667 60.6667 350 60 c 0
 363.333 59.3333 374.833 63.3333 384.5 72 c 0
 394.167 80.6667 399.333 91.6667 400 105 c 0
EndSplineSet
EndChar
StartChar: uni0D48
Encoding: 3400 3400
Width: 1079
Flags: HW
Fore
1074 200 m 0
 1074 108 1038.67 35 968 -19 c 1
 923 28 l 1
 945.667 40.667 963.167 63 975.5 95 c 0
 987.833 127 994 167 994 215 c 0
 994 266.333 974.5 309 935.5 343 c 0
 896.5 377 851 394.333 799 395 c 0
 746.333 395.667 702.333 376.833 667 338.5 c 0
 631.667 300.167 614 254.667 614 202 c 1
 619 167 l 1
 599 167 l 1
 603 198.333 618.333 224 645 244 c 0
 671.667 264 701.333 274.333 734 275 c 0
 774 275.667 808 261.667 836 233 c 0
 864 204.333 878.333 170 879 130 c 0
 879.667 89.333 865.167 55 835.5 27 c 0
 805.833 -1 770.333 -15 729 -15 c 0
 683 -15 644 5.66699 612 47 c 0
 580 88.333 564 139.333 564 200 c 0
 564 270.667 588.833 330.833 638.5 380.5 c 0
 688.167 430.167 748.333 455 819 455 c 0
 889.667 455 949.833 430.167 999.5 380.5 c 0
 1049.17 330.833 1074 270.667 1074 200 c 0
799 130 m 0
 799.667 153.333 792.333 174.167 777 192.5 c 0
 761.667 210.833 742.333 220 719 220 c 0
 695 220 675.833 211.167 661.5 193.5 c 0
 647.167 175.833 639.667 154.667 639 130 c 0
 638.333 106 645.5 85.167 660.5 67.5 c 0
 675.5 49.833 695 40.667 719 40 c 0
 743 39.333 762.167 48 776.5 66 c 0
 790.833 84 798.333 105.333 799 130 c 0
540 200 m 0
 540 108 504.667 35 434 -19 c 1
 389 28 l 1
 411.667 40.6667 429.167 63 441.5 95 c 0
 453.833 127 460 167 460 215 c 0
 460 266.333 440.5 309 401.5 343 c 0
 362.5 377 317 394.333 265 395 c 0
 212.333 395.667 168.333 376.833 133 338.5 c 0
 97.6667 300.167 80 254.667 80 202 c 1
 85 167 l 1
 65 167 l 1
 69 198.333 84.3333 224 111 244 c 0
 137.667 264 167.333 274.333 200 275 c 0
 240 275.667 274 261.667 302 233 c 0
 330 204.333 344.333 170 345 130 c 0
 345.667 89.3333 331.167 55 301.5 27 c 0
 271.833 -1 236.333 -15 195 -15 c 0
 149 -15 110 5.66667 78 47 c 0
 46 88.3333 30 139.333 30 200 c 0
 30 270.667 54.8333 330.833 104.5 380.5 c 0
 154.167 430.167 214.333 455 285 455 c 0
 355.667 455 415.833 430.167 465.5 380.5 c 0
 515.167 330.833 540 270.667 540 200 c 0
265 130 m 0
 265.667 153.333 258.333 174.167 243 192.5 c 0
 227.667 210.833 208.333 220 185 220 c 0
 161 220 141.833 211.167 127.5 193.5 c 0
 113.167 175.833 105.667 154.667 105 130 c 0
 104.333 106 111.5 85.1667 126.5 67.5 c 0
 141.5 49.8333 161 40.6667 185 40 c 0
 209 39.3333 228.167 48 242.5 66 c 0
 256.833 84 264.333 105.333 265 130 c 0
EndSplineSet
EndChar
StartChar: uni0D4A
Encoding: 3402 3402
Width: 1673
Flags: HW
Fore
1663 220 m 4
 1663.67 151.333 1647.17 95.167 1613.5 51.5 c 4
 1579.83 7.83301 1534.67 -14.333 1478 -15 c 4
 1421.33 -15.667 1377.67 3 1347 41 c 4
 1318.33 75.667 1303.67 122 1303 180 c 5
 1353 180 l 5
 1353 144.667 1361.33 114.333 1378 89 c 4
 1397.33 60.333 1424 45.667 1458 45 c 4
 1499.33 44.333 1530.67 64 1552 104 c 4
 1569.33 136 1578 174.667 1578 220 c 4
 1578 266 1569.67 304.667 1553 336 c 4
 1531.67 375.333 1500 395 1458 395 c 4
 1422.67 395 1395.67 379 1377 347 c 4
 1361.67 320.333 1353.67 288 1353 250 c 5
 1303 250 l 5
 1303 310 1317 358.333 1345 395 c 4
 1375.67 435 1420 455 1478 455 c 4
 1538.67 455 1585.67 430 1619 380 c 4
 1647.67 337.333 1662.33 284 1663 220 c 4
540 200 m 0
 540 108 504.667 35 434 -19 c 1
 389 28 l 1
 411.667 40.6667 429.167 63 441.5 95 c 0
 453.833 127 460 167 460 215 c 0
 460 266.333 440.5 309 401.5 343 c 0
 362.5 377 317 394.333 265 395 c 0
 212.333 395.667 168.333 376.833 133 338.5 c 0
 97.6667 300.167 80 254.667 80 202 c 1
 85 167 l 1
 65 167 l 1
 69 198.333 84.3333 224 111 244 c 0
 137.667 264 167.333 274.333 200 275 c 0
 240 275.667 274 261.667 302 233 c 0
 330 204.333 344.333 170 345 130 c 0
 345.667 89.3333 331.167 55 301.5 27 c 0
 271.833 -1 236.333 -15 195 -15 c 0
 149 -15 110 5.66667 78 47 c 0
 46 88.3333 30 139.333 30 200 c 0
 30 270.667 54.8333 330.833 104.5 380.5 c 0
 154.167 430.167 214.333 455 285 455 c 0
 355.667 455 415.833 430.167 465.5 380.5 c 0
 515.167 330.833 540 270.667 540 200 c 0
265 130 m 0
 265.667 153.333 258.333 174.167 243 192.5 c 0
 227.667 210.833 208.333 220 185 220 c 0
 161 220 141.833 211.167 127.5 193.5 c 0
 113.167 175.833 105.667 154.667 105 130 c 0
 104.333 106 111.5 85.1667 126.5 67.5 c 0
 141.5 49.8333 161 40.6667 185 40 c 0
 209 39.3333 228.167 48 242.5 66 c 0
 256.833 84 264.333 105.333 265 130 c 0
EndSplineSet
EndChar
StartChar: uni0D4B
Encoding: 3403 3403
Width: 479
Flags: HW
Fore
1663 220 m 4
 1663.67 151.333 1647.17 95.167 1613.5 51.5 c 4
 1579.83 7.83301 1534.67 -14.333 1478 -15 c 4
 1421.33 -15.667 1377.67 3 1347 41 c 4
 1318.33 75.667 1303.67 122 1303 180 c 5
 1353 180 l 5
 1353 144.667 1361.33 114.333 1378 89 c 4
 1397.33 60.333 1424 45.667 1458 45 c 4
 1499.33 44.333 1530.67 64 1552 104 c 4
 1569.33 136 1578 174.667 1578 220 c 4
 1578 266 1569.67 304.667 1553 336 c 4
 1531.67 375.333 1500 395 1458 395 c 4
 1422.67 395 1395.67 379 1377 347 c 4
 1361.67 320.333 1353.67 288 1353 250 c 5
 1303 250 l 5
 1303 310 1317 358.333 1345 395 c 4
 1375.67 435 1420 455 1478 455 c 4
 1538.67 455 1585.67 430 1619 380 c 4
 1647.67 337.333 1662.33 284 1663 220 c 4
450 110 m 0
 450.667 67.3333 432.333 35 395 13 c 0
 364.333 -5 326 -14.3333 280 -15 c 0
 205.333 -15.6667 145.167 4.83333 99.5 46.5 c 0
 53.8333 88.1667 30.6667 146 30 220 c 0
 29.3333 293.333 52.6667 351.333 100 394 c 0
 145.333 434 205.333 454.333 280 455 c 0
 323.333 455.667 359 447.333 387 430 c 0
 421.667 410 439.333 380 440 340 c 0
 440.667 310.667 430 286.833 408 268.5 c 0
 386 250.167 360 240.667 330 240 c 0
 300.667 239.333 275 246.667 253 262 c 0
 227.667 279.333 215 302 215 330 c 0
 215 351.333 222 370.833 236 388.5 c 0
 250 406.167 267.667 415 289 415 c 1
 288 395 l 1
 250 400 l 1
 207.333 400 172.667 380 146 340 c 0
 122.667 305.333 110.667 265.333 110 220 c 0
 109.333 174 120.667 134 144 100 c 0
 170 61.3333 205 41.3333 249 40 c 1
 260 41 l 1
 237.333 57 225.667 78.3333 225 105 c 0
 224.333 133.667 237.333 157 264 175 c 0
 288 191 315 199.333 345 200 c 0
 371 200.667 394.833 192.167 416.5 174.5 c 0
 438.167 156.833 449.333 135.333 450 110 c 0
390 345 m 0
 390.667 354.333 386.5 363.167 377.5 371.5 c 0
 368.5 379.833 357.667 384.333 345 385 c 0
 332.333 385.667 320.833 381.5 310.5 372.5 c 0
 300.167 363.5 295 352.667 295 340 c 0
 295 330 300 319.333 310 308 c 1
 320 300 331.667 295.667 345 295 c 0
 355 294.333 365.667 299.333 377 310 c 1
 385 320 389.333 331.667 390 345 c 0
400 105 m 0
 400.667 115 395.667 125.667 385 137 c 1
 375 145 363.333 149.333 350 150 c 0
 338 150.667 327.667 146.333 319 137 c 0
 310.333 127.667 305.667 117 305 105 c 0
 304.333 93.6667 308.833 83.5 318.5 74.5 c 0
 328.167 65.5 338.667 60.6667 350 60 c 0
 363.333 59.3333 374.833 63.3333 384.5 72 c 0
 394.167 80.6667 399.333 91.6667 400 105 c 0
EndSplineSet
EndChar
StartChar: uni0D4C
Encoding: 3404 3404
Width: 522
Flags: HW
Fore
491 220 m 2
 491 154 469 98.5 425 53.5 c 0
 381 8.5 326.333 -14.3333 261 -15 c 0
 213 -15.6667 169.333 7.33333 130 54 c 1
 163 86 l 1
 185 52 216 35 256 35 c 0
 298 35 334.333 51.8333 365 85.5 c 0
 395.667 119.167 411 159 411 205 c 2
 411 225 l 2
 411 273.667 402.167 314.833 384.5 348.5 c 0
 366.833 382.167 345.667 399.333 321 400 c 0
 304.333 400.667 291 393.5 281 378.5 c 0
 271 363.5 266 347.333 266 330 c 2
 266 170 l 1
 196 170 l 1
 196 330 l 2
 196 346.667 191.5 362.5 182.5 377.5 c 0
 173.5 392.5 161.333 400 146 400 c 0
 123.333 400 105.333 388.333 92 365 c 0
 82 346.333 76.6667 324.667 76 300 c 0
 75.3333 259.333 88.3333 222.667 115 190 c 1
 81 156 l 1
 45 194 26.6667 242 26 300 c 0
 25.3333 337.333 35 371.333 55 402 c 0
 77 436.667 105.667 454.333 141 455 c 0
 181.667 455.667 212 440 232 408 c 1
 252 438.667 281.667 454.333 321 455 c 0
 365.667 455.667 405.167 434.5 439.5 391.5 c 0
 473.833 348.5 491 298 491 240 c 2
 491 220 l 2
EndSplineSet
EndChar
StartChar: uni0D4D
Encoding: 3405 3405
Width: 2
Flags: HW
Fore
171 585 m 0
 171 548.333 152 518.333 114 495 c 0
 80.6667 475 44.6667 465 6 465 c 0
 -43.3333 465 -84.6667 475.833 -118 497.5 c 0
 -151.333 519.167 -168.333 545 -169 575 c 0
 -169.667 603.667 -155.333 633 -126 663 c 1
 -63 621 l 1
 -79.6667 607 -88.3333 593.333 -89 580 c 0
 -89.6667 560 -78.3333 544.667 -55 534 c 0
 -36.3333 525.333 -16 520.667 6 520 c 0
 30.6667 519.333 53 524.667 73 536 c 0
 97.6667 548.667 110.333 566.333 111 589 c 0
 111 594.333 108.667 600 104 606 c 0
 99.3333 612 91.3333 617.667 80 623 c 1
 120 663 l 1
 154 643 171 617 171 585 c 0
EndSplineSet
EndChar
StartChar: uni0D57
Encoding: 3415 3415
Width: 522
Flags: HW
Fore
491 220 m 2
 491 154 469 98.5 425 53.5 c 0
 381 8.5 326.333 -14.3333 261 -15 c 0
 213 -15.6667 169.333 7.33333 130 54 c 1
 163 86 l 1
 185 52 216 35 256 35 c 0
 298 35 334.333 51.8333 365 85.5 c 0
 395.667 119.167 411 159 411 205 c 2
 411 225 l 2
 411 273.667 402.167 314.833 384.5 348.5 c 0
 366.833 382.167 345.667 399.333 321 400 c 0
 304.333 400.667 291 393.5 281 378.5 c 0
 271 363.5 266 347.333 266 330 c 2
 266 170 l 1
 196 170 l 1
 196 330 l 2
 196 346.667 191.5 362.5 182.5 377.5 c 0
 173.5 392.5 161.333 400 146 400 c 0
 123.333 400 105.333 388.333 92 365 c 0
 82 346.333 76.6667 324.667 76 300 c 0
 75.3333 259.333 88.3333 222.667 115 190 c 1
 81 156 l 1
 45 194 26.6667 242 26 300 c 0
 25.3333 337.333 35 371.333 55 402 c 0
 77 436.667 105.667 454.333 141 455 c 0
 181.667 455.667 212 440 232 408 c 1
 252 438.667 281.667 454.333 321 455 c 0
 365.667 455.667 405.167 434.5 439.5 391.5 c 0
 473.833 348.5 491 298 491 240 c 2
 491 220 l 2
EndSplineSet
EndChar
StartChar: uni0D59
Encoding: 3417 3417
Width: 409
Flags: HW
Fore
345 -10 m 1
 -5 -10 l 1
 -5 40 l 1
 275 40 l 1
 275 450 l 1
 345 450 l 1
 345 -10 l 1
EndSplineSet
EndChar
StartChar: uni0D5A
Encoding: 3418 3418
Width: 277
Flags: HW
Fore
330 -180 m 0
 330.667 -227.333 313.5 -266.667 278.5 -298 c 0
 243.5 -329.333 202.333 -345 155 -345 c 0
 109.667 -345 70.8333 -330.333 38.5 -301 c 0
 6.16667 -271.667 -10 -234.667 -10 -190 c 0
 -10 -152.667 6.33333 -120 39 -92 c 0
 49 -83.3333 54.3333 -67.6667 55 -45 c 0
 55 -35 47.6667 -27 33 -21 c 1
 56 41 l 1
 94.6667 13 114.333 -14 115 -40 c 0
 115.667 -77.3333 101 -108.333 71 -133 c 0
 51 -149.667 40.6667 -172 40 -200 c 0
 39.3333 -227.333 52 -249.667 78 -267 c 0
 100.667 -282.333 126.333 -290 155 -290 c 0
 184.333 -290 210 -279 232 -257 c 0
 254 -235 265 -209.333 265 -180 c 0
 265 -126 247.333 -78 212 -36 c 0
 160.667 25.3333 135 94 135 170 c 2
 135 450 l 1
 205 450 l 1
 205 170 l 2
 205 106.667 231 43.6667 283 -19 c 0
 313.667 -56.3333 329.333 -110 330 -180 c 0
EndSplineSet
EndChar
StartChar: uni0D5B
Encoding: 3419 3419
Width: 203
Flags: HW
Fore
635 -340 m 1
 510 -340 l 2
 379.333 -340 273.667 -304.667 193 -234 c 0
 107.667 -159.333 65 -58 65 70 c 2
 65 450 l 1
 135 450 l 1
 135 60 l 2
 135 -50 172.333 -136.667 247 -200 c 0
 317 -260 408 -290 520 -290 c 2
 635 -290 l 1
 635 -340 l 1
EndSplineSet
EndChar
StartChar: uni0D5E
Encoding: 3422 3422
Width: 2
Flags: HW
Fore
171 585 m 0
 171 548.333 152 518.333 114 495 c 0
 80.6667 475 44.6667 465 6 465 c 0
 -43.3333 465 -84.6667 475.833 -118 497.5 c 0
 -151.333 519.167 -168.333 545 -169 575 c 0
 -169.667 603.667 -155.333 633 -126 663 c 1
 -63 621 l 1
 -79.6667 607 -88.3333 593.333 -89 580 c 0
 -89.6667 560 -78.3333 544.667 -55 534 c 0
 -36.3333 525.333 -16 520.667 6 520 c 0
 30.6667 519.333 53 524.667 73 536 c 0
 97.6667 548.667 110.333 566.333 111 589 c 0
 111 594.333 108.667 600 104 606 c 0
 99.3333 612 91.3333 617.667 80 623 c 1
 120 663 l 1
 154 643 171 617 171 585 c 0
EndSplineSet
EndChar
StartChar: uni0D66
Encoding: 3430 3430
Width: 500
Flags: HW
Fore
218 -278 m 0
 218 -236 203 -215 173 -215 c 2
 121 -215 l 1
 121 -293.667 142 -333.667 184 -335 c 0
 194 -335 202.333 -329.667 209 -319 c 1
 215 -301 218 -287.333 218 -278 c 0
557 -217 m 1
 506 -217 l 2
 476 -217 461 -238 461 -280 c 0
 461 -295.333 464.167 -308.5 470.5 -319.5 c 0
 476.833 -330.5 485 -336.667 495 -338 c 1
 534.333 -338 555 -297.667 557 -217 c 1
397 -49 m 0
 413 -40.3333 438.333 -35.6667 473 -35 c 0
 493 -34.3333 511.333 -39.1667 528 -49.5 c 0
 544.667 -59.8333 559.667 -74.3333 573 -93 c 0
 597 -127.667 609 -163.667 609 -201 c 2
 609 -217 l 2
 609 -255 601.333 -288.333 586 -317 c 0
 567.333 -351.667 540.667 -369.333 506 -370 c 0
 456 -370.667 430.333 -339 429 -275 c 0
 428.333 -249.667 434.833 -228.667 448.5 -212 c 0
 462.167 -195.333 481.333 -187 506 -187 c 2
 557 -187 l 1
 557 -155.667 547 -128 527 -104 c 0
 507 -80 481.667 -68 451 -68 c 0
 427 -68 406.667 -76.6667 390 -94 c 0
 373.333 -111.333 365 -131.333 365 -154 c 2
 365 -368 l 1
 315 -368 l 1
 315 -146 l 2
 315 -132.667 312.667 -122 308 -114 c 0
 306 -110 299.667 -102.667 289 -92 c 0
 273 -75.3333 252.667 -66.6667 228 -66 c 0
 197.333 -65.3333 172 -77.1667 152 -101.5 c 0
 132 -125.833 121.667 -153.667 121 -185 c 1
 173 -185 l 2
 197 -185 216 -193.333 230 -210 c 1
 242 -228 248.333 -248.667 249 -272 c 0
 249.667 -297.333 243.333 -319.5 230 -338.5 c 0
 216.667 -357.5 197.667 -367.333 173 -368 c 0
 138.333 -368.667 111.333 -351 92 -315 c 0
 77.3333 -286.333 70 -253 70 -215 c 2
 70 -199 l 2
 70 -159 82.3333 -122.333 107 -89 c 0
 134.333 -52.3333 167.333 -33.6667 206 -33 c 0
 265.333 -32.3333 310.667 -53 342 -95 c 1
 352.667 -78.3333 371 -63 397 -49 c 0
EndSplineSet
EndChar
StartChar: 01
Encoding: 65545 -1
Width: 800
Flags: HW
Fore
770 220 m 0
 770 167.333 757 120.167 731 78.5 c 0
 705 36.8333 668.333 4.66667 621 -18 c 1
 596 24 l 1
 674 62 713.667 127.333 715 220 c 0
 715.667 264.667 701.833 304 673.5 338 c 0
 645.167 372 609 389.333 565 390 c 0
 508.333 390.667 471 357.667 453 291 c 0
 447.667 272.333 445 248.667 445 220 c 0
 444.333 154 429.333 100 400 58 c 0
 366 10 317.667 -14.3333 255 -15 c 0
 193 -15.6667 140 5.33333 96 48 c 0
 52 90.6667 30 143 30 205 c 0
 30 263 43 313.667 69 357 c 0
 97 403 137 436.333 189 457 c 1
 216 422 l 1
 175.333 402 143.5 373.667 120.5 337 c 0
 97.5 300.333 85.6667 259.667 85 215 c 0
 84.3333 170.333 98.1667 131.667 126.5 99 c 0
 154.833 66.3333 191 50 235 50 c 0
 279.667 50 313.333 68 336 104 c 0
 354.667 133.333 364.333 172 365 220 c 0
 365.667 284.667 379.333 338 406 380 c 0
 438 429.333 484.333 454.333 545 455 c 0
 606.333 455.667 659.167 433 703.5 387 c 0
 747.833 341 770 285.333 770 220 c 0
713 -212 m 0
 713.667 -248 704.5 -281 685.5 -311 c 0
 666.5 -341 641 -363.667 609 -379 c 1
 591 -349 l 1
 645 -324.333 672.667 -278.667 674 -212 c 0
 674.667 -180 665.167 -152.333 645.5 -129 c 0
 625.833 -105.667 600.333 -93.6667 569 -93 c 0
 540.333 -92.3333 518.333 -105.667 503 -133 c 0
 491.667 -154.333 485.667 -180.667 485 -212 c 0
 484.333 -258.667 474 -296.667 454 -326 c 0
 430.667 -358.667 396.667 -375.333 352 -376 c 0
 309.333 -376.667 272.667 -362 242 -332 c 0
 211.333 -302 195.667 -265.667 195 -223 c 0
 194.333 -183 203.667 -146.833 223 -114.5 c 0
 242.333 -82.1667 270 -59.3333 306 -46 c 1
 325 -71 l 1
 280.333 -93 251.667 -126 239 -170 c 0
 235 -183.333 233 -198.667 233 -216 c 0
 233 -247.333 242.833 -274.167 262.5 -296.5 c 0
 282.167 -318.833 307.333 -330.333 338 -331 c 0
 366 -331.667 388.167 -321.333 404.5 -300 c 0
 420.833 -278.667 429 -249.333 429 -212 c 0
 429 -167.333 438.667 -130 458 -100 c 0
 480 -65.3333 512.333 -48 555 -48 c 0
 600.333 -48 637.833 -64 667.5 -96 c 0
 697.167 -128 712.333 -166.667 713 -212 c 0
EndSplineSet
EndChar
StartChar: 02
Encoding: 65546 -1
Width: 1308
Flags: HW
Fore
1279 -10 m 1
 504 -10 l 1
 504 40 l 1
 784 40 l 2
 835.333 40 878 58.8333 912 96.5 c 0
 946 134.167 963.333 178.667 964 230 c 0
 964.667 274 950.667 312.167 922 344.5 c 0
 893.333 376.833 857.333 393.667 814 395 c 1
 791 393 l 1
 766 388 l 1
 818 351.333 844 305.333 844 250 c 0
 844 210 830.667 175.833 804 147.5 c 0
 777.333 119.167 744 105 704 105 c 0
 666.667 105 635.833 118.167 611.5 144.5 c 0
 587.167 170.833 574.667 202.667 574 240 c 0
 573.333 302 600.333 352 655 390 c 1
 637 393 l 1
 604 395 l 2
 568 397 535 385 505 359 c 0
 477.667 335 464 305.333 464 270 c 2
 464 -10 l 1
 394 -10 l 1
 394 280 l 2
 394 314 378.667 342 348 364 c 0
 320.667 384 289.333 394.333 254 395 c 0
 204.667 395.667 163.333 377.5 130 340.5 c 0
 96.6667 303.5 79.6667 260 79 210 c 1
 82 181 l 1
 62 182 l 1
 66.6667 209.333 80.6667 231 104 247 c 0
 125.333 261.667 150.333 269.333 179 270 c 0
 219 270.667 253.167 257.333 281.5 230 c 0
 309.833 202.667 324 169.333 324 130 c 0
 324 90 310.667 55.8333 284 27.5 c 0
 257.333 -0.833333 224 -15 184 -15 c 0
 131.333 -15 91 8.66667 63 56 c 0
 41 94.6667 29.6667 142.667 29 200 c 0
 28.3333 266.667 48.6667 325 90 375 c 0
 134 428.333 188.667 455 254 455 c 0
 290 455 323.667 448 355 434 c 0
 389.667 418 414.667 395.333 430 366 c 1
 470.667 424.667 528.667 454.333 604 455 c 0
 647.333 455.667 682.667 446.333 710 427 c 1
 741.333 445 776 454.333 814 455 c 0
 877.333 455.667 931.333 434.833 976 392.5 c 0
 1020.67 350.167 1043.33 297.667 1044 235 c 0
 1044.67 158.333 1017 95 961 45 c 1
 1209 45 l 1
 1209 450 l 1
 1279 450 l 1
 1279 -10 l 1
764 250 m 0
 764.667 294 742.667 330.333 698 359 c 1
 650 335 625.333 295.333 624 240 c 0
 623.333 218.667 629.5 200.167 642.5 184.5 c 0
 655.5 168.833 672.667 160.667 694 160 c 0
 716 159.333 733.667 169 747 189 c 0
 757.667 206.333 763.333 226.667 764 250 c 0
244 130 m 0
 244 152.667 237 173.333 223 192 c 0
 209 210.667 191 220 169 220 c 0
 147 220 129.167 210.667 115.5 192 c 0
 101.833 173.333 94.6667 152.667 94 130 c 0
 93.3333 106 99.8333 85.1667 113.5 67.5 c 0
 127.167 49.8333 145.667 40.6667 169 40 c 0
 199.667 39.3333 222.667 57.6667 238 95 c 0
 242 105 244 116.667 244 130 c 0
EndSplineSet
EndChar
StartChar: 03
Encoding: 65547 -1
Width: 1782
Flags: HW
Fore
239 125 m 0
 239 147.667 232.833 167.5 220.5 184.5 c 0
 208.167 201.5 191 210 169 210 c 0
 147.667 210 130.833 201.5 118.5 184.5 c 0
 106.167 167.5 99.6667 147.667 99 125 c 0
 98.3333 102.333 104.333 83 117 67 c 0
 129.667 49 147 40 169 40 c 0
 190.333 40 207.333 48.6667 220 66 c 0
 232.667 83.3333 239 103 239 125 c 0
827 365 m 1
 801.667 341.667 789 313.333 789 280 c 2
 789 -10 l 1
 719 -10 l 1
 719 280 l 2
 719 314 707.5 342.333 684.5 365 c 0
 661.5 387.667 633 399.333 599 400 c 0
 565.667 400.667 537.333 389.167 514 365.5 c 0
 490.667 341.833 479 313.333 479 280 c 2
 479 -10 l 1
 409 -10 l 1
 409 280 l 2
 409 316 394.333 345.333 365 368 c 0
 337.667 388.667 305.667 399.333 269 400 c 0
 218.333 400.667 174.833 382.667 138.5 346 c 0
 102.167 309.333 84 265.667 84 215 c 2
 84 180 l 1
 64 183 l 1
 70.6667 208.333 85 228.667 107 244 c 0
 127.667 257.333 151.667 264.333 179 265 c 0
 215.667 265.667 248.167 251.5 276.5 222.5 c 0
 304.833 193.5 319 159.333 319 120 c 0
 319 80.6667 305.5 48.3333 278.5 23 c 0
 251.5 -2.33333 218.333 -15 179 -15 c 0
 128.333 -15 90.3333 7.66667 65 53 c 0
 44.3333 89.6667 34 135.333 34 190 c 0
 34 266.667 53.6667 329 93 377 c 0
 135 429 193.667 455 269 455 c 0
 354.333 455 414.667 427 450 371 c 1
 490 427 539.667 455 599 455 c 0
 675 455 728.667 427 760 371 c 1
 778 397 802.333 417.333 833 432 c 1
 827 365 l 1
771 386 m 1
 811 432 859.333 455 916 455 c 0
 977.333 455 1027 439 1065 407 c 0
 1105.67 372.333 1126 325 1126 265 c 2
 1126 145 l 2
 1126 115.667 1136.83 91.8333 1158.5 73.5 c 0
 1180.17 55.1667 1206 45.6667 1236 45 c 0
 1270 44.3333 1298.5 56.3333 1321.5 81 c 0
 1344.5 105.667 1356 135.333 1356 170 c 2
 1356 450 l 1
 1426 450 l 1
 1426 170 l 2
 1426 135.333 1439.5 105.833 1466.5 81.5 c 0
 1493.5 57.1667 1526.67 45 1566 45 c 0
 1608.67 45 1644.33 61.6667 1673 95 c 0
 1701.67 128.333 1716 166.667 1716 210 c 0
 1716 254.667 1704.5 295.333 1681.5 332 c 0
 1658.5 368.667 1627 396.667 1587 416 c 1
 1612 458 l 1
 1659.33 437.333 1696.83 404.167 1724.5 358.5 c 0
 1752.17 312.833 1766 263.333 1766 210 c 0
 1766 151.333 1749.33 100.333 1716 57 c 0
 1680 9.66667 1633.33 -14.3333 1576 -15 c 0
 1490.67 -15.6667 1428 13 1388 71 c 1
 1374 43 1350.33 21 1317 5 c 0
 1287.67 -8.33333 1255.67 -15 1221 -15 c 0
 1173.67 -15 1132.67 0.833333 1098 32.5 c 0
 1063.33 64.1667 1046 103.333 1046 150 c 2
 1046 260 l 2
 1046 296.667 1035 329 1013 357 c 0
 991 385 962 399.333 926 400 c 0
 888.667 400.667 859 393.667 837 379 c 0
 825 371.667 815.667 361 809 347 c 1
 771 386 l 1
EndSplineSet
EndChar
StartChar: 04
Encoding: 65548 -1
Width: 1253
Flags: HW
Fore
239 125 m 0
 239 147.667 232.833 167.5 220.5 184.5 c 0
 208.167 201.5 191 210 169 210 c 0
 147.667 210 130.833 201.5 118.5 184.5 c 0
 106.167 167.5 99.6667 147.667 99 125 c 0
 98.3333 102.333 104.333 83 117 67 c 0
 129.667 49 147 40 169 40 c 0
 190.333 40 207.333 48.6667 220 66 c 0
 232.667 83.3333 239 103 239 125 c 0
1149 40 m 1
 1149 240 l 2
 1149 287.333 1130 328 1092 362 c 0
 1054.67 394 1012 410 964 410 c 0
 942 410 921.333 407 902 401 c 1
 938.667 392.333 968.167 372.833 990.5 342.5 c 0
 1012.83 312.167 1024 278 1024 240 c 0
 1024.67 161.333 999.667 94.6667 949 40 c 1
 1149 40 l 1
944 240 m 0
 944.667 270.667 937.333 298 922 322 c 0
 905.333 349.333 882.667 363.667 854 365 c 1
 826.667 354.333 805.667 336.667 791 312 c 0
 776.333 287.333 769 260 769 230 c 2
 769 40 l 1
 860 40 l 1
 914.667 86 942.667 152.667 944 240 c 0
719 280 m 2
 719 314 707.5 342.333 684.5 365 c 0
 661.5 387.667 633 399.333 599 400 c 0
 565.667 400.667 537.333 389.167 514 365.5 c 0
 490.667 341.833 479 313.333 479 280 c 2
 479 -10 l 1
 409 -10 l 1
 409 280 l 2
 409 316 394.333 345.333 365 368 c 0
 337.667 388.667 305.667 399.333 269 400 c 0
 218.333 400.667 174.833 382.667 138.5 346 c 0
 102.167 309.333 84 265.667 84 215 c 2
 84 180 l 1
 64 183 l 1
 70.6667 208.333 85 228.667 107 244 c 0
 127.667 257.333 151.667 264.333 179 265 c 0
 215.667 265.667 248.167 251.5 276.5 222.5 c 0
 304.833 193.5 319 159.333 319 120 c 0
 319 80.6667 305.5 48.3333 278.5 23 c 0
 251.5 -2.33333 218.333 -15 179 -15 c 0
 128.333 -15 90.3333 7.66667 65 53 c 0
 44.3333 89.6667 34 135.333 34 190 c 0
 34 266.667 53.6667 329 93 377 c 0
 135 429 193.667 455 269 455 c 0
 354.333 455 414.667 427 450 371 c 1
 490 427 539.667 455 599 455 c 0
 632.333 455 663.667 447.667 693 433 c 0
 725 417 748.667 395.333 764 368 c 1
 799.333 401.333 823 421.333 835 428 c 0
 867 446 910 455.333 964 456 c 0
 1022.67 456.667 1077 435.667 1127 393 c 0
 1175 352.333 1199 303 1199 245 c 2
 1199 -10 l 1
 719 -10 l 1
 719 280 l 2
EndSplineSet
EndChar
StartChar: 05
Encoding: 65549 -1
Width: 846
Flags: HW
Fore
768 280 m 0
 768 236.667 762 197.333 750 162 c 0
 734.667 116.667 711.333 85.3333 680 68 c 1
 734.667 26 762.333 -40 763 -130 c 0
 763.667 -186 748.5 -234.167 717.5 -274.5 c 0
 686.5 -314.833 650 -335 608 -335 c 0
 572 -335 543 -315.667 521 -277 c 0
 503 -244.333 493.667 -208.667 493 -170 c 0
 492.333 -88.6667 534 -18.6667 618 40 c 1
 592 52.6667 568.667 59.3333 548 60 c 0
 505.333 60.6667 469.667 40.3333 441 -1 c 0
 417.667 -34.3333 401.667 -74.6667 393 -122 c 0
 383.667 -172 365 -217.667 337 -259 c 0
 302.333 -309.667 262.667 -335 218 -335 c 0
 163.333 -335 118.167 -314.667 82.5 -274 c 0
 46.8333 -233.333 28.6667 -185.333 28 -130 c 0
 27.3333 -26.6667 59.3333 48.3333 124 95 c 1
 67.3333 135.667 38.6667 195.667 38 275 c 0
 37.3333 385 85 469.667 181 529 c 1
 207 494 l 1
 149 444 119.333 372.667 118 280 c 0
 117.333 240 126.333 203.333 145 170 c 0
 166.333 130.667 195.667 110.667 233 110 c 0
 261 109.333 286.333 134.667 309 186 c 0
 323.667 219.333 335 256.667 343 298 c 0
 353 352 375 399.333 409 440 c 0
 448.333 486.667 493 510 543 510 c 0
 606.333 510 659.667 487.5 703 442.5 c 0
 746.333 397.5 768 343.333 768 280 c 0
698 280 m 0
 698.667 335.333 680 378 642 408 c 1
 577.333 375.333 544.333 316 543 230 c 0
 542.333 202.667 547 177.667 557 155 c 0
 570.333 125.667 589 110.667 613 110 c 0
 641.667 109.333 664 131.667 680 177 c 0
 691.333 210.333 697.333 244.667 698 280 c 0
698 -120 m 0
 698 -74.6667 684 -32.3333 656 7 c 1
 582 -39 544.333 -99.6667 543 -175 c 0
 542.333 -200.333 548.333 -223.333 561 -244 c 0
 575 -267.333 594 -279.333 618 -280 c 0
 638.667 -280.667 657.167 -265 673.5 -233 c 0
 689.833 -201 698 -163.333 698 -120 c 0
605 441 m 1
 582.333 453 560 459.333 538 460 c 0
 501.333 460.667 469.333 440.667 442 400 c 0
 420.667 367.333 406 330 398 288 c 0
 388 232 370 183 344 141 c 0
 310 84.3333 269.667 55.6667 223 55 c 0
 203 55 184.667 59.3333 168 68 c 1
 144.667 48.6667 126.5 23.6667 113.5 -7 c 0
 100.5 -37.6667 93.6667 -75.3333 93 -120 c 0
 92.3333 -160.667 103.333 -197.333 126 -230 c 0
 151.333 -266 183.667 -284.333 223 -285 c 0
 255 -285.667 283 -262.667 307 -216 c 0
 322.333 -184 334 -147 342 -105 c 0
 351.333 -52.3333 372.333 -7.33333 405 30 c 0
 440.333 70.6667 483 95 533 103 c 1
 510.333 129.667 498.667 172 498 230 c 0
 497.333 322.667 533 393 605 441 c 1
EndSplineSet
EndChar
StartChar: 06
Encoding: 65550 -1
Width: 1294
Flags: HW
Fore
1176 -205 m 1
 446 -205 l 1
 446 -183 l 1
 961 -10 l 1
 666 -10 l 1
 666 35 l 1
 726 77.6667 756 142.667 756 230 c 0
 756 274 743 312 717 344 c 0
 689 378 653.667 395 611 395 c 0
 577 395 549 379.667 527 349 c 0
 506.333 321 496 289.667 496 255 c 2
 496 -10 l 1
 426 -10 l 1
 426 270 l 2
 426 308.667 408.333 339.667 373 363 c 0
 342.333 383.667 306.667 394.333 266 395 c 0
 216 395.667 172.333 374.333 135 331 c 0
 103.667 295 85.6667 243.333 81 176 c 2
 80 162 l 1
 71 171 l 1
 71 198.333 85.3333 222 114 242 c 0
 140.667 260.667 168 270 196 270 c 0
 233.333 270 264.333 256.167 289 228.5 c 0
 313.667 200.833 326 168 326 130 c 0
 326 89.3333 313.5 54.3333 288.5 25 c 0
 263.5 -4.33333 231 -19.3333 191 -20 c 0
 155.667 -20.6667 124.333 -7 97 21 c 0
 73 45 55 75.3333 43 112 c 0
 35 136 31 163.667 31 195 c 0
 31 266.333 54.1667 328.333 100.5 381 c 0
 146.833 433.667 205.333 460 276 460 c 0
 316.667 460 354 452.333 388 437 c 0
 427.333 419.667 455 394.667 471 362 c 1
 483 391.333 502.333 415 529 433 c 0
 555.667 451 584.667 460 616 460 c 0
 672 460 721 437.667 763 393 c 0
 805 348.333 826 294 826 230 c 0
 826 192.667 821 156.5 811 121.5 c 0
 801 86.5 787.333 59.3333 770 40 c 1
 1106 40 l 1
 1106 450 l 1
 1176 450 l 1
 1176 -205 l 1
1106 -155 m 1
 1106 -23 l 1
 715 -155 l 1
 1106 -155 l 1
256 135 m 0
 256 158.333 249.167 178.333 235.5 195 c 0
 221.833 211.667 203.667 220 181 220 c 0
 161 220 144.667 209.667 132 189 c 0
 122 171.667 116.667 152 116 130 c 0
 115.333 107.333 121 87.3333 133 70 c 0
 146.333 50.6667 164 40.6667 186 40 c 0
 208 39.3333 225.667 50 239 72 c 0
 250.333 91.3333 256 112.333 256 135 c 0
EndSplineSet
EndChar
StartChar: 07
Encoding: 65551 -1
Width: 1218
Flags: HW
Fore
1146 -150 m 0
 1146.67 -194 1136 -235.167 1114 -273.5 c 0
 1092 -311.833 1062.33 -341.667 1025 -363 c 1
 981 -319 l 1
 1037 -279 1065.33 -219.333 1066 -140 c 0
 1066.67 -95.3333 1052.83 -56 1024.5 -22 c 0
 996.167 12 960 29.3333 916 30 c 0
 884.667 30.6667 857.833 21.8333 835.5 3.5 c 0
 813.167 -14.8333 800 -39.3333 796 -70 c 1
 796 -350 l 1
 726 -350 l 1
 726 -75 l 2
 726 -43 713.667 -17 689 3 c 0
 666.333 21 638.667 30 606 30 c 0
 574 30 547 19.6667 525 -1 c 0
 503 -21.6667 490 -48 486 -80 c 1
 486 -350 l 1
 416 -350 l 1
 416 -80 l 2
 416 -44.6667 397.333 -16.6667 360 4 c 0
 329.333 20.6667 294.667 29.3333 256 30 c 0
 206.667 30.6667 165.333 12.3333 132 -25 c 0
 98.6667 -62.3333 81.6667 -110.333 81 -169 c 0
 81 -187 82.6667 -201.667 86 -213 c 1
 66 -215 l 1
 66 -179 77.8333 -148.5 101.5 -123.5 c 0
 125.167 -98.5 155 -85.6667 191 -85 c 0
 230.333 -84.3333 264.167 -97 292.5 -123 c 0
 320.833 -149 335.333 -181.333 336 -220 c 0
 336.667 -258 322.333 -289.833 293 -315.5 c 0
 263.667 -341.167 229.667 -354.333 191 -355 c 0
 144.333 -355.667 105.667 -336 75 -296 c 0
 46.3333 -260 31.6667 -218 31 -170 c 0
 30.3333 -86.6667 61.6667 -20.3333 125 29 c 1
 97 43.6667 74.5 66.8333 57.5 98.5 c 0
 40.5 130.167 31.6667 167.333 31 210 c 0
 30.3333 274.667 51.6667 331.5 95 380.5 c 0
 138.333 429.5 192 454.333 256 455 c 0
 292 455.667 328.333 448 365 432 c 0
 399.667 416.667 428 395.333 450 368 c 1
 467.333 394 490 415 518 431 c 0
 546 447 575.333 455 606 455 c 0
 673.333 455 726.667 426.333 766 369 c 1
 804.667 425.667 854.667 454.333 916 455 c 0
 977.333 455.667 1030.17 433 1074.5 387 c 0
 1118.83 341 1141 285.333 1141 220 c 0
 1141 182 1133 147.333 1117 116 c 0
 1099 81.3333 1074.33 55.6667 1043 39 c 1
 1075 21 1100.33 -6 1119 -42 c 0
 1136.33 -75.3333 1145.33 -111.333 1146 -150 c 0
1061 240 m 0
 1061 281.333 1047 317.333 1019 348 c 0
 991 378.667 956.667 394.333 916 395 c 0
 884 395.667 856 386.167 832 366.5 c 0
 808 346.833 796 321.333 796 290 c 2
 796 31 l 1
 828 67 868 85 916 85 c 0
 923.333 85 929.5 84.8333 934.5 84.5 c 0
 939.5 84.1667 948.833 82.6667 962.5 80 c 0
 976.167 77.3333 988.667 73 1000 67 c 1
 1040 100.333 1060.33 158 1061 240 c 0
726 31 m 1
 726 290 l 2
 726 320.667 713.333 346 688 366 c 0
 665.333 384.667 638 394.333 606 395 c 0
 572.667 395.667 544.333 384.833 521 362.5 c 0
 497.667 340.167 486 312.667 486 280 c 2
 486 34 l 1
 516 68 556 85 606 85 c 0
 628.667 85 650.5 80.3333 671.5 71 c 0
 692.5 61.6667 710.667 48.3333 726 31 c 1
416 30 m 1
 416 283 l 1
 412 313 394.167 339.167 362.5 361.5 c 0
 330.833 383.833 295.333 395 256 395 c 0
 207.333 395 166 378 132 344 c 0
 98 310 81 268.667 81 220 c 1
 86 171 l 1
 66 170 l 1
 66 202.667 77.8333 229.833 101.5 251.5 c 0
 125.167 273.167 153.333 284.333 186 285 c 0
 224 285.667 257.5 274.333 286.5 251 c 0
 315.5 227.667 330.333 197.333 331 160 c 0
 331.667 132.667 321.333 107 300 83 c 1
 348 79 386.667 61.3333 416 30 c 1
256 150 m 0
 256 173.333 248.5 193.167 233.5 209.5 c 0
 218.5 225.833 199.333 234.333 176 235 c 0
 154 235.667 136.167 227.167 122.5 209.5 c 0
 108.833 191.833 101.667 172 101 150 c 0
 100.333 127.333 107 107.667 121 91 c 0
 135 74.3333 153.333 65.6667 176 65 c 0
 198 64.3333 216.833 72.6667 232.5 90 c 0
 248.167 107.333 256 127.333 256 150 c 0
256 -220 m 0
 256.667 -199.333 250.333 -181 237 -165 c 0
 223.667 -149 206.667 -140.667 186 -140 c 0
 164 -139.333 146 -146.833 132 -162.5 c 0
 118 -178.167 111 -197.333 111 -220 c 0
 111 -242 118 -260.833 132 -276.5 c 0
 146 -292.167 164 -300 186 -300 c 0
 207.333 -300 224.333 -291.667 237 -275 c 0
 249 -260.333 255.333 -242 256 -220 c 0
EndSplineSet
EndChar
StartChar: 08
Encoding: 65552 -1
Width: 1155
Flags: HW
Fore
1076 -90 m 0
 1076 -152 1060 -207.333 1028 -256 c 0
 992 -311.333 944.667 -339.333 886 -340 c 0
 817.333 -340.667 764.333 -317.333 727 -270 c 0
 693.667 -227.333 676.667 -170.667 676 -100 c 0
 675.333 -47.3333 666.667 -6.83333 650 21.5 c 0
 633.333 49.8333 608.667 64.3333 576 65 c 0
 537.333 65.6667 504.333 52.8333 477 26.5 c 0
 449.667 0.166667 436 -32 436 -70 c 2
 436 -350 l 1
 366 -350 l 1
 366 -75 l 2
 366 -37.6667 350.667 -7.33333 320 16 c 0
 292 38 259 49.3333 221 50 c 0
 180.333 50.6667 147.667 30 123 -12 c 0
 102.333 -47.3333 91.6667 -86.6667 91 -130 c 0
 90.3333 -207.333 135.333 -271.333 226 -322 c 1
 200 -357 l 1
 151.333 -339 112.833 -308.333 84.5 -265 c 0
 56.1667 -221.667 41.6667 -173.333 41 -120 c 0
 40.3333 -35.3333 72.3333 34.3333 137 89 c 1
 103 108.333 77 135.5 59 170.5 c 0
 41 205.5 31.6667 245.333 31 290 c 0
 30.3333 349.333 49.6667 400.667 89 444 c 0
 128.333 487.333 177.333 509.333 236 510 c 0
 270.667 510.667 303 504.333 333 491 c 0
 366.333 476.333 390.667 455 406 427 c 1
 422.667 453 445.667 473.333 475 488 c 0
 504.333 502.667 538 510 576 510 c 0
 637.333 510 684.333 490 717 450 c 0
 745.667 413.333 760.333 363.333 761 300 c 0
 761.667 184.667 801.667 126.333 881 125 c 0
 923 124.333 957 143.667 983 183 c 0
 1005 216.333 1016 255.333 1016 300 c 0
 1016 388.667 979.667 454.333 907 497 c 1
 934 534 l 1
 974.667 509.333 1006.83 476 1030.5 434 c 0
 1054.17 392 1066 347.333 1066 300 c 0
 1066 252.667 1058.67 210 1044 172 c 0
 1032 140.667 1014.67 115 992 95 c 1
 1048 43 1076 -18.6667 1076 -90 c 0
1026 -100 m 0
 1026.67 -20 999.333 36.3333 944 69 c 1
 908 63 885.333 60 876 60 c 0
 778.667 60 716.333 104 689 192 c 0
 685 204.667 680.667 240.333 676 299 c 0
 672 343 660.667 376.333 642 399 c 0
 620 425.667 589.667 439.333 551 440 c 0
 520.333 440.667 493.5 431 470.5 411 c 0
 447.5 391 436 365.667 436 335 c 2
 436 63 l 1
 474.667 103.667 521.333 124.333 576 125 c 0
 638 125.667 685.333 103 718 57 c 0
 746 17.6667 760.333 -34.6667 761 -100 c 0
 761.667 -220 803.333 -280 886 -280 c 0
 928.667 -280 963.333 -260 990 -220 c 0
 1013.33 -185.333 1025.33 -145.333 1026 -100 c 0
366 71 m 1
 366 335 l 2
 366 363 352.667 387.333 326 408 c 0
 299.333 428.667 266 439.333 226 440 c 0
 186 440.667 152 425.833 124 395.5 c 0
 96 365.167 81.6667 330 81 290 c 0
 80.3333 212 114 153.667 182 115 c 1
 198.667 115.667 223.333 117.333 256 120 c 1
 298.667 120 335.333 103.667 366 71 c 1
EndSplineSet
EndChar
StartChar: 09
Encoding: 65553 -1
Width: 1363
Flags: HW
Fore
256 420 m 2
 256 420 265.333 420 284 420 c 0
 295.333 420 303 419.333 307 418 c 0
 317 417.333 328.667 413.333 342 406 c 1
 285.333 359.333 256.667 292.333 256 205 c 0
 255.333 153.667 267.333 106.667 292 64 c 0
 321.333 13.3333 360 -12 408 -12 c 0
 449.333 -12 481.333 12.6667 504 62 c 0
 521.333 100 530.333 142.333 531 189 c 0
 531.667 228.333 525.167 265.833 511.5 301.5 c 0
 497.833 337.167 478.333 366.667 453 390 c 1
 473 398 493.667 402 515 402 c 0
 547.667 402 574.167 392.667 594.5 374 c 0
 614.833 355.333 625 329.667 625 297 c 2
 625 -12 l 1
 701 -12 l 1
 701 328 l 2
 701 350.667 713.667 369.333 739 384 c 0
 761 396.667 784.333 403.333 809 404 c 0
 889.667 405.333 930.667 343.667 932 219 c 0
 932.667 162.333 944.667 112 968 68 c 0
 996 15.3333 1035.33 -11.3333 1086 -12 c 0
 1152.67 -12.6667 1206 12.6667 1246 64 c 0
 1282 110.667 1300 168.333 1300 237 c 0
 1300 285 1290 329 1270 369 c 0
 1248.67 411.667 1218 444.333 1178 467 c 1
 1173 468 l 2
 1172.33 468 1170.67 466.667 1168 464 c 0
 1163.33 462 1159.67 457.333 1157 450 c 0
 1153.67 442.667 1154 437.667 1158 435 c 0
 1187.33 413 1210.67 383.667 1228 347 c 0
 1243.33 312.333 1251.33 275.667 1252 237 c 0
 1252.67 181.667 1239 137.667 1211 105 c 0
 1181.67 69.6667 1140 51.6667 1086 51 c 0
 1058 50.3333 1035.33 70 1018 110 c 0
 1002 146 994 187.333 994 234 c 0
 994 288 982.333 336 959 378 c 0
 931 429.333 892 455.333 842 456 c 0
 757.333 456.667 700 426.333 670 365 c 1
 654 430.333 601.667 463.667 513 465 c 0
 497 465 485 464.333 477 463 c 0
 449.667 461.667 420.333 452.333 389 435 c 1
 379.667 439.667 370.333 443.667 361 447 c 2
 330 458 l 2
 313.333 464 293.667 467 271 467 c 0
 191.667 467 129.333 448.333 84 411 c 0
 35.3333 371 10.6667 312 10 234 c 0
 9.33333 177.333 25 125 57 77 c 0
 83.6667 37 118.667 7.33333 162 -12 c 1
 174 -11 l 2
 184.667 -9 191 -4 193 4 c 1
 110.333 86.6667 68.6667 164.333 68 237 c 0
 67.3333 288.333 86 331.667 124 367 c 0
 160 401.667 204 419.333 256 420 c 2
416 51 m 0
 382 50.3333 356.667 68.6667 340 106 c 0
 327.333 133.333 320.667 166.333 320 205 c 0
 319.333 274.333 346 327.667 400 365 c 1
 456.667 323 485.333 264.333 486 189 c 0
 486.667 97.6667 463.333 51.6667 416 51 c 0
EndSplineSet
EndChar
StartChar: 10
Encoding: 65554 -1
Width: 1363
Flags: HW
Fore
256 420 m 2
 256 420 265.333 420 284 420 c 0
 295.333 420 303 419.333 307 418 c 0
 317 417.333 328.667 413.333 342 406 c 1
 285.333 359.333 256.667 292.333 256 205 c 0
 255.333 153.667 267.333 106.667 292 64 c 0
 321.333 13.3333 360 -12 408 -12 c 0
 449.333 -12 481.333 12.6667 504 62 c 0
 521.333 100 530.333 142.333 531 189 c 0
 531.667 228.333 525.167 265.833 511.5 301.5 c 0
 497.833 337.167 478.333 366.667 453 390 c 1
 473 398 493.667 402 515 402 c 0
 547.667 402 574.167 392.667 594.5 374 c 0
 614.833 355.333 625 329.667 625 297 c 2
 625 -12 l 1
 701 -12 l 1
 701 328 l 2
 701 350.667 713.667 369.333 739 384 c 0
 761 396.667 784.333 403.333 809 404 c 0
 889.667 405.333 930.667 343.667 932 219 c 0
 932.667 162.333 944.667 112 968 68 c 0
 996 15.3333 1035.33 -11.3333 1086 -12 c 0
 1152.67 -12.6667 1206 12.6667 1246 64 c 0
 1282 110.667 1300 168.333 1300 237 c 0
 1300 285 1290 329 1270 369 c 0
 1248.67 411.667 1218 444.333 1178 467 c 1
 1173 468 l 2
 1172.33 468 1170.67 466.667 1168 464 c 0
 1163.33 462 1159.67 457.333 1157 450 c 0
 1153.67 442.667 1154 437.667 1158 435 c 0
 1187.33 413 1210.67 383.667 1228 347 c 0
 1243.33 312.333 1251.33 275.667 1252 237 c 0
 1252.67 181.667 1239 137.667 1211 105 c 0
 1181.67 69.6667 1140 51.6667 1086 51 c 0
 1058 50.3333 1035.33 70 1018 110 c 0
 1002 146 994 187.333 994 234 c 0
 994 288 982.333 336 959 378 c 0
 931 429.333 892 455.333 842 456 c 0
 757.333 456.667 700 426.333 670 365 c 1
 654 430.333 601.667 463.667 513 465 c 0
 497 465 485 464.333 477 463 c 0
 449.667 461.667 420.333 452.333 389 435 c 1
 379.667 439.667 370.333 443.667 361 447 c 2
 330 458 l 2
 313.333 464 293.667 467 271 467 c 0
 191.667 467 129.333 448.333 84 411 c 0
 35.3333 371 10.6667 312 10 234 c 0
 9.33333 177.333 25 125 57 77 c 0
 83.6667 37 118.667 7.33333 162 -12 c 1
 174 -11 l 2
 184.667 -9 191 -4 193 4 c 1
 110.333 86.6667 68.6667 164.333 68 237 c 0
 67.3333 288.333 86 331.667 124 367 c 0
 160 401.667 204 419.333 256 420 c 2
416 51 m 0
 382 50.3333 356.667 68.6667 340 106 c 0
 327.333 133.333 320.667 166.333 320 205 c 0
 319.333 274.333 346 327.667 400 365 c 1
 456.667 323 485.333 264.333 486 189 c 0
 486.667 97.6667 463.333 51.6667 416 51 c 0
EndSplineSet
EndChar
StartChar: 11
Encoding: 65555 -1
Width: 1042
Flags: HW
Fore
1011 225 m 0
 1011 159 991 102.333 951 55 c 0
 909 5.66667 855.667 -19.3333 791 -20 c 0
 719 -20.6667 665.333 16.6667 630 92 c 1
 608 54.6667 571.667 26 521 6 c 0
 477.667 -11.3333 431 -20 381 -20 c 0
 333.667 -20 291 -11.6667 253 5 c 0
 202.333 27 176.667 58.6667 176 100 c 0
 175.333 118.667 185 134 205 146 c 0
 222.333 155.333 241 160 261 160 c 1
 308 155 l 1
 341 150 l 1
 356.333 150 370.167 153.833 382.5 161.5 c 0
 394.833 169.167 401 180.333 401 195 c 0
 401 208.333 394.333 220 381 230 c 0
 367.667 240 352.667 245 336 245 c 2
 171 245 l 1
 171 295 l 1
 351 295 l 2
 373 295 384.667 310 386 340 c 0
 386.667 357.333 373.667 371.333 347 382 c 0
 327 390.667 306.667 395 286 395 c 0
 230 395.667 182.833 375.667 144.5 335 c 0
 106.167 294.333 86.6667 246 86 190 c 0
 85.3333 149.333 90 114.333 100 85 c 0
 110 55.6667 125 31 145 11 c 1
 111 -25 l 1
 61 33 36 104.667 36 190 c 0
 36 261.333 58.6667 323.333 104 376 c 0
 151.333 431.333 210.333 459.333 281 460 c 0
 320.333 460.667 356.667 451.667 390 433 c 0
 430 411 450.333 381.667 451 345 c 0
 451.667 319 440.667 294.667 418 272 c 1
 432.667 266 445.167 255.667 455.5 241 c 0
 465.833 226.333 471 209.333 471 190 c 0
 471 165.333 463.667 144.333 449 127 c 0
 434.333 109.667 415 100.667 391 100 c 0
 382.333 100 371 101.333 357 104 c 0
 337 108 326 110 324 110 c 2
 302 113 l 1
 281 115 l 2
 274.333 115 267.833 113.333 261.5 110 c 0
 255.167 106.667 251.667 101.667 251 95 c 0
 251 74.3333 268.667 59.3333 304 50 c 0
 327.333 43.3333 353 40 381 40 c 0
 430.333 40 476.667 50.3333 520 71 c 0
 574 96.3333 601 131 601 175 c 2
 601 450 l 1
 671 450 l 1
 671 165 l 2
 671 129.667 683.833 100.167 709.5 76.5 c 0
 735.167 52.8333 765.667 40.6667 801 40 c 0
 847 39.3333 885.667 59 917 99 c 0
 946.333 135.667 961 177.667 961 225 c 0
 961 267 948.667 305.333 924 340 c 0
 901.333 372.667 870.333 398.333 831 417 c 1
 864 458 l 1
 910 436 946 404.333 972 363 c 0
 998 321.667 1011 275.667 1011 225 c 0
EndSplineSet
EndChar
StartChar: 12
Encoding: 65556 -1
Width: 1143
Flags: HW
Fore
1086 210 m 0
 1086 147.333 1065.67 94.3333 1025 51 c 1
 1049 26.3333 1061 -7.33333 1061 -50 c 0
 1061 -102 1040.33 -145.333 999 -180 c 0
 960.333 -212.667 914.333 -229.333 861 -230 c 0
 813 -230.667 770.333 -219 733 -195 c 0
 695.667 -171 668.667 -137 652 -93 c 0
 642 -66.3333 625.333 -43.6667 602 -25 c 0
 581.333 -8.33333 561 -8.67362e-19 541 0 c 2
 525 0 l 1
 555 -24 570.333 -57.3333 571 -100 c 0
 571.667 -136.667 556.333 -168 525 -194 c 0
 496.333 -218 463.333 -230 426 -230 c 0
 388 -230 355.333 -217.667 328 -193 c 0
 300.667 -168.333 286.667 -137.333 286 -100 c 0
 285.333 -70 293.333 -42.6667 310 -18 c 0
 324 3.33333 344.333 18.6667 371 28 c 1
 371 270 l 2
 371 307.333 357 338.667 329 364 c 0
 301.667 387.333 269 399.333 231 400 c 0
 186.333 400.667 149.667 381.333 121 342 c 0
 95 306.667 81.6667 266 81 220 c 0
 79.6667 124 126.667 57.3333 222 20 c 1
 190 -22 l 1
 116.667 4.66667 67.3333 59 42 141 c 0
 34.6667 163.667 31 190 31 220 c 0
 30.3333 280.667 48 334 84 380 c 0
 122.667 430 171.667 455 231 455 c 0
 308.333 455 366.667 426.333 406 369 c 1
 424.667 396.333 447.5 417.333 474.5 432 c 0
 501.5 446.667 530.333 454.333 561 455 c 0
 619 455.667 666.667 432.333 704 385 c 0
 738.667 341 756 289.333 756 230 c 0
 756 185.333 765.667 144.667 785 108 c 0
 808.333 63.3333 840.333 40.6667 881 40 c 0
 924.333 39.3333 960.667 57 990 93 c 0
 1016.67 126.333 1030.33 165.333 1031 210 c 0
 1031.67 248.667 1020 286.667 996 324 c 0
 972 361.333 938.667 392.333 896 417 c 1
 929 459 l 1
 975.667 431.667 1013 397 1041 355 c 0
 1071 309.667 1086 261.333 1086 210 c 0
986 -50 m 0
 986.667 -26.6667 983.667 -5.33333 977 14 c 1
 951 -4.66667 919 -14.3333 881 -15 c 0
 821 -15.6667 771.667 10.6667 733 64 c 0
 699 112 681.667 167.333 681 230 c 0
 680.333 271.333 670.667 308.333 652 341 c 0
 629.333 379.667 599 399.333 561 400 c 0
 526.333 400.667 497.667 387.833 475 361.5 c 0
 452.333 335.167 441 304.667 441 270 c 2
 441 49 l 1
 458.333 53 485 55 521 55 c 0
 562.333 55 600.667 45 636 25 c 0
 674.667 3.66667 700.333 -25.3333 713 -62 c 0
 725 -95.3333 744.833 -122.333 772.5 -143 c 0
 800.167 -163.667 831.333 -174.333 866 -175 c 0
 900 -175.667 928.333 -163.5 951 -138.5 c 0
 973.667 -113.5 985.333 -84 986 -50 c 0
491 -95 m 0
 491 -73 484 -54.3333 470 -39 c 0
 456 -23.6667 438 -15.6667 416 -15 c 0
 394 -14.3333 375.333 -22 360 -38 c 0
 344.667 -54 336.667 -73 336 -95 c 0
 335.333 -117 343 -135.833 359 -151.5 c 0
 375 -167.167 394 -175 416 -175 c 0
 446.667 -175 469.667 -158.667 485 -126 c 0
 489 -117.333 491 -107 491 -95 c 0
EndSplineSet
EndChar
StartChar: 13
Encoding: 65557 -1
Width: 885
Flags: HW
Fore
793 -70 m 0
 793.667 -114.667 775.5 -154.167 738.5 -188.5 c 0
 701.5 -222.833 656.333 -240 603 -240 c 0
 557.667 -240 515.667 -227.333 477 -202 c 0
 438.333 -176.667 409 -142.333 389 -99 c 0
 376.333 -71 358.5 -48.6667 335.5 -32 c 0
 312.5 -15.3333 287 -6.33333 259 -5 c 1
 248 -6 l 1
 280.667 -32 297.333 -63.3333 298 -100 c 0
 298.667 -136.667 284 -167.5 254 -192.5 c 0
 224 -217.5 190.333 -230 153 -230 c 0
 115 -230 83 -217 57 -191 c 0
 31 -165 18 -133 18 -95 c 0
 18 -64.3333 26.3333 -38 43 -16 c 0
 59.6667 6 83.3333 22.6667 114 34 c 1
 60 76 33 141.333 33 230 c 0
 33 332 84 408 186 458 c 1
 219 417 l 1
 149 379 113.667 316.667 113 230 c 0
 112.333 184 122.333 142.667 143 106 c 0
 167 62.6667 200.333 40.6667 243 40 c 0
 275.667 39.3333 301.667 62.3333 321 109 c 0
 335.667 145.667 343 183 343 221 c 1
 348.333 281.667 368.333 334.333 403 379 c 0
 441.667 429 490 454.333 548 455 c 0
 614 455.667 670 431.333 716 382 c 0
 760 334 782.333 276.667 783 210 c 0
 783 179.333 778.167 150 768.5 122 c 0
 758.833 94 745.333 70.6667 728 52 c 1
 770.667 21.3333 792.333 -19.3333 793 -70 c 0
708 210 m 0
 708.667 251.333 691 294 655 338 c 1
 623.667 322 598.667 295.333 580 258 c 0
 562.667 224 553.667 188 553 150 c 0
 552.333 124.667 557.667 102 569 82 c 0
 581.667 57.3333 599.667 45 623 45 c 0
 651 45 673 66.6667 689 110 c 0
 701 142.667 707.333 176 708 210 c 0
713 -70 m 0
 713 -32 704.667 -3.66667 688 15 c 1
 668 -5 644.667 -15 618 -15 c 0
 586.667 -15 559.833 0.666667 537.5 32 c 0
 515.167 63.3333 503.667 102.667 503 150 c 0
 502.333 195.333 512.333 238 533 278 c 0
 553.667 318 582.667 349.333 620 372 c 1
 600 386.667 576 394.333 548 395 c 0
 506 395.667 470.667 374.333 442 331 c 0
 418.667 296.333 404 255.667 398 209 c 1
 398 176.333 392.667 144 382 112 c 0
 370 75.3333 353.333 47.3333 332 28 c 1
 388.667 3.33333 427 -29.6667 447 -71 c 0
 482.333 -145.667 534.333 -183.667 603 -185 c 0
 633 -185.667 658.833 -174.333 680.5 -151 c 0
 702.167 -127.667 713 -100.667 713 -70 c 0
218 -95 m 0
 218 -71 210.667 -50.8333 196 -34.5 c 0
 181.333 -18.1667 162 -10 138 -10 c 0
 116 -10 98.3333 -19.6667 85 -39 c 0
 74.3333 -56.3333 68.6667 -76.6667 68 -100 c 0
 67.3333 -120 73.8333 -137.333 87.5 -152 c 0
 101.167 -166.667 118 -174.333 138 -175 c 0
 158 -175.667 176.333 -168 193 -152 c 0
 209.667 -136 218 -117 218 -95 c 0
EndSplineSet
EndChar
StartChar: 14
Encoding: 65558 -1
Width: 509
Flags: HW
Fore
480 230 m 0
 480.667 193.333 473 158.167 457 124.5 c 0
 441 90.8333 419.667 63 393 41 c 1
 439.667 7.66667 463.667 -49.3333 465 -130 c 0
 465.667 -174 453.333 -215.833 428 -255.5 c 0
 402.667 -295.167 367.667 -325.667 323 -347 c 1
 285 -309 l 1
 318.333 -287 343.167 -260.333 359.5 -229 c 0
 375.833 -197.667 384.333 -164.667 385 -130 c 0
 385.667 -89.3333 373.333 -52.6667 348 -20 c 0
 322.667 12.6667 290 29.3333 250 30 c 0
 206.667 30.6667 170.333 13 141 -23 c 0
 114.333 -56.3333 100.667 -95.3333 100 -140 c 0
 99.3333 -216.667 136 -270.333 210 -301 c 1
 185 -343 l 1
 96.3333 -301 51.3333 -233.333 50 -140 c 0
 49.3333 -74.6667 71.3333 -19.6667 116 25 c 1
 59.3333 83.6667 30.6667 145.333 30 210 c 0
 29.3333 274.667 49.3333 331 90 379 c 0
 132.667 429.667 186 455 250 455 c 0
 312.667 455 366.5 433.167 411.5 389.5 c 0
 456.5 345.833 479.333 292.667 480 230 c 0
395 230 m 0
 395.667 274.667 381.167 313.333 351.5 346 c 0
 321.833 378.667 284.667 395 240 395 c 0
 193.333 395 154.667 375.333 124 336 c 0
 95.3333 300 80.6667 258 80 210 c 0
 79.3333 152 102.667 101.333 150 58 c 1
 178.667 78.6667 215.333 89.3333 260 90 c 0
 286.667 90.6667 313 84.6667 339 72 c 1
 375.667 106.667 394.333 159.333 395 230 c 0
EndSplineSet
EndChar
StartChar: 15
Encoding: 65559 -1
Width: 502
Flags: HW
Fore
477 -80 m 0
 477.667 -124 451.667 -159.667 399 -187 c 0
 355.667 -209 310 -220 262 -220 c 0
 166 -220 88 -190 28 -130 c 1
 68 -97 l 1
 112 -139 176.667 -160 262 -160 c 0
 295.333 -160 327 -154 357 -142 c 0
 396.333 -126 416.333 -103.667 417 -75 c 0
 417.667 -55 408.333 -38.6667 389 -26 c 0
 371.667 -15.3333 352.667 -10 332 -10 c 2
 152 -10 l 1
 152 40 l 1
 332 40 l 2
 350.667 40 366.833 46.1667 380.5 58.5 c 0
 394.167 70.8333 401.333 86.3333 402 105 c 0
 402.667 128.333 393.833 147.5 375.5 162.5 c 0
 357.167 177.5 336 185 312 185 c 2
 152 185 l 1
 152 235 l 1
 302 235 l 2
 326 235 345.333 244.333 360 263 c 0
 374 279.667 381.333 300.333 382 325 c 0
 382.667 348.333 367.667 366.667 337 380 c 0
 314.333 389.333 289.333 394.333 262 395 c 0
 210.667 395.667 168 374 134 330 c 0
 103.333 289.333 87.6667 242.667 87 190 c 0
 86.3333 124.667 105.667 58 145 -10 c 1
 92 -10 l 1
 56 42 37.6667 108.667 37 190 c 0
 36.3333 261.333 59 323.333 105 376 c 0
 153 431.333 212 459.333 282 460 c 0
 324 460.667 361.667 450 395 428 c 0
 432.333 402.667 451.333 370 452 330 c 0
 452.667 282.667 429 245.333 381 218 c 1
 441 196 471.333 158.333 472 105 c 0
 472.667 63.6667 456.667 30.6667 424 6 c 1
 458.667 -12.6667 476.333 -41.3333 477 -80 c 0
EndSplineSet
EndChar
StartChar: 16
Encoding: 65560 -1
Width: 1122
Flags: HW
Fore
1050 80 m 0
 1050.67 45.3333 1035 16 1003 -8 c 0
 973.667 -29.3333 941 -40 905 -40 c 2
 635 -40 l 2
 619.667 -40 607.667 -46 599 -58 c 0
 590.333 -70 585.667 -84 585 -100 c 0
 584.333 -112 589.333 -121.667 600 -129 c 0
 610.667 -136.333 622.333 -140 635 -140 c 2
 1040 -140 l 1
 1040 -210 l 1
 125 -210 l 2
 93.6667 -210 67.6667 -199.5 47 -178.5 c 0
 26.3333 -157.5 15.6667 -131.333 15 -100 c 0
 14.3333 -70 24.1667 -44.1667 44.5 -22.5 c 0
 64.8333 -0.833333 90 10 120 10 c 2
 350 10 l 2
 374.667 10 396.333 15.3333 415 26 c 0
 437.667 39.3333 449.333 57.3333 450 80 c 0
 450.667 98 440.5 114.167 419.5 128.5 c 0
 398.5 142.833 373.667 150 345 150 c 2
 325 150 l 1
 325 200 l 1
 345 200 l 2
 365 200 381.333 209.667 394 229 c 0
 404 245 409.333 263.667 410 285 c 0
 410.667 316.333 395.5 343.167 364.5 365.5 c 0
 333.5 387.833 297 399.333 255 400 c 0
 205.667 400.667 163.667 385 129 353 c 0
 94.3333 321 76.3333 280.333 75 231 c 1
 80 182 l 1
 60 180 l 1
 60 215.333 71.3333 245.667 94 271 c 0
 116.667 296.333 145.333 309.333 180 310 c 0
 214 310.667 244.167 297.5 270.5 270.5 c 0
 296.833 243.5 310 211.667 310 175 c 0
 310 138.333 296.167 108.5 268.5 85.5 c 0
 240.833 62.5 208 50.6667 170 50 c 0
 126 49.3333 90 68.6667 62 108 c 0
 37.3333 143.333 25 184 25 230 c 0
 25 294.667 48.6667 348.333 96 391 c 0
 143.333 433.667 199.667 455 265 455 c 0
 321.667 455 372 441 416 413 c 0
 468 381 494.333 338.333 495 285 c 0
 495.667 243.667 479 210 445 184 c 1
 469.667 178 491.333 165.667 510 147 c 0
 529.333 126.333 539.333 104 540 80 c 0
 540.667 45.3333 525 16 493 -8 c 0
 463.667 -29.3333 431 -40 395 -40 c 2
 125 -40 l 2
 109.667 -40 97.6667 -46 89 -58 c 0
 80.3333 -70 75.6667 -84 75 -100 c 0
 74.3333 -111.333 78 -120.833 86 -128.5 c 0
 94 -136.167 103.667 -140 115 -140 c 2
 537 -140 l 1
 529 -128 525 -114.667 525 -100 c 0
 525 -69.3333 534.833 -43.3333 554.5 -22 c 0
 574.167 -0.666667 599.333 10 630 10 c 2
 860 10 l 2
 884.667 10 906.333 15.3333 925 26 c 0
 947.667 39.3333 959.333 57.3333 960 80 c 0
 960.667 98 950.5 114.167 929.5 128.5 c 0
 908.5 142.833 883.667 150 855 150 c 2
 835 150 l 1
 835 200 l 1
 855 200 l 2
 875 200 891.333 209.667 904 229 c 0
 914 245 919.333 263.667 920 285 c 0
 920.667 316.333 905.5 343.167 874.5 365.5 c 0
 843.5 387.833 807 399.333 765 400 c 0
 715.667 400.667 673.667 385 639 353 c 0
 604.333 321 586.333 280.333 585 231 c 1
 590 182 l 1
 570 180 l 1
 570 215.333 581.333 245.667 604 271 c 0
 626.667 296.333 655.333 309.333 690 310 c 0
 724 310.667 754.167 297.5 780.5 270.5 c 0
 806.833 243.5 820 211.667 820 175 c 0
 820 138.333 806.167 108.5 778.5 85.5 c 0
 750.833 62.5 718 50.6667 680 50 c 0
 636 49.3333 600 68.6667 572 108 c 0
 547.333 143.333 535 184 535 230 c 0
 535 294.667 558.667 348.333 606 391 c 0
 653.333 433.667 709.667 455 775 455 c 0
 831.667 455 882 441 926 413 c 0
 978 381 1004.33 338.333 1005 285 c 0
 1005.67 243.667 989 210 955 184 c 1
 979.667 178 1001.33 165.667 1020 147 c 0
 1039.33 126.333 1049.33 104 1050 80 c 0
740 180 m 0
 740.667 199.333 734 216.667 720 232 c 0
 706 247.333 691 255 675 255 c 0
 655.667 255 640.333 246 629 228 c 0
 620.333 213.333 615.667 195.667 615 175 c 0
 614.333 156.333 619.5 140.167 630.5 126.5 c 0
 641.5 112.833 656.333 105.667 675 105 c 0
 694.333 104.333 709.833 111.667 721.5 127 c 0
 733.167 142.333 739.333 160 740 180 c 0
230 180 m 0
 230.667 199.333 224 216.667 210 232 c 0
 196 247.333 181 255 165 255 c 0
 145.667 255 130.333 246 119 228 c 0
 110.333 213.333 105.667 195.667 105 175 c 0
 104.333 156.333 109.5 140.167 120.5 126.5 c 0
 131.5 112.833 146.333 105.667 165 105 c 0
 184.333 104.333 199.833 111.667 211.5 127 c 0
 223.167 142.333 229.333 160 230 180 c 0
EndSplineSet
EndChar
StartChar: 17
Encoding: 65561 -1
Width: 827
Flags: HW
Fore
797 115 m 0
 797 73 778.667 39.3333 742 14 c 0
 708.667 -8.66667 670.333 -20 627 -20 c 0
 565.667 -20 513 -2 469 34 c 1
 501 75 l 1
 518.333 60.3333 537 49 557 41 c 0
 575 34.3333 595 30.6667 617 30 c 0
 643.667 29.3333 667.667 37.6667 689 55 c 0
 710.333 72.3333 721.333 94 722 120 c 0
 722.667 141.333 712.667 159.333 692 174 c 0
 674 188 654 195 632 195 c 2
 497 195 l 1
 497 245 l 1
 637 245 l 2
 655.667 245 671.833 251.167 685.5 263.5 c 0
 699.167 275.833 706.333 291.333 707 310 c 0
 707.667 336 693.667 357.333 665 374 c 0
 641 387.333 615 394.333 587 395 c 0
 544.333 395.667 507 381.5 475 352.5 c 0
 443 323.5 427 287.667 427 245 c 2
 427 -10 l 1
 357 -10 l 1
 357 280 l 2
 357 314 341.667 342 311 364 c 0
 283.667 384 252.333 394.333 217 395 c 0
 175.667 395.667 142 377.333 116 340 c 0
 93.3333 306.667 82 268.333 82 225 c 0
 82 121 123.667 52.6667 207 20 c 1
 182 -23 l 1
 134 -1.66667 97 30.6667 71 74 c 0
 45 117.333 32 166 32 220 c 0
 32 280.667 49 334.667 83 382 c 0
 120.333 433.333 168.333 459.333 227 460 c 0
 265.667 460.667 301.333 452 334 434 c 0
 366.667 416 391.333 390.333 408 357 c 1
 434 406.333 475 438.333 531 453 c 0
 547.667 457.667 566.333 460 587 460 c 0
 631.667 460.667 673 449.667 711 427 c 0
 754.333 401 776.333 367 777 325 c 0
 777.667 277 757.667 242.667 717 222 c 1
 740.333 214 759.5 199.833 774.5 179.5 c 0
 789.5 159.167 797 137.667 797 115 c 0
EndSplineSet
EndChar
StartChar: 18
Encoding: 65562 -1
Width: 1308
Flags: HW
Fore
1290 -10 m 1
 575 -10 l 1
 576 33 l 1
 602 69 615 121.333 615 190 c 0
 615 242 603.333 288 580 328 c 0
 552 375.333 513.667 399.333 465 400 c 0
 451 400 432.667 396 410 388 c 1
 472.667 338 504.333 275.333 505 200 c 0
 505.667 148 494 100.333 470 57 c 0
 442 5.66667 403.667 -20 355 -20 c 0
 309.667 -20 273 4.66667 245 54 c 0
 222.333 95.3333 210.667 140.667 210 190 c 0
 209.333 281.333 238 346.333 296 385 c 1
 280 391 259.667 394.333 235 395 c 0
 187 395.667 147 376.667 115 338 c 0
 85 302 70 259.333 70 210 c 0
 70 132.667 93 66 139 10 c 1
 105 -25 l 1
 48.3333 43.6667 20 122 20 210 c 0
 20 276 40.6667 333.333 82 382 c 0
 125.333 433.333 179.667 459.333 245 460 c 0
 284.333 460.667 321 448.333 355 423 c 1
 387.667 447 424.333 459.333 465 460 c 0
 527.667 460.667 581.5 434.667 626.5 382 c 0
 671.5 329.333 694.333 265.333 695 190 c 0
 695.667 126.667 684 76.6667 660 40 c 1
 875 40 l 1
 875 250 l 2
 875 307.333 894 356.5 932 397.5 c 0
 970 438.5 1017.67 459.333 1075 460 c 0
 1130.33 460.667 1179.33 444 1222 410 c 0
 1267.33 374 1290 329 1290 275 c 2
 1290 -10 l 1
1240 40 m 1
 1240 255 l 2
 1240 296.333 1224.67 330.667 1194 358 c 0
 1163.33 385.333 1127 399.333 1085 400 c 0
 1045.67 400.667 1013.33 386.5 988 357.5 c 0
 962.667 328.5 950 294.333 950 255 c 2
 950 40 l 1
 1240 40 l 1
430 200 m 0
 430.667 258.667 400.667 311.333 340 358 c 1
 286.667 316 260 260 260 190 c 0
 260 156.667 266 125.667 278 97 c 0
 294 59 316.333 40 345 40 c 0
 373 40 395 60.6667 411 102 c 0
 423 133.333 429.333 166 430 200 c 0
EndSplineSet
EndChar
StartChar: 19
Encoding: 65563 -1
Width: 570
Flags: HW
Fore
489 -80 m 0
 489.667 -119.333 465.167 -153.167 415.5 -181.5 c 0
 365.833 -209.833 307 -224.333 239 -225 c 0
 162.333 -225.667 94.6667 -197.667 36 -141 c 1
 68 -102 l 1
 116.667 -136.667 173.667 -154.333 239 -155 c 0
 281.667 -155.667 321.333 -146.667 358 -128 c 0
 392 -110.667 409 -89.6667 409 -65 c 0
 409 -49.6667 403 -36.6667 391 -26 c 0
 379 -15.3333 365 -10 349 -10 c 2
 49 -10 l 1
 49 40 l 1
 349 40 l 2
 367.667 40 382.333 47.3333 393 62 c 0
 403 74.6667 408.333 90.6667 409 110 c 0
 409.667 129.333 402 146 386 160 c 0
 370 174 351 180.667 329 180 c 2
 300 179 l 2
 286.667 178.333 274.333 176.667 263 174 c 1
 241.667 172 207 170.667 159 170 c 0
 120.333 169.333 87.5 182 60.5 208 c 0
 33.5 234 19.6667 266.333 19 305 c 0
 18.3333 353 46 391.333 102 420 c 0
 148 443.333 197 455 249 455 c 0
 333.667 455 405.333 426.667 464 370 c 1
 430 337 l 1
 375.333 381.667 318.333 404.333 259 405 c 0
 220.333 405.667 184 398.667 150 384 c 0
 106 364.667 84 338.333 84 305 c 0
 84 287.667 92.6667 273.667 110 263 c 0
 124.667 254.333 141 250 159 250 c 2
 199 250 l 2
 227 250 246.333 251.667 257 255 c 1
 329 265 l 1
 369.667 265 405.667 253.667 437 231 c 0
 471 206.333 488.333 174.333 489 135 c 0
 489.667 83 466.667 44.3333 420 19 c 1
 438 9.66667 454 -4.33333 468 -23 c 0
 482 -41.6667 489 -60.6667 489 -80 c 0
EndSplineSet
EndChar
StartChar: 20
Encoding: 65564 -1
Width: 890
Flags: HW
Fore
861 175 m 0
 861 128.333 849.667 86.6667 827 50 c 0
 800.333 7.33333 765 -14.3333 721 -15 c 0
 677 -15.6667 641.667 6.66667 615 52 c 0
 593 90 581.667 132.667 581 180 c 0
 580.333 242 607 306 661 372 c 1
 625 390 585 399.333 541 400 c 0
 487.667 400.667 445 396 413 386 c 1
 481 332 515.333 266.667 516 190 c 0
 516.667 140.667 503.667 95.3333 477 54 c 0
 447 8 408.333 -15 361 -15 c 0
 318.333 -15 282 4.66667 252 44 c 0
 222 83.3333 206.667 132 206 190 c 0
 205.333 270 237.667 333.667 303 381 c 1
 282.333 393.667 261.667 400 241 400 c 0
 193 400.667 154.333 378.667 125 334 c 0
 99 294.667 86 250 86 200 c 0
 86 156.667 91.6667 120.667 103 92 c 0
 115 60.6667 132.667 35.3333 156 16 c 1
 122 -19 l 1
 82.6667 11.6667 56 62 42 132 c 0
 38 151.333 36 174 36 200 c 0
 36 266.667 55.6667 325 95 375 c 0
 137.667 428.333 191.333 455 256 455 c 0
 304 455 343 444 373 422 c 1
 422.333 444 476.667 455 536 455 c 0
 608.667 455 662.333 446.333 697 429 c 1
 705.667 445.667 710.333 462.667 711 480 c 0
 711.667 499.333 705.167 516.5 691.5 531.5 c 0
 677.833 546.5 661 554.333 641 555 c 0
 606.333 555.667 572.667 540.667 540 510 c 1
 509 551 l 1
 547 597 591 620 641 620 c 0
 675.667 620 705.167 608.667 729.5 586 c 0
 753.833 563.333 766 534.667 766 500 c 0
 766 457.333 756.333 424.333 737 401 c 1
 773.667 373.667 803 340.667 825 302 c 0
 849 260.667 861 218.333 861 175 c 0
781 185 m 0
 781 260.333 754.667 314.333 702 347 c 1
 655.333 296.333 631.667 239 631 175 c 0
 631 145 636 117 646 91 c 0
 660 57.6667 680 40.6667 706 40 c 0
 725.333 39.3333 743 53.3333 759 82 c 1
 773.667 116 781 150.333 781 185 c 0
436 170 m 0
 437.333 242 405.667 303 341 353 c 1
 314.333 336.333 293.5 313.5 278.5 284.5 c 0
 263.5 255.5 256 224 256 190 c 0
 256 155.333 262.333 123.667 275 95 c 0
 291.667 59 315.333 40.6667 346 40 c 0
 374.667 39.3333 397.667 54.3333 415 85 c 0
 428.333 110.333 435.333 138.667 436 170 c 0
EndSplineSet
EndChar
StartChar: 21
Encoding: 65565 -1
Width: 1042
Flags: HW
Fore
1011 225 m 0
 1011 159 991 102.333 951 55 c 0
 909 5.66667 855.667 -19.3333 791 -20 c 0
 719 -20.6667 665.333 16.6667 630 92 c 1
 608 54.6667 571.667 26 521 6 c 0
 477.667 -11.3333 431 -20 381 -20 c 0
 333.667 -20 291 -11.6667 253 5 c 0
 202.333 27 176.667 58.6667 176 100 c 0
 175.333 118.667 185 134 205 146 c 0
 222.333 155.333 241 160 261 160 c 1
 308 155 l 1
 341 150 l 1
 356.333 150 370.167 153.833 382.5 161.5 c 0
 394.833 169.167 401 180.333 401 195 c 0
 401 208.333 394.333 220 381 230 c 0
 367.667 240 352.667 245 336 245 c 2
 171 245 l 1
 171 295 l 1
 351 295 l 2
 373 295 384.667 310 386 340 c 0
 386.667 357.333 373.667 371.333 347 382 c 0
 327 390.667 306.667 395 286 395 c 0
 230 395.667 182.833 375.667 144.5 335 c 0
 106.167 294.333 86.6667 246 86 190 c 0
 85.3333 149.333 90 114.333 100 85 c 0
 110 55.6667 125 31 145 11 c 1
 111 -25 l 1
 61 33 36 104.667 36 190 c 0
 36 261.333 58.6667 323.333 104 376 c 0
 151.333 431.333 210.333 459.333 281 460 c 0
 320.333 460.667 356.667 451.667 390 433 c 0
 430 411 450.333 381.667 451 345 c 0
 451.667 319 440.667 294.667 418 272 c 1
 432.667 266 445.167 255.667 455.5 241 c 0
 465.833 226.333 471 209.333 471 190 c 0
 471 165.333 463.667 144.333 449 127 c 0
 434.333 109.667 415 100.667 391 100 c 0
 382.333 100 371 101.333 357 104 c 0
 337 108 326 110 324 110 c 2
 302 113 l 1
 281 115 l 2
 274.333 115 267.833 113.333 261.5 110 c 0
 255.167 106.667 251.667 101.667 251 95 c 0
 251 74.3333 268.667 59.3333 304 50 c 0
 327.333 43.3333 353 40 381 40 c 0
 430.333 40 476.667 50.3333 520 71 c 0
 574 96.3333 601 131 601 175 c 2
 601 450 l 1
 671 450 l 1
 671 165 l 2
 671 129.667 683.833 100.167 709.5 76.5 c 0
 735.167 52.8333 765.667 40.6667 801 40 c 0
 847 39.3333 885.667 59 917 99 c 0
 946.333 135.667 961 177.667 961 225 c 0
 961 267 948.667 305.333 924 340 c 0
 901.333 372.667 870.333 398.333 831 417 c 1
 864 458 l 1
 910 436 946 404.333 972 363 c 0
 998 321.667 1011 275.667 1011 225 c 0
EndSplineSet
EndChar
StartChar: 22
Encoding: 65566 -1
Width: 1023
Flags: HW
Fore
973 -10 m 1
 48 -10 l 1
 48 240 l 2
 48 302.667 73.6667 354.667 125 396 c 0
 172.333 434.667 228.333 454.333 293 455 c 0
 338.333 455.667 380.167 445.333 418.5 424 c 0
 456.833 402.667 486.667 372.667 508 334 c 1
 527.333 373.333 559 403.667 603 425 c 0
 642.333 444.333 685.667 454.333 733 455 c 0
 796.333 455.667 851.333 437 898 399 c 0
 948 358.333 973 307 973 245 c 2
 973 -10 l 1
918 40 m 1
 918 240 l 2
 918 288.667 899.5 328.333 862.5 359 c 0
 825.5 389.667 782.333 405 733 405 c 0
 692.333 405 655.667 395.333 623 376 c 1
 617 395 l 1
 638 397 l 1
 682 397 718.333 378 747 340 c 0
 774.333 304.667 788 264.667 788 220 c 0
 788 146.667 755.333 86.6667 690 40 c 1
 918 40 l 1
703 230 m 0
 703 259.333 696.333 286 683 310 c 0
 667 339.333 645.333 354.333 618 355 c 0
 598.667 355.667 580.333 345 563 323 c 0
 548.333 304.333 536.667 276.333 528 239 c 1
 528 40 l 1
 588 40 l 1
 623.333 52.6667 651.667 78.3333 673 117 c 0
 693 152.333 703 190 703 230 c 0
478 40 m 1
 478 240 l 2
 478 287.333 460.833 326.667 426.5 358 c 0
 392.167 389.333 351 405 303 405 c 2
 269 405 l 2
 264.333 404.333 259 403.5 253 402.5 c 0
 247 401.5 243.333 401 242 401 c 2
 223 401 l 1
 203 397 l 1
 208 397 l 2
 252 397 288.333 378 317 340 c 0
 344.333 304.667 358 264.667 358 220 c 0
 358 147.333 327.333 87.3333 266 40 c 1
 478 40 l 1
273 230 m 0
 273 263.333 264.5 292.333 247.5 317 c 0
 230.5 341.667 209.667 354.333 185 355 c 1
 157 351 135.5 338.167 120.5 316.5 c 0
 105.5 294.833 98 269.333 98 240 c 2
 98 40 l 1
 175 40 l 1
 239.667 86.6667 272.333 150 273 230 c 0
EndSplineSet
EndChar
StartChar: 23
Encoding: 65567 -1
Width: 908
Flags: HW
Fore
825 -205 m 1
 65 -205 l 1
 65 -172 l 1
 628 -10 l 1
 -5 -10 l 1
 -5 40 l 1
 275 40 l 2
 305.667 40 330.333 52.6667 349 78 c 0
 365.667 101.333 374.333 128.667 375 160 c 0
 375.667 192.667 362 219.667 334 241 c 0
 308.667 259.667 279 269.333 245 270 c 0
 211.667 270.667 183 261 159 241 c 0
 133 219.667 120 192.667 120 160 c 0
 120 140.667 127 123.333 141 108 c 1
 98 82 l 1
 80 104.667 70.6667 130.667 70 160 c 0
 69.3333 204.667 87.5 244.167 124.5 278.5 c 0
 161.5 312.833 206.667 330 260 330 c 0
 311.333 330 356 314.667 394 284 c 0
 434.667 251.333 455 210 455 160 c 0
 455 110 440 70 410 40 c 1
 755 40 l 1
 755 450 l 1
 825 450 l 1
 825 -205 l 1
755 -155 m 1
 755 -24 l 1
 306 -155 l 1
 755 -155 l 1
EndSplineSet
EndChar
StartChar: 24
Encoding: 65568 -1
Width: 620
Flags: HW
Fore
544 -115 m 2
 544 -147 531.333 -174 506 -196 c 0
 480.667 -218 451.667 -229.333 419 -230 c 0
 388.333 -230.667 359.833 -218.833 333.5 -194.5 c 0
 307.167 -170.167 290.333 -137.333 283 -96 c 0
 275.667 -54.6667 258.333 -26 231 -10 c 1
 206 -10 l 1
 238 -34 254 -67.3333 254 -110 c 0
 254 -144 242.5 -172.333 219.5 -195 c 0
 196.5 -217.667 168 -229.333 134 -230 c 0
 100 -230.667 71.6667 -218.5 49 -193.5 c 0
 26.3333 -168.5 14.6667 -139 14 -105 c 0
 13.3333 -71 26.3333 -39.3333 53 -10 c 1
 44 -10 l 1
 44 220 l 2
 44 287.333 69 343.667 119 389 c 0
 167.667 432.333 226 454.333 294 455 c 0
 360 455.667 418.167 433 468.5 387 c 0
 518.833 341 544 285.333 544 220 c 2
 544 -115 l 2
474 40 m 1
 474 220 l 2
 474 268 456.833 309 422.5 343 c 0
 388.167 377 347 394.333 299 395 c 0
 281.667 395 264 393 246 389 c 1
 275.333 378.333 299.333 356.667 318 324 c 0
 334.667 294.667 343.333 263.333 344 230 c 0
 345.333 153.333 319.667 90 267 40 c 1
 474 40 l 1
264 230 m 0
 264 259.333 257.667 286.667 245 312 c 0
 229.667 344 208.667 360 182 360 c 1
 123.333 325.333 94 278.667 94 220 c 2
 94 40 l 1
 177 40 l 1
 207 56 229.667 83.6667 245 123 c 0
 257.667 155.667 264 191.333 264 230 c 0
474 -120 m 2
 474 -10 l 1
 306 -10 l 1
 319.333 -25.3333 331.667 -48.3333 343 -79 c 0
 354.333 -111.667 365.333 -134.667 376 -148 c 0
 390 -166 406 -175 424 -175 c 0
 438 -175 449.833 -169.667 459.5 -159 c 0
 469.167 -148.333 474 -135.333 474 -120 c 2
179 -110 m 0
 179 -90.6667 173.667 -73.5 163 -58.5 c 0
 152.333 -43.5 137.667 -35.6667 119 -35 c 0
 101.667 -34.3333 88 -42.6667 78 -60 c 0
 69.3333 -74.6667 64.6667 -91.3333 64 -110 c 0
 63.3333 -128 68.6667 -143.167 80 -155.5 c 0
 91.3333 -167.833 106 -174.333 124 -175 c 0
 139.333 -175.667 152.333 -169.5 163 -156.5 c 0
 173.667 -143.5 179 -128 179 -110 c 0
EndSplineSet
EndChar
StartChar: 25
Encoding: 65569 -1
Width: 798
Flags: HW
Fore
769 195 m 0
 769 143.667 756.333 97.6667 731 57 c 0
 701.667 9.66667 662.667 -14.3333 614 -15 c 0
 580 -15.6667 550.333 0.666667 525 34 c 0
 501 65.3333 489 105.667 489 155 c 0
 489 240.333 520.667 316.667 584 384 c 1
 565.333 394 547 399.333 529 400 c 0
 497.667 400.667 471.5 388.833 450.5 364.5 c 0
 429.5 340.167 419 312 419 280 c 2
 419 -10 l 1
 349 -10 l 1
 349 280 l 2
 349 314 337.5 342.333 314.5 365 c 0
 291.5 387.667 263 399.333 229 400 c 0
 185 400.667 149 381.333 121 342 c 0
 96.3333 306.667 84 266 84 220 c 0
 84 130 117.667 62.3333 185 17 c 1
 151 -18 l 1
 73 26 34 105.333 34 220 c 0
 34 281.333 52.6667 335 90 381 c 0
 129.333 429.667 179 454.333 239 455 c 0
 305.667 455.667 355.667 426.667 389 368 c 1
 420.333 426 470.333 455 539 455 c 0
 563 455 588 448 614 434 c 1
 620 452 623.333 470.667 624 490 c 0
 624.667 502.667 618.167 514.167 604.5 524.5 c 0
 590.833 534.833 575.667 540 559 540 c 0
 525 540 495.333 525.333 470 496 c 1
 436 530 l 1
 473.333 576 514.333 599.333 559 600 c 0
 591 600.667 618.833 590.5 642.5 569.5 c 0
 666.167 548.5 678.333 522 679 490 c 0
 679.667 456 672.667 426.667 658 402 c 1
 732 345.333 769 276.333 769 195 c 0
689 195 m 0
 689 263 666 317 620 357 c 1
 566 299 539 230 539 150 c 0
 539 123.333 544 100 554 80 c 0
 566.667 54 585 40.6667 609 40 c 0
 630.333 39.3333 649 54.1667 665 84.5 c 0
 681 114.833 689 151.667 689 195 c 0
EndSplineSet
EndChar
StartChar: 26
Encoding: 65570 -1
Width: 883
Flags: HW
Fore
791 -70 m 2
 791 -114.667 777 -154 749 -188 c 0
 721 -222 685 -239.333 641 -240 c 0
 604.333 -240.667 568.667 -224.667 534 -192 c 0
 507.333 -168 485 -137 467 -99 c 0
 438.333 -39.6667 394.667 -10 336 -10 c 1
 362.667 -34 376 -64 376 -100 c 0
 376 -137.333 362.167 -168.333 334.5 -193 c 0
 306.833 -217.667 274 -230 236 -230 c 0
 198 -230 166 -217 140 -191 c 0
 114 -165 101 -133 101 -95 c 0
 101 -60.3333 111 -30.8333 131 -6.5 c 0
 151 17.8333 178 33 212 39 c 0
 243.333 45 269.333 58.1667 290 78.5 c 0
 310.667 98.8333 321 124.333 321 155 c 0
 321 187 309 214 285 236 c 0
 261 258 233 269.333 201 270 c 0
 166.333 270.667 137 257.833 113 231.5 c 0
 89 205.167 76.6667 174.667 76 140 c 0
 75.3333 92.6667 95.3333 51.3333 136 16 c 1
 103 -18 l 1
 52.3333 12 26.6667 68 26 150 c 0
 25.3333 200 43.5 242.5 80.5 277.5 c 0
 117.5 312.5 161 330 211 330 c 0
 262.333 330 306.667 312.833 344 278.5 c 0
 381.333 244.167 400.333 201.333 401 150 c 0
 401.667 104.667 388 68 360 40 c 1
 721 40 l 1
 721 450 l 1
 791 450 l 1
 791 -70 l 2
721 -70 m 2
 721 -10 l 1
 478 -10 l 1
 494.667 -23.3333 512 -46.3333 530 -79 c 0
 550 -115 566.667 -139.667 580 -153 c 0
 600.667 -173.667 621 -184.333 641 -185 c 0
 665.667 -185.667 685.667 -172 701 -144 c 0
 714.333 -121.333 721 -96.6667 721 -70 c 2
296 -95 m 0
 296 -71.6667 289.167 -51.6667 275.5 -35 c 0
 261.833 -18.3333 243.667 -10 221 -10 c 0
 199 -10 181.333 -19.6667 168 -39 c 0
 157.333 -56.3333 151.667 -76.6667 151 -100 c 0
 150.333 -120 156.833 -137.333 170.5 -152 c 0
 184.167 -166.667 201 -174.333 221 -175 c 0
 251 -175.667 274 -159.333 290 -126 c 0
 294 -117.333 296 -107 296 -95 c 0
EndSplineSet
EndChar
StartChar: 27
Encoding: 65571 -1
Width: 883
Flags: HW
Fore
792 -60 m 0
 792 -113.333 772.167 -157.333 732.5 -192 c 0
 692.833 -226.667 646 -244.333 592 -245 c 0
 544.667 -245.667 501.333 -231.833 462 -203.5 c 0
 422.667 -175.167 394.667 -138.333 378 -93 c 0
 368.667 -67 354.333 -45.5 335 -28.5 c 0
 315.667 -11.5 296.667 -3.66667 278 -5 c 2
 260 -6 l 1
 284 -28 296.333 -59.3333 297 -100 c 0
 297.667 -136.667 282.333 -168 251 -194 c 0
 222.333 -218 189.333 -230 152 -230 c 0
 112.667 -230 80.3333 -216.5 55 -189.5 c 0
 29.6667 -162.5 17 -129.333 17 -90 c 0
 17 -27.3333 47.3333 15.6667 108 39 c 1
 58 78.3333 32.6667 135.333 32 210 c 0
 31.3333 268.667 46.5 320.833 77.5 366.5 c 0
 108.5 412.167 151.667 442.667 207 458 c 1
 232 416 l 1
 186.667 399.333 151 374.667 125 342 c 0
 96.3333 306.667 82 266 82 220 c 0
 82 175.333 94.6667 136 120 102 c 0
 148 64.6667 183.667 45.6667 227 45 c 0
 273 44.3333 311.667 64 343 104 c 0
 372.333 140.667 387 182.667 387 230 c 0
 387 288 404 339 438 383 c 0
 474.667 431 521 455 577 455 c 0
 637.667 455 688.667 432.833 730 388.5 c 0
 771.333 344.167 792 291.333 792 230 c 0
 792 155.333 774 96 738 52 c 1
 774 26 792 -11.3333 792 -60 c 0
737 230 m 0
 737.667 272 724 309.167 696 341.5 c 0
 668 373.833 633.333 390 592 390 c 0
 552 390 520.333 369 497 327 c 0
 477.667 292.333 467.667 253.333 467 210 c 0
 466.333 120 433.333 57.6667 368 23 c 1
 404 2.33333 428.667 -31 442 -77 c 0
 452 -112.333 470.333 -139.833 497 -159.5 c 0
 523.667 -179.167 555.333 -189.333 592 -190 c 0
 624.667 -190.667 652.333 -177 675 -149 c 0
 695.667 -123 706.333 -93.3333 707 -60 c 0
 707.667 -34.6667 700.667 -12.6667 686 6 c 1
 668.667 -6 646.333 -17 619 -27 c 1
 586 8 l 1
 658.667 42 705.667 93.3333 727 162 c 0
 733 182.667 736.333 205.333 737 230 c 0
217 -90 m 0
 217 -67.3333 210.833 -47.5 198.5 -30.5 c 0
 186.167 -13.5 169 -5 147 -5 c 0
 123.667 -5 104.667 -13.3333 90 -30 c 0
 75.3333 -46.6667 67.6667 -66.6667 67 -90 c 0
 66.3333 -113.333 73.6667 -133.167 89 -149.5 c 0
 104.333 -165.833 123.667 -174.333 147 -175 c 0
 167.667 -175.667 184.667 -166.333 198 -147 c 0
 210.667 -130.333 217 -111.333 217 -90 c 0
EndSplineSet
EndChar
StartChar: 28
Encoding: 65572 -1
Width: 846
Flags: HW
Fore
775 250 m 1
 724 230 l 1
 724 287.333 706.333 340 671 388 c 0
 631.667 440 584.333 466.333 529 467 c 0
 487 467.667 453.667 462.333 429 451 c 0
 400.333 438.333 375.667 415.667 355 383 c 1
 324.333 439.667 281.667 468.333 227 469 c 0
 159.667 469.667 106 444.667 66 394 c 0
 29.3333 347.333 11 289.667 11 221 c 0
 11 115 51.6667 38.6667 133 -8 c 1
 139 -9 l 2
 143.667 -9 149 -6 155 0 c 0
 161 6 162 11 158 15 c 0
 96.6667 61.6667 65.3333 128 64 214 c 0
 63.3333 270 76 315.333 102 350 c 0
 131.333 388.667 173 408 227 408 c 0
 248.333 408 266.667 395 282 369 c 0
 296 346.333 303 323.667 303 301 c 2
 303 -8 l 1
 375 -8 l 1
 375 297 l 2
 375 330.333 387.167 359 411.5 383 c 0
 435.833 407 464.667 419.333 498 420 c 0
 538.667 420.667 574.167 403.5 604.5 368.5 c 0
 634.833 333.5 650 294 650 250 c 1
 576 250 l 2
 540.667 250 513.333 237.667 494 213 c 0
 476.667 191 467.667 161.667 467 125 c 0
 466.333 86.3333 474.667 54.6667 492 30 c 0
 510.667 2 538.667 -12 576 -12 c 0
 626 -12 664.667 13.3333 692 64 c 0
 713.333 104.667 724 152.333 724 207 c 1
 775 207 l 1
 775 250 l 1
650 207 m 1
 650 167 644.667 131.667 634 101 c 0
 618 57 593.667 35 561 35 c 0
 547 35 535.5 43.3333 526.5 60 c 0
 517.5 76.6667 512.667 95.6667 512 117 c 0
 511.333 150.333 518 174.667 532 190 c 0
 542.667 201.333 557.333 207 576 207 c 2
 650 207 l 1
EndSplineSet
EndChar
StartChar: 29
Encoding: 65573 -1
Width: 1255
Flags: HW
Fore
1145 -70 m 2
 1145 -112.667 1133.33 -150.667 1110 -184 c 0
 1084 -220.667 1050.67 -239.333 1010 -240 c 0
 960 -240.667 916 -229.667 878 -207 c 0
 836.667 -182.333 807.667 -147.667 791 -103 c 0
 768.333 -41 744.667 -10 720 -10 c 2
 663 -10 l 1
 687 -32 699.333 -60.3333 700 -95 c 0
 700.667 -133 686.333 -164.833 657 -190.5 c 0
 627.667 -216.167 593.667 -229.333 555 -230 c 0
 515.667 -230.667 481.833 -218 453.5 -192 c 0
 425.167 -166 410.667 -133.667 410 -95 c 0
 409.333 -65 421 -36.6667 445 -10 c 1
 435 -10 l 1
 435 285 l 2
 435 320.333 416.333 349 379 371 c 0
 347.667 389.667 313 399.333 275 400 c 0
 229 400.667 184.333 380.333 141 339 c 0
 97.6667 297.667 77.3333 254.667 80 210 c 2
 82 178 l 1
 63 177 l 1
 67.6667 205.667 83 228.667 109 246 c 0
 133 262 160 270 190 270 c 0
 230 270 264.167 256.667 292.5 230 c 0
 320.833 203.333 335 170 335 130 c 0
 335 88.6667 320.333 54.1667 291 26.5 c 0
 261.667 -1.16667 226.333 -15 185 -15 c 0
 142.333 -15 106 4.66667 76 44 c 0
 46 83.3333 30.6667 132 30 190 c 0
 29.3333 261.333 52 322.667 98 374 c 0
 145.333 428 204.333 455 275 455 c 0
 363 455 428 428 470 374 c 1
 507.333 428 559 455 625 455 c 0
 686.333 455 739.167 434.333 783.5 393 c 0
 827.833 351.667 850 300.667 850 240 c 0
 850 199.333 843.333 161.5 830 126.5 c 0
 816.667 91.5 797.667 62.6667 773 40 c 1
 1075 40 l 1
 1075 450 l 1
 1145 450 l 1
 1145 -70 l 2
770 240 m 0
 770 282 756.667 319 730 351 c 0
 701.333 383.667 666.333 400 625 400 c 0
 592.333 400 564.667 390 542 370 c 0
 517.333 348.667 505 322 505 290 c 2
 505 40 l 1
 692 40 l 1
 744 70 770 136.667 770 240 c 0
1075 -75 m 2
 1075 -10 l 1
 815 -10 l 1
 831 -29.3333 844 -53.3333 854 -82 c 0
 864 -110.667 881 -134.833 905 -154.5 c 0
 929 -174.167 955.667 -184.333 985 -185 c 0
 1012.33 -185.667 1034.67 -174 1052 -150 c 0
 1067.33 -128 1075 -103 1075 -75 c 2
620 -95 m 0
 620 -71 612.667 -50.8333 598 -34.5 c 0
 583.333 -18.1667 564 -10 540 -10 c 0
 516 -10 496.833 -18.8333 482.5 -36.5 c 0
 468.167 -54.1667 460.667 -75.3333 460 -100 c 0
 459.333 -122 468.333 -140 487 -154 c 0
 503 -167.333 522.333 -174.333 545 -175 c 0
 575 -175.667 598 -159.333 614 -126 c 0
 618 -117.333 620 -107 620 -95 c 0
255 130 m 0
 255.667 153.333 248.333 173.167 233 189.5 c 0
 217.667 205.833 198.333 214.333 175 215 c 0
 152.333 215.667 133.5 207.333 118.5 190 c 0
 103.5 172.667 95.6667 152.667 95 130 c 0
 94.3333 106 101.5 85.1667 116.5 67.5 c 0
 131.5 49.8333 151 40.6667 175 40 c 0
 199 39.3333 218.167 48 232.5 66 c 0
 246.833 84 254.333 105.333 255 130 c 0
EndSplineSet
EndChar
StartChar: 30
Encoding: 65574 -1
Width: 1076
Flags: HW
Fore
1044 200 m 0
 1044 150 1035.5 106.333 1018.5 69 c 0
 1001.5 31.6667 976.333 2.66667 943 -18 c 1
 906 20 l 1
 944.667 58.6667 964 118.667 964 200 c 0
 964 242 950.667 279 924 311 c 0
 895.333 343.667 860.333 360 819 360 c 0
 783.667 360 752 350.667 724 332 c 0
 696 313.333 675.667 287.667 663 255 c 1
 739 255 l 2
 779 255 813.833 242.333 843.5 217 c 0
 873.167 191.667 888.333 159.333 889 120 c 0
 889.667 82 877.667 50.1667 853 24.5 c 0
 828.333 -1.16667 797 -14.3333 759 -15 c 0
 709.667 -15.6667 670.667 1.5 642 36.5 c 0
 613.333 71.5 600 118.667 602 178 c 1
 603 205 l 1
 549 205 l 1
 549 151 535.333 102.667 508 60 c 0
 476.667 10.6667 435.333 -14.3333 384 -15 c 0
 341.333 -15.6667 303 1 269 35 c 1
 238.333 2.33333 198.333 -14.3333 149 -15 c 0
 111.667 -15.6667 80.8333 -2.66667 56.5 24 c 0
 32.1667 50.6667 19.6667 82.6667 19 120 c 0
 18.3333 157.333 30.6667 189.167 56 215.5 c 0
 81.3333 241.833 112.333 255 149 255 c 2
 214 255 l 1
 214 306.333 228.333 351.333 257 390 c 0
 289 432.667 329.667 454.333 379 455 c 0
 423.667 455.667 463.167 436.5 497.5 397.5 c 0
 531.833 358.5 549 311 549 255 c 1
 611 255 l 1
 625 302.333 651.5 341.5 690.5 372.5 c 0
 729.5 403.5 772.333 419.333 819 420 c 0
 881 420.667 934 399.667 978 357 c 0
 1022 314.333 1044 262 1044 200 c 0
809 130 m 0
 809 160.667 792.667 183.667 760 199 c 0
 751.333 203 741 205 729 205 c 2
 653 205 l 1
 653 183 l 2
 653 91 685 45 749 45 c 0
 768.333 45 783.667 55 795 75 c 0
 804.333 91 809 109.333 809 130 c 0
469 255 m 1
 469 289.667 460.333 320.333 443 347 c 0
 423 378.333 396.667 394.333 364 395 c 0
 333.333 395.667 308.333 379.333 289 346 c 0
 272.333 318 264 287.667 264 255 c 1
 469 255 l 1
469 205 m 1
 264 205 l 1
 264 167.667 271.333 133.667 286 103 c 0
 304.667 65 330.667 45.6667 364 45 c 0
 396.667 44.3333 423.333 63.6667 444 103 c 0
 460 134.333 468.333 168.333 469 205 c 1
245 74 m 1
 225 105.333 214.667 149 214 205 c 1
 169 205 l 2
 147.667 205 130.833 196.5 118.5 179.5 c 0
 106.167 162.5 99.6667 142.667 99 120 c 0
 98.3333 98 104.5 79.3333 117.5 64 c 0
 130.5 48.6667 147.667 40.6667 169 40 c 0
 175 40 185.667 43 201 49 c 1
 245 74 l 1
EndSplineSet
EndChar
StartChar: 31
Encoding: 65575 -1
Width: 855
Flags: HW
Fore
806 253 m 0
 806 212.333 796.5 170.167 777.5 126.5 c 0
 758.5 82.8333 734 47 704 19 c 1
 704 -242 l 1
 152 -242 l 1
 149 -222 l 1
 631 28 l 1
 636 16 l 1
 646 4 l 1
 583 -11 l 1
 534 -18 l 1
 489 -18 l 2
 481.667 -18 474.333 -17.3333 467 -16 c 2
 433 -10 l 1
 413.667 -15.3333 396.333 -18.3333 381 -19 c 2
 328 -22 l 2
 243.333 -26.6667 168.667 -2 104 52 c 0
 42 104 11 173.333 11 260 c 0
 11 318 22.6667 367.333 46 408 c 0
 74.6667 458 116 483.333 170 484 c 0
 226.667 484.667 266.667 456.333 290 399 c 1
 326 455.667 373.333 484 432 484 c 0
 488.667 484 537.333 466.333 578 431 c 0
 619.333 393.667 640.333 347 641 291 c 0
 641.667 231.667 627.333 176.667 598 126 c 0
 568.667 75.3333 528.667 34 478 2 c 1
 470 16 l 1
 470 30 l 1
 547.333 30 611.667 48.6667 663 86 c 0
 720.333 127.333 749 185.333 749 260 c 0
 749 292 739 327.833 719 367.5 c 0
 699 407.167 677.333 434.667 654 450 c 0
 652.667 450.667 651 453.667 649 459 c 1
 649 473 657 481.667 673 485 c 2
 677 485 l 1
 715 461.667 746 428.333 770 385 c 0
 794 341.667 806 297.667 806 253 c 0
579 275 m 0
 579.667 311.667 567 345.333 541 376 c 0
 515 406.667 484 422 448 422 c 0
 407.333 422 375.667 404.333 353 369 c 0
 334.333 339.667 325 303.333 325 260 c 0
 325 218 336.333 175.667 359 133 c 0
 382.333 88.3333 411.667 56.6667 447 38 c 1
 482.333 65.3333 512.333 100.667 537 144 c 0
 564.333 190.667 578.333 234.333 579 275 c 0
372 20 m 1
 337.333 47.3333 308.667 82.3333 286 125 c 0
 263.333 167.667 251.667 210 251 252 c 0
 250.333 294 246.333 328 239 354 c 0
 226.333 398.667 203.333 421.333 170 422 c 0
 135.333 422.667 107 403.667 85 365 c 0
 67 333 57.6667 298 57 260 c 0
 56.3333 198 83 145 137 101 c 0
 182.333 63.6667 238.333 38 305 24 c 1
 333 21 l 1
 372 20 l 1
626 -188 m 1
 626 -42 l 1
 326 -188 l 1
 626 -188 l 1
EndSplineSet
EndChar
StartChar: 32
Encoding: 65576 -1
Width: 1183
Flags: HW
Fore
1151 175 m 0
 1151.67 127 1140.67 83.3333 1118 44 c 0
 1092 -2 1056.33 -25 1011 -25 c 0
 971.667 -25 937.833 -6.33333 909.5 31 c 0
 881.167 68.3333 866.667 114.667 866 170 c 0
 865.333 242.667 895 316.333 955 391 c 1
 942.333 397 929.333 400 916 400 c 0
 884.667 400 857.333 391.333 834 374 c 0
 808.667 354.667 796 330 796 300 c 2
 796 -10 l 1
 726 -10 l 1
 726 300 l 2
 726 330.667 713.333 355.333 688 374 c 0
 664.667 390.667 637.333 399.333 606 400 c 0
 574 400.667 546 390.5 522 369.5 c 0
 498 348.5 486 322 486 290 c 2
 486 -10 l 1
 416 -10 l 1
 416 290 l 2
 416 323.333 402.333 350.333 375 371 c 0
 349.667 389.667 320 399.333 286 400 c 0
 230 400.667 181.833 381.667 141.5 343 c 0
 101.167 304.333 81 257 81 201 c 1
 86 152 l 1
 66 151 l 1
 66 184.333 78.3333 212.333 103 235 c 0
 127.667 257.667 157 269.333 191 270 c 0
 231 270.667 265 256.667 293 228 c 0
 321 199.333 335.333 165 336 125 c 0
 336.667 85.6667 322.5 52.6667 293.5 26 c 0
 264.5 -0.666667 230.333 -14.3333 191 -15 c 0
 155.667 -15.6667 124.333 -2 97 26 c 0
 73 50 55 80.3333 43 117 c 0
 35 141 31 168.667 31 200 c 0
 31 269.333 54.6667 329.167 102 379.5 c 0
 149.333 429.833 207.333 455 276 455 c 0
 360 455 418.333 427.333 451 372 c 1
 483.667 426.667 535.333 454.333 606 455 c 0
 640.667 455.667 672 449.167 700 435.5 c 0
 728 421.833 750 403.333 766 380 c 1
 798.667 428.667 852 453.667 926 455 c 0
 942.667 455 961.667 449.333 983 438 c 1
 995 456 1001 470 1001 480 c 0
 1001 500.667 993.667 518.167 979 532.5 c 0
 964.333 546.833 946.667 554.333 926 555 c 0
 899.333 555.667 869.667 537.667 837 501 c 1
 798 540 l 1
 842 592.667 888 619.333 936 620 c 0
 968 620.667 995.833 610.5 1019.5 589.5 c 0
 1043.17 568.5 1055.33 542 1056 510 c 0
 1056.67 484 1046.33 452 1025 414 c 1
 1064.33 388.667 1095 354.5 1117 311.5 c 0
 1139 268.5 1150.33 223 1151 175 c 0
1071 200 m 0
 1071 278 1046.33 333.667 997 367 c 1
 943 311 916 247 916 175 c 0
 916 144.333 921.333 116.333 932 91 c 0
 945.333 57.6667 965 40.6667 991 40 c 0
 1017.67 39.3333 1038.67 60.3333 1054 103 c 0
 1065.33 135 1071 167.333 1071 200 c 0
256 130 m 0
 256 153.333 249.167 173.333 235.5 190 c 0
 221.833 206.667 203.667 215 181 215 c 0
 161 215 143.667 207 129 191 c 0
 114.333 175 106.667 154.667 106 130 c 0
 105.333 106 111.833 85.1667 125.5 67.5 c 0
 139.167 49.8333 157.667 40.6667 181 40 c 0
 211.667 39.3333 234.667 57.6667 250 95 c 0
 254 105 256 116.667 256 130 c 0
EndSplineSet
EndChar
StartChar: 33
Encoding: 65577 -1
Width: 1308
Flags: HW
Fore
1284 210 m 0
 1284 151.333 1268.67 100 1238 56 c 0
 1204 5.33333 1159 -20 1103 -20 c 0
 1019 -20 961.667 8.66667 931 66 c 1
 898.333 9.33333 854.333 -19.3333 799 -20 c 0
 748.333 -20.6667 704.833 -3.16667 668.5 32.5 c 0
 632.167 68.1667 614 110.667 614 160 c 2
 614 260 l 2
 614 296.667 603.5 328.167 582.5 354.5 c 0
 561.5 380.833 535.667 394.333 505 395 c 0
 471 395.667 442 383.5 418 358.5 c 0
 394 333.5 382 304 382 270 c 2
 382 -10 l 1
 314 -10 l 1
 314 265 l 2
 314 298.333 303.333 328.333 282 355 c 0
 260.667 381.667 233.667 395 201 395 c 0
 155.667 395 118.333 377.333 89 342 c 0
 59.6667 306.667 44.6667 266 44 220 c 0
 43.3333 134.667 84.6667 66 168 14 c 1
 142 -24 l 1
 45.3333 34.6667 -3.33333 116 -4 220 c 0
 -4.66667 283.333 14.6667 338.333 54 385 c 0
 95.3333 434.333 147.333 459.333 210 460 c 0
 238 460 266 452.167 294 436.5 c 0
 322 420.833 341.667 400 353 374 c 1
 366.333 401.333 387.333 423 416 439 c 0
 443.333 453 473 460 505 460 c 0
 554.333 460 596 440.167 630 400.5 c 0
 664 360.833 681 315.667 681 265 c 2
 681 190 l 2
 681 150.667 690.667 117 710 89 c 0
 732 57 761.667 40.6667 799 40 c 0
 828.333 39.3333 853 50.1667 873 72.5 c 0
 893 94.8333 903 120.667 903 150 c 2
 903 450 l 1
 971 450 l 1
 971 145 l 2
 971 113 983.667 87 1009 67 c 0
 1032.33 49 1060.67 40 1094 40 c 0
 1136.67 40 1172.33 58 1201 94 c 0
 1226.33 127.333 1239.33 166 1240 210 c 0
 1240.67 261.333 1229.17 306.5 1205.5 345.5 c 0
 1181.83 384.5 1148.67 410.667 1106 424 c 1
 1132 462 l 1
 1180.67 444.667 1218.67 411 1246 361 c 0
 1271.33 315.667 1284 265.333 1284 210 c 0
EndSplineSet
EndChar
StartChar: 34
Encoding: 65578 -1
Width: 1109
Flags: HW
Fore
1077 210 m 0
 1077.67 110 1033.67 33.6667 945 -19 c 1
 909 32 l 1
 935.667 54.6667 957.333 82.3333 974 115 c 0
 989.333 145 997 178.333 997 215 c 0
 997 259.667 986 299.333 964 334 c 0
 938 374 904 394.333 862 395 c 0
 829.333 395.667 800.333 384.833 775 362.5 c 0
 749.667 340.167 737 312.667 737 280 c 2
 737 -10 l 1
 667 -10 l 1
 667 280 l 2
 667 312 655 339 631 361 c 0
 607 383 579 394.333 547 395 c 0
 512.333 395.667 483.667 382.167 461 354.5 c 0
 438.333 326.833 427 295.333 427 260 c 2
 427 -10 l 1
 357 -10 l 1
 357 260 l 2
 357 295.333 345.667 326.5 323 353.5 c 0
 300.333 380.5 271.667 394.333 237 395 c 0
 192.333 395.667 155 377.333 125 340 c 0
 97 306 82.6667 266 82 220 c 0
 81.3333 135.333 119.667 70 197 24 c 1
 171 -19 l 1
 127 5 92.8333 38 68.5 80 c 0
 44.1667 122 32 168.667 32 220 c 0
 32 281.333 50.6667 335 88 381 c 0
 127.333 429.667 177 454.333 237 455 c 0
 270.333 455.667 301.167 447 329.5 429 c 0
 357.833 411 378.667 387.667 392 359 c 1
 404.667 389 425.333 412.5 454 429.5 c 0
 482.667 446.5 513.667 455 547 455 c 0
 579.667 455 610 445.667 638 427 c 0
 666 408.333 687.667 383.667 703 353 c 1
 741 421 795.667 455 867 455 c 0
 923.667 455 972.667 431.333 1014 384 c 0
 1055.33 336.667 1076.33 278.667 1077 210 c 0
EndSplineSet
EndChar
StartChar: 35
Encoding: 65579 -1
Width: 714
Flags: HW
Fore
682 180 m 0
 682 129.333 667.333 85 638 47 c 0
 606.667 6.33333 566.333 -14.3333 517 -15 c 0
 450.333 -15.6667 404 19.6667 378 91 c 0
 370.667 110.333 367 133.333 367 160 c 0
 366.333 236 382 291.333 414 326 c 2
 470 387 l 1
 465.333 389 458.833 390.667 450.5 392 c 0
 442.167 393.333 429.333 394.333 412 395 c 0
 366.667 396.333 332.333 372.667 309 324 c 0
 306.333 318 302.667 306.667 298 290 c 1
 296.667 262.667 294.333 221.667 291 167 c 0
 290.333 153 288.667 133.667 286 109 c 1
 276 76.3333 258.667 49 234 27 c 0
 209.333 5 180.667 -6.33333 148 -7 c 0
 100 -7.66667 64 12.3333 40 53 c 0
 20.6667 85.6667 10.6667 128 10 180 c 0
 9.33333 218 15.6667 260.333 29 307 c 0
 45 362.333 65.3333 399 90 417 c 1
 137 393 l 1
 108.333 366.333 90.6667 326 84 272 c 0
 80.6667 246 78.6667 208.667 78 160 c 0
 77.3333 116 91.3333 86 120 70 c 0
 128.667 64.6667 138 62 148 62 c 0
 165.333 61.3333 181.333 69.3333 196 86 c 1
 214 116 l 1
 220 136.667 224.833 171 228.5 219 c 0
 232.167 267 237.667 301.667 245 323 c 0
 257 359.667 278.5 390.667 309.5 416 c 0
 340.5 441.333 374.667 454.333 412 455 c 0
 440.667 455.667 470.333 448.667 501 434 c 1
 505 447.333 507 459.333 507 470 c 0
 507 488.667 500 505 486 519 c 0
 472 533 455.667 540 437 540 c 0
 399 540 367.667 525.333 343 496 c 1
 308 531 l 1
 349.333 577 397.333 600 452 600 c 0
 484 600 511 588 533 564 c 0
 555 540 566.333 512 567 480 c 0
 567.667 452 561 428 547 408 c 1
 587.667 382.667 620 350.333 644 311 c 0
 669.333 269.667 682 226 682 180 c 0
602 190 m 0
 602.667 222.667 594.667 254 578 284 c 0
 561.333 314 539 338 511 356 c 1
 474 314 l 2
 454.667 292 440.667 269.667 432 247 c 0
 422 220.333 417 191.333 417 160 c 0
 417 130 425.667 104.333 443 83 c 0
 460.333 61.6667 483.333 50.6667 512 50 c 0
 541.333 49.3333 564.333 66 581 100 c 0
 594.333 127.333 601.333 157.333 602 190 c 0
EndSplineSet
EndChar
StartChar: 36
Encoding: 65580 -1
Width: 1308
Flags: HW
Fore
1279 -10 m 1
 504 -10 l 1
 504 40 l 1
 784 40 l 2
 835.333 40 878 58.8333 912 96.5 c 0
 946 134.167 963.333 178.667 964 230 c 0
 964.667 274 950.667 312.167 922 344.5 c 0
 893.333 376.833 857.333 393.667 814 395 c 1
 791 393 l 1
 766 388 l 1
 818 351.333 844 305.333 844 250 c 0
 844 210 830.667 175.833 804 147.5 c 0
 777.333 119.167 744 105 704 105 c 0
 666.667 105 635.833 118.167 611.5 144.5 c 0
 587.167 170.833 574.667 202.667 574 240 c 0
 573.333 302 600.333 352 655 390 c 1
 637 393 l 1
 604 395 l 2
 568 397 535 385 505 359 c 0
 477.667 335 464 305.333 464 270 c 2
 464 -10 l 1
 394 -10 l 1
 394 280 l 2
 394 314 378.667 342 348 364 c 0
 320.667 384 289.333 394.333 254 395 c 0
 204.667 395.667 163.333 377.5 130 340.5 c 0
 96.6667 303.5 79.6667 260 79 210 c 1
 82 181 l 1
 62 182 l 1
 66.6667 209.333 80.6667 231 104 247 c 0
 125.333 261.667 150.333 269.333 179 270 c 0
 219 270.667 253.167 257.333 281.5 230 c 0
 309.833 202.667 324 169.333 324 130 c 0
 324 90 310.667 55.8333 284 27.5 c 0
 257.333 -0.833333 224 -15 184 -15 c 0
 131.333 -15 91 8.66667 63 56 c 0
 41 94.6667 29.6667 142.667 29 200 c 0
 28.3333 266.667 48.6667 325 90 375 c 0
 134 428.333 188.667 455 254 455 c 0
 290 455 323.667 448 355 434 c 0
 389.667 418 414.667 395.333 430 366 c 1
 470.667 424.667 528.667 454.333 604 455 c 0
 647.333 455.667 682.667 446.333 710 427 c 1
 741.333 445 776 454.333 814 455 c 0
 877.333 455.667 931.333 434.833 976 392.5 c 0
 1020.67 350.167 1043.33 297.667 1044 235 c 0
 1044.67 158.333 1017 95 961 45 c 1
 1209 45 l 1
 1209 450 l 1
 1279 450 l 1
 1279 -10 l 1
764 250 m 0
 764.667 294 742.667 330.333 698 359 c 1
 650 335 625.333 295.333 624 240 c 0
 623.333 218.667 629.5 200.167 642.5 184.5 c 0
 655.5 168.833 672.667 160.667 694 160 c 0
 716 159.333 733.667 169 747 189 c 0
 757.667 206.333 763.333 226.667 764 250 c 0
244 130 m 0
 244 152.667 237 173.333 223 192 c 0
 209 210.667 191 220 169 220 c 0
 147 220 129.167 210.667 115.5 192 c 0
 101.833 173.333 94.6667 152.667 94 130 c 0
 93.3333 106 99.8333 85.1667 113.5 67.5 c 0
 127.167 49.8333 145.667 40.6667 169 40 c 0
 199.667 39.3333 222.667 57.6667 238 95 c 0
 242 105 244 116.667 244 130 c 0
EndSplineSet
EndChar
StartChar: 37
Encoding: 65581 -1
Width: 941
Flags: HW
Fore
886 0 m 1
 876 0 l 1
 876 -10 l 1
 391 -10 l 1
 391 240 l 2
 391 287.333 373.833 326.667 339.5 358 c 0
 305.167 389.333 264 405 216 405 c 0
 196 405 173.667 391.333 149 364 c 0
 116.333 327.333 99.6667 279.333 99 220 c 0
 98.3333 177.333 104.333 135.333 117 94 c 2
 148 -9 l 1
 108 -10 l 1
 82.6667 27.3333 62.5 68 47.5 112 c 0
 32.5 156 25 192 25 220 c 0
 25 298.667 45.3333 359.333 86 402 c 0
 119.333 436.667 159.333 454.333 206 455 c 0
 251.333 455.667 293.333 445.333 332 424 c 0
 370.667 402.667 400.333 372.667 421 334 c 1
 440.333 373.333 472 403.667 516 425 c 0
 555.333 444.333 598.667 454.333 646 455 c 0
 709.333 455.667 764.333 437 811 399 c 0
 861 358.333 886 307 886 245 c 2
 886 0 l 1
831 40 m 1
 831 240 l 2
 831 288.667 812.5 328.333 775.5 359 c 0
 738.5 389.667 695.333 405 646 405 c 0
 605.333 405 568.667 395.333 536 376 c 1
 530 395 l 1
 551 397 l 1
 595 397 631.333 378 660 340 c 0
 687.333 304.667 701 264.667 701 220 c 0
 701 146.667 668.333 86.6667 603 40 c 1
 831 40 l 1
616 230 m 0
 616 259.333 609.333 286 596 310 c 0
 580 339.333 558.333 354.333 531 355 c 0
 511.667 355.667 493.333 345 476 323 c 0
 461.333 304.333 449.667 276.333 441 239 c 1
 441 40 l 1
 501 40 l 1
 536.333 52.6667 564.667 78.3333 586 117 c 0
 606 152.333 616 190 616 230 c 0
EndSplineSet
EndChar
StartChar: 38
Encoding: 65582 -1
Width: 780
Flags: HW
Fore
733 125 m 0
 733.667 88.3333 722.667 56 700 28 c 0
 677.333 0 648.333 -14.3333 613 -15 c 0
 575.667 -15.6667 546.667 -4 526 20 c 1
 550 59 l 1
 570 47.6667 586 41.3333 598 40 c 0
 614 40 627 48.6667 637 66 c 0
 641.667 74 645.333 83.6667 648 95 c 0
 650.667 106.333 652.333 118 653 130 c 0
 653.667 149.333 648 166.667 636 182 c 0
 624 197.333 609.667 205 593 205 c 2
 523 205 l 1
 523 152.333 510.667 104.667 486 62 c 0
 456.667 11.3333 417.333 -14.3333 368 -15 c 0
 320.667 -15.6667 282.667 4.33333 254 45 c 1
 232 5 195 -15 143 -15 c 0
 107 -15 77.3333 -1.66667 54 25 c 0
 30.6667 51.6667 18.6667 83.3333 18 120 c 0
 17.3333 156.667 28.8333 188.333 52.5 215 c 0
 76.1667 241.667 106.333 255 143 255 c 2
 208 255 l 1
 208 304.333 220.333 348.333 245 387 c 0
 273.667 431.667 311.333 454.333 358 455 c 0
 406 455.667 446 434 478 390 c 0
 507.333 350 522.333 305 523 255 c 1
 593 255 l 2
 631 255 663.667 242.667 691 218 c 0
 718.333 193.333 732.333 162.333 733 125 c 0
443 255 m 1
 443 287.667 436.333 317.333 423 344 c 0
 406.333 377.333 383 394.333 353 395 c 0
 323 395.667 299 379 281 345 c 0
 266.333 317.667 258.667 287.667 258 255 c 1
 443 255 l 1
443 205 m 1
 258 205 l 1
 258 163.667 264 128.667 276 100 c 0
 292 60 317.667 40 353 40 c 0
 377.667 40 399.333 55 418 85 c 1
 433.333 115 441.667 155 443 205 c 1
225 96 m 1
 215 124 209.333 160.333 208 205 c 1
 153 205 l 2
 130.333 205 111.5 196.5 96.5 179.5 c 0
 81.5 162.5 73.6667 142.667 73 120 c 0
 72.3333 98.6667 78.5 80.1667 91.5 64.5 c 0
 104.5 48.8333 121.667 40.6667 143 40 c 0
 174.333 39.3333 201.667 58 225 96 c 1
747 -218 m 0
 747 -284 726 -335 684 -371 c 1
 649 -340 l 1
 660.333 -330.667 670 -314.667 678 -292 c 1
 684 -268 687.333 -243.333 688 -218 c 0
 688.667 -181.333 677 -149.5 653 -122.5 c 0
 629 -95.5 598.667 -81.6667 562 -81 c 0
 545.333 -81 529 -83 513 -87 c 1
 559 -124.333 582.333 -173.667 583 -235 c 0
 583.667 -269.667 573.167 -300.333 551.5 -327 c 0
 529.833 -353.667 505.333 -367.333 478 -368 c 0
 449.333 -368.667 424.667 -355.333 404 -328 c 0
 383.333 -300.667 373 -267.333 373 -228 c 0
 373 -168.667 394.667 -123.667 438 -93 c 1
 420 -85 405.333 -81 394 -81 c 0
 357.333 -81 326.5 -94.6667 301.5 -122 c 0
 276.5 -149.333 264 -181.333 264 -218 c 0
 264 -268 284 -311 324 -347 c 1
 300 -371 l 1
 253.333 -332.333 229.667 -281.333 229 -218 c 0
 228.333 -169.333 244.667 -127.5 278 -92.5 c 0
 311.333 -57.5 352.333 -39.6667 401 -39 c 0
 425 -39 451.667 -46.6667 481 -62 c 1
 509 -47.3333 540.667 -39.6667 576 -39 c 0
 624 -38.3333 664.5 -56 697.5 -92 c 0
 730.5 -128 747 -170 747 -218 c 0
527 -235 m 0
 527.667 -188.333 508.667 -145.667 470 -107 c 1
 429.333 -133.667 408.667 -174 408 -228 c 0
 408 -252 412.333 -273.667 421 -293 c 0
 433 -317 449.667 -329.333 471 -330 c 0
 489 -330.667 503.333 -318.667 514 -294 c 0
 522 -275.333 526.333 -255.667 527 -235 c 0
EndSplineSet
EndChar
StartChar: 39
Encoding: 65583 -1
Width: 942
Flags: HW
Fore
827 -355 m 1
 257 -355 l 1
 257 -319 l 1
 279 -309 297 -294.167 311 -274.5 c 0
 325 -254.833 332 -233.333 332 -210 c 0
 332 -175.333 319 -146.333 293 -123 c 0
 267.667 -101.667 237.333 -90.6667 202 -90 c 0
 166.667 -89.3333 136.333 -100.5 111 -123.5 c 0
 85.6667 -146.5 72.6667 -175.333 72 -210 c 0
 71.3333 -255.333 91.6667 -295.667 133 -331 c 1
 97 -359 l 1
 44.3333 -307 17.6667 -257.333 17 -210 c 0
 16.3333 -156.667 35.3333 -111.833 74 -75.5 c 0
 112.667 -39.1667 158.667 -20.6667 212 -20 c 0
 268 -19.3333 316.167 -37.8333 356.5 -75.5 c 0
 396.833 -113.167 417 -158 417 -210 c 0
 417 -246.667 403.667 -278.333 377 -305 c 1
 757 -305 l 1
 757 5 l 1
 257 5 l 1
 257 46 l 1
 303 72 326.333 105 327 145 c 0
 327.667 179 315.667 208.167 291 232.5 c 0
 266.333 256.833 236.667 269.333 202 270 c 0
 167.333 270.667 137.167 259.5 111.5 236.5 c 0
 85.8333 213.5 72.6667 184.667 72 150 c 0
 71.3333 96.6667 97 57.6667 149 33 c 1
 114 -3 l 1
 53.3333 37.6667 22.6667 88.6667 22 150 c 0
 21.3333 202 40.5 246.667 79.5 284 c 0
 118.5 321.333 164.333 340 217 340 c 0
 270.333 340 316.167 321.667 354.5 285 c 0
 392.833 248.333 412 203.333 412 150 c 0
 412 116.667 398 85 370 55 c 1
 757 55 l 1
 757 450 l 1
 827 450 l 1
 827 -355 l 1
EndSplineSet
EndChar
StartChar: 40
Encoding: 65584 -1
Width: 1112
Flags: HW
Fore
551 393 m 0
 525 393.667 501 378.167 479 346.5 c 0
 457 314.833 445.667 272.667 445 220 c 0
 444.333 154 429.333 100 400 58 c 0
 366 10 317.667 -14.3333 255 -15 c 0
 193 -15.6667 140 5.33333 96 48 c 0
 52 90.6667 30 143 30 205 c 0
 30 263 43 313.667 69 357 c 0
 97 403 137 436.333 189 457 c 1
 216 422 l 1
 175.333 402 143.5 373.667 120.5 337 c 0
 97.5 300.333 85.6667 259.667 85 215 c 0
 84.3333 170.333 98.1667 131.667 126.5 99 c 0
 154.833 66.3333 191 50 235 50 c 0
 279.667 50 313.333 68 336 104 c 0
 354.667 133.333 364.333 172 365 220 c 0
 365.667 285.333 379.333 338.667 406 380 c 0
 437.333 428.667 483.667 453.333 545 454 c 0
 580.333 454.667 613.333 445.667 644 427 c 0
 672 410.333 693.333 390.333 708 367 c 1
 738 421 794.667 448.333 878 449 c 0
 933.333 449.667 981.333 427.167 1022 381.5 c 0
 1062.67 335.833 1083 280 1083 214 c 0
 1083 162 1070 114.833 1044 72.5 c 0
 1018 30.1667 981.667 -2 935 -24 c 1
 903 18 l 1
 965 51.3333 996.667 116.667 998 214 c 0
 998.667 257.333 988 296.667 966 332 c 0
 941.333 372.667 908.667 393.333 868 394 c 0
 833.333 394.667 803 383.5 777 360.5 c 0
 751 337.5 738 308.667 738 274 c 2
 738 -16 l 1
 668 -16 l 1
 668 274 l 2
 668 306.667 656.667 334.5 634 357.5 c 0
 611.333 380.5 583.667 392.333 551 393 c 0
EndSplineSet
EndChar
StartChar: 41
Encoding: 65585 -1
Width: 785
Flags: HW
Fore
774 -70 m 0
 774.667 -112 755 -149.167 715 -181.5 c 0
 675 -213.833 626.333 -230 569 -230 c 0
 523 -230 482.333 -218 447 -194 c 0
 411.667 -170 386 -136.333 370 -93 c 0
 346.667 -31 318 0 284 0 c 2
 243 0 l 1
 269.667 -22 283.333 -52 284 -90 c 0
 284.667 -128 270.333 -159.833 241 -185.5 c 0
 211.667 -211.167 177.667 -224.333 139 -225 c 0
 101 -225.667 69 -212.833 43 -186.5 c 0
 17 -160.167 4 -128 4 -90 c 0
 4 -44.6667 25.6667 -7.66667 69 21 c 1
 36.3333 47 19.6667 81.6667 19 125 c 0
 18.3333 164.333 31.6667 197.5 59 224.5 c 0
 86.3333 251.5 119.667 265 159 265 c 2
 224 265 l 1
 224 313.667 238 356.667 266 394 c 0
 297.333 434 336.667 454.333 384 455 c 0
 428.667 455.667 468.167 437.5 502.5 400.5 c 0
 536.833 363.5 554 318.333 554 265 c 1
 619 265 l 2
 658.333 265 692.167 252.167 720.5 226.5 c 0
 748.833 200.833 763.333 168.667 764 130 c 0
 764.667 83.3333 753.667 49.6667 731 29 c 1
 759 1.66667 773.333 -31.3333 774 -70 c 0
474 265 m 1
 474 297 466.333 325.333 451 350 c 0
 433 379.333 409 394.333 379 395 c 0
 348.333 395.667 323 381.333 303 352 c 0
 284.333 326 274.667 297 274 265 c 1
 474 265 l 1
694 -70 m 0
 694 -46 686 -26 670 -10 c 1
 619.333 -10 582 1 558 23 c 1
 575 65 l 1
 601 51 l 2
 608.333 47 614.333 45 619 45 c 0
 640.333 45 657.333 53.6667 670 71 c 0
 682.667 88.3333 689 108 689 130 c 0
 689 152.667 682.833 172.5 670.5 189.5 c 0
 658.167 206.5 641 215 619 215 c 2
 554 215 l 1
 554 157.667 543 109.333 521 70 c 0
 495 22.6667 456.333 -5.33333 405 -14 c 1
 419 -30.6667 430 -51.6667 438 -77 c 0
 447.333 -106.333 464.5 -130 489.5 -148 c 0
 514.5 -166 542.667 -175 574 -175 c 0
 605.333 -175 633.167 -165.167 657.5 -145.5 c 0
 681.833 -125.833 694 -100.667 694 -70 c 0
474 215 m 1
 274 215 l 1
 274 165 283.833 123.333 303.5 90 c 0
 323.167 56.6667 346.667 40 374 40 c 0
 410.667 40 437.667 61.3333 455 104 c 0
 467 134.667 473.333 171.667 474 215 c 1
252 81 m 1
 240 107 231 151.667 225 215 c 1
 159 215 l 2
 133 215 111.667 206.5 95 189.5 c 0
 78.3333 172.5 69.6667 151 69 125 c 0
 68.3333 101 77 81 95 65 c 0
 113 49 134.333 40.6667 159 40 c 0
 195 39.3333 226 53 252 81 c 1
204 -90 m 0
 204 -66.6667 197.167 -46.6667 183.5 -30 c 0
 169.833 -13.3333 151.667 -5 129 -5 c 0
 109 -5 91.6667 -13 77 -29 c 0
 62.3333 -45 54.6667 -65.3333 54 -90 c 0
 53.3333 -112 60.3333 -130.833 75 -146.5 c 0
 89.6667 -162.167 107.667 -170 129 -170 c 0
 159.667 -170 182.667 -153.667 198 -121 c 0
 202 -112.333 204 -102 204 -90 c 0
EndSplineSet
EndChar
StartChar: 42
Encoding: 65586 -1
Width: 1106
Flags: HW
Fore
1075 220 m 0
 1075 158 1055.67 104 1017 58 c 0
 976.333 9.33333 925.667 -15 865 -15 c 0
 807 -15 761 5 727 45 c 0
 695.667 82.3333 680 130.667 680 190 c 2
 680 280 l 2
 680 314 667.833 342.333 643.5 365 c 0
 619.167 387.667 589.667 399.333 555 400 c 0
 521.667 400.667 493.333 389.167 470 365.5 c 0
 446.667 341.833 435 313.333 435 280 c 2
 435 -10 l 1
 365 -10 l 1
 365 280 l 2
 365 314.667 352 343.667 326 367 c 0
 300.667 388.333 270.333 399.333 235 400 c 0
 189.667 400.667 152 381.667 122 343 c 0
 94 307.667 80 266.667 80 220 c 0
 80 174.667 91.1667 135 113.5 101 c 0
 135.833 67 168 41.6667 210 25 c 1
 185 -18 l 1
 137.667 4.66667 100.167 36.3333 72.5 77 c 0
 44.8333 117.667 30.6667 163.667 30 215 c 0
 29.3333 279.667 50.3333 336.333 93 385 c 0
 133.667 431.667 184.333 455 245 455 c 0
 279 455 310.5 447.333 339.5 432 c 0
 368.5 416.667 390.333 395.333 405 368 c 1
 419.667 395.333 442.333 417 473 433 c 0
 501.667 447.667 532.333 455 565 455 c 0
 620.333 455 665 438 699 404 c 0
 733 370 750 325.333 750 270 c 2
 750 190 l 2
 750 152 760.333 118.333 781 89 c 0
 803.667 57 833.333 40.6667 870 40 c 0
 915.333 39.3333 953 58.3333 983 97 c 0
 1010.33 132.333 1024.33 173.333 1025 220 c 0
 1025.67 261.333 1014.5 299.333 991.5 334 c 0
 968.5 368.667 936.667 396 896 416 c 1
 921 458 l 1
 967 436.667 1004.17 404.167 1032.5 360.5 c 0
 1060.83 316.833 1075 270 1075 220 c 0
1072 -273 m 0
 1072.67 -299 1064.5 -321.667 1047.5 -341 c 0
 1030.5 -360.333 1010.67 -370.333 988 -371 c 0
 964 -371.667 943.667 -363.667 927 -347 c 1
 944 -319 l 1
 954.667 -326.333 965.667 -331 977 -333 c 1
 989 -333 999 -325 1007 -309 c 0
 1013 -296.333 1016 -283.333 1016 -270 c 0
 1016 -257.333 1012 -245.333 1004 -234 c 0
 996 -222.667 986 -217 974 -217 c 2
 925 -217 l 1
 925 -253.667 916 -287 898 -317 c 0
 877.333 -352.333 850 -370.333 816 -371 c 0
 784.667 -371.667 758.333 -357.667 737 -329 c 1
 721 -357 695 -371 659 -371 c 0
 633.667 -371 613 -361.667 597 -343 c 0
 581 -324.333 572.667 -302.333 572 -277 c 0
 571.333 -251 579.167 -228.667 595.5 -210 c 0
 611.833 -191.333 633 -182 659 -182 c 2
 705 -182 l 1
 705 -146.667 713.667 -115.667 731 -89 c 0
 750.333 -58.3333 776.667 -42.6667 810 -42 c 0
 843.333 -41.3333 871.333 -56.6667 894 -88 c 0
 914 -116 924.333 -147.333 925 -182 c 1
 974 -182 l 2
 1000.67 -182 1023.5 -190.5 1042.5 -207.5 c 0
 1061.5 -224.5 1071.33 -246.333 1072 -273 c 0
869 -182 m 1
 869 -158.667 864.333 -137.667 855 -119 c 0
 843 -96.3333 826.667 -84.6667 806 -84 c 0
 787.333 -83.3333 772 -92.5 760 -111.5 c 0
 748 -130.5 741.333 -154 740 -182 c 1
 869 -182 l 1
869 -217 m 1
 740 -217 l 1
 740 -293 762 -331.667 806 -333 c 0
 828 -333.667 844.667 -319 856 -289 c 0
 864.667 -267 869 -243 869 -217 c 1
716 -293 m 1
 710 -273 706.333 -247.667 705 -217 c 1
 666 -217 l 2
 651.333 -217 638.5 -223 627.5 -235 c 0
 616.5 -247 610.667 -261 610 -277 c 0
 609.333 -292.333 613.5 -305.333 622.5 -316 c 0
 631.5 -326.667 643.667 -332.333 659 -333 c 0
 681 -333.667 700 -320.333 716 -293 c 1
EndSplineSet
EndChar
